<svg><g><path
				style="fill:#000000;fill-opacity:1;fill-rule:evenodd;stroke:none"
				d="m 95.72971,266.7949 c -5.57504,2.79274 -12.48498,4.1891 -20.72511,4.1891 -9.69981,0 -18.99938,-1.66998 -27.91049,-5.00757 -8.90876,-3.33996 -16.75807,-7.86163 -23.54558,-13.56975 -6.78751,-5.70339 -12.24248,-12.38094 -16.36254,-20.03029 -4.12007,-7.64934 -6.1801,-15.78458 -6.1801,-24.40572 0,-29.26234 20.72746,-61.31506 62.18472,-96.1605 -1.3349,-5.34251 -2.33313,-10.74399 -2.99941,-16.209153 -0.66627,-5.460449 -1.00058,-11.107236 -1.00058,-16.938007 0,-8.010226 0.66392,-15.871864 1.99646,-23.582532 1.3302,-7.710668 3.23955,-14.935434 5.72336,-21.674325 2.48617,-6.738864 5.54208,-12.869193 9.17715,-18.393316 3.63272,-5.5265031 7.814,-10.1708424 12.53677,-13.9306366 16.47555,22.8253826 24.71097,44.6247216 24.71097,65.3862176 0,13.480109 -3.18069,26.321 -9.54442,38.522682 -6.36138,12.20404 -16.32959,24.07079 -29.90225,35.60967 l 7.99763,38.42834 c 4.36256,-0.35616 6.78751,-0.53307 7.2725,-0.53307 6.05767,0 11.72453,1.09209 16.99586,3.27863 5.27368,2.18418 9.88109,5.18919 13.82693,9.01269 3.94349,3.82349 7.07003,8.34517 9.37727,13.56502 2.30488,5.21986 3.4585,10.86193 3.46085,16.93329 -0.002,4.36836 -0.78869,8.68011 -2.36374,12.92581 -1.57504,4.25042 -3.814,8.28856 -6.72159,12.10969 -2.90994,3.82586 -6.36373,7.34272 -10.36137,10.55766 -3.99764,3.21965 -8.42141,5.98172 -13.26896,8.28856 0,-0.24294 0.18129,0.45523 0.54385,2.09218 0.36492,1.63932 0.8193,3.79048 1.36315,6.46291 0.5462,2.67008 1.18187,5.64443 1.90935,8.92306 0.72749,3.27626 1.36316,6.43224 1.90936,9.46556 0.5462,3.03568 1.02884,5.73878 1.45497,8.10222 0.42378,2.37052 0.63567,3.97681 0.63567,4.82595 0,5.70576 -1.21248,10.92561 -3.63508,15.65957 -2.42495,4.73396 -5.69746,8.80041 -9.81988,12.19933 -4.12006,3.39656 -8.90875,6.03833 -14.36136,7.9206 -5.45497,1.88226 -11.21364,2.82339 -17.27602,2.82339 -4.60506,0 -8.90641,-0.72885 -12.90875,-2.18654 -4,-1.45769 -7.515,-3.52157 -10.54502,-6.18929 -3.02765,-2.67244 -5.422,-5.91568 -7.18068,-9.73918 -1.75632,-3.82113 -2.63449,-8.03853 -2.63449,-12.64984 0,-3.27862 0.54621,-6.37563 1.63626,-9.2863 1.09005,-2.91066 2.60623,-5.39912 4.54384,-7.463 1.93996,-2.06389 4.3037,-3.7032 7.09122,-4.91323 2.78987,-1.21474 5.81989,-1.82329 9.09004,-1.82329 2.90994,0 5.63625,0.66988 8.18127,2.00492 2.54502,1.33503 4.72748,3.06634 6.54502,5.18919 1.81754,2.12521 3.27251,4.5547 4.36491,7.2861 1.09005,2.72905 1.63626,5.49111 1.63626,8.28384 0,6.31431 -2.33314,11.4752 -7.00176,15.48267 -4.66627,4.00512 -10.51205,6.37328 -17.54441,7.09976 5.57504,2.79509 11.329,4.19146 17.2666,4.1891 4.8452,0.002 9.57268,-0.87745 14.17773,-2.64177 4.6027,-1.75961 8.62859,-4.12777 12.08474,-7.10212 3.45379,-2.97436 6.24131,-6.43932 8.3602,-10.38547 2.11889,-3.94614 3.18069,-8.16354 3.18069,-12.65692 0,-1.70299 -0.18365,-3.58526 -0.54385,-5.64914 L 95.72971,266.7949 z M 95.18821,27.488123 c -1.21483,-0.243068 -2.30724,-0.365597 -3.27486,-0.365597 -3.75986,0 -7.24661,1.912917 -10.46026,5.738777 -3.21365,3.823478 -6.00352,8.80275 -8.36726,14.933079 -2.36374,6.132684 -4.21188,13.022518 -5.54914,20.671856 -1.33254,7.649365 -2.00117,15.298698 -2.00117,22.948042 0,3.158334 0.12478,6.194011 0.36492,9.10704 0.24485,2.91538 0.67333,5.70811 1.2831,8.37819 24.73216,-21.976242 37.09942,-41.768292 37.09942,-59.373819 0,-8.378205 -3.03237,-15.723276 -9.09475,-22.037568 z m 3.814,231.850857 c 5.94467,-4.37072 10.46026,-9.16837 13.55619,-14.39058 3.09123,-5.21986 4.63802,-10.86429 4.63802,-16.93801 0,-3.76216 -0.63802,-7.4347 -1.91171,-11.01996 -1.27134,-3.57818 -3.08887,-6.76718 -5.45497,-9.56227 -2.36609,-2.78801 -5.18657,-5.03588 -8.46143,-6.7318 -3.27486,-1.69828 -6.85108,-2.54506 -10.72865,-2.54506 -0.24249,0 -0.72749,0.0307 -1.45497,0.0873 -0.72513,0.0613 -1.75633,0.15097 -3.08887,0.2689 l 12.90639,60.83151 z M 81.56374,199.26225 c -3.75749,0.48354 -7.2725,1.42468 -10.545,2.82104 -3.27251,1.39637 -6.08828,3.12767 -8.45202,5.19155 -2.36374,2.06389 -4.24249,4.43205 -5.63625,7.10212 -1.39376,2.67244 -2.09064,5.58546 -2.09064,8.7438 0,9.34762 4.96527,17.11962 14.88874,23.31127 -8.24013,-1.33503 -14.84636,-4.52167 -19.81634,-9.56227 -4.96997,-5.03823 -7.45378,-11.38084 -7.45378,-19.03255 0,-4.49101 0.93937,-8.83106 2.81812,-13.02016 1.87875,-4.18909 4.39317,-7.95598 7.54325,-11.30065 3.15479,-3.34703 6.85108,-6.23647 11.09121,-8.66595 4.24249,-2.43421 8.72748,-4.13721 13.45261,-5.10664 l -7.63507,-36.42579 c -17.08768,12.86684 -30.02468,25.49546 -38.81101,37.88112 -8.78633,12.38567 -13.1795,24.64868 -13.1795,36.79139 0,6.67755 1.48322,12.99421 4.45438,18.94292 2.97115,5.95106 6.9735,11.14026 12.00469,15.5723 5.03119,4.4344 10.85107,7.92531 17.45966,10.47274 6.60623,2.55214 13.60563,3.82821 20.9982,3.82821 4.24249,0 8.18127,-0.39627 11.81634,-1.18408 3.63743,-0.79017 7.03001,-2.03558 10.1801,-3.73386 L 81.56374,199.26225 z" />
				</g></svg>