<?xml version="1.0" encoding="UTF-8"?>
<!DOCTYPE svg PUBLIC "-//W3C//DTD SVG 1.1//EN" "http://www.w3.org/Graphics/SVG/1.1/DTD/svg11.dtd"><svg version="1.1" viewBox="0 0 21000 29700" preserveAspectRatio="xMidYMid" fill-rule="evenodd" xmlns="http://www.w3.org/2000/svg" xmlns:xlink="http://www.w3.org/1999/xlink"><g visibility="visible" id="Default"><desc>Master slide</desc><g style="stroke:none;fill:none"><rect x="0" y="0" width="21000" height="29700"/></g></g><g visibility="visible" id="page1"><desc>Slide</desc><g><desc>Drawing</desc><g><g style="stroke:none;fill:rgb(0,0,0)"><path d="M 90,276 C 86,276 81,275 77,274 73,273 70,271 67,268 64,266 61,263 60,260 58,256 57,253 57,249 57,247 57,245 58,243 59,241 60,239 61,238 63,236 64,235 66,234 68,233 70,232 72,232 74,232 76,233 77,233 79,234 81,236 82,237 84,238 85,240 86,242 87,244 87,246 87,248 87,250 86,252 85,253 84,255 82,256 80,258 79,259 77,260 76,261 75,262 74,262 74,263 74,267 79,269 88,269 92,269 96,268 98,267 101,266 103,264 105,261 107,258 108,255 109,250 110,245 110,239 110,232 110,228 110,224 109,220 108,216 107,212 105,210 104,207 102,204 100,203 98,201 96,200 93,200 84,200 76,207 67,222 66,217 65,213 64,209 63,205 62,201 60,199 59,196 57,193 55,192 53,190 52,189 49,189 48,189 47,189 46,190 L 46,275 39,275 39,93 46,93 46,179 C 46,179 47,179 47,179 48,180 48,180 49,180 51,180 53,179 55,177 57,175 59,173 60,170 62,167 63,163 64,159 65,155 66,151 67,147 77,160 86,166 92,166 94,166 97,165 99,164 101,162 103,160 104,157 106,155 107,151 108,148 109,144 109,140 109,135 109,128 109,122 108,117 107,113 106,109 104,107 102,104 99,102 96,101 93,100 89,100 84,100 75,100 71,102 71,105 71,106 73,107 75,108 80,110 83,112 85,114 86,116 87,118 87,121 87,123 87,124 86,126 85,128 84,130 83,131 81,133 80,134 78,135 76,136 74,137 72,137 68,137 64,135 61,132 58,129 56,125 56,120 56,114 58,108 62,102 66,98 70,95 74,94 79,93 83,92 88,92 95,92 101,93 106,95 112,96 116,99 120,102 124,105 127,110 129,114 131,119 132,125 132,131 132,136 131,142 129,147 128,152 125,157 122,161 119,165 116,168 112,170 108,173 103,174 98,174 89,174 81,172 76,169 L 76,169 C 74,169 72,170 71,173 70,175 69,178 69,182 69,184 69,186 69,188 70,191 70,193 71,194 72,196 72,197 73,198 74,199 75,200 76,200 79,197 82,194 86,193 89,191 93,190 97,190 102,190 107,191 111,194 116,196 120,200 123,204 126,209 129,214 130,219 132,225 133,231 133,237 133,250 129,259 122,266 114,273 104,276 90,276 Z M 27,93 L 27,275 4,275 4,93 27,93 Z"/></g><g style="stroke:none;fill:none"><rect x="4" y="92" width="130" height="185"/></g><g/></g></g></g></svg>