<?xml version="1.0" encoding="UTF-8"?>
<!DOCTYPE svg PUBLIC "-//W3C//DTD SVG 1.1//EN" "http://www.w3.org/Graphics/SVG/1.1/DTD/svg11.dtd"><svg version="1.1" viewBox="0 0 21000 29700" preserveAspectRatio="xMidYMid" fill-rule="evenodd" xmlns="http://www.w3.org/2000/svg" xmlns:xlink="http://www.w3.org/1999/xlink"><g visibility="visible" id="Default"><desc>Master slide</desc><g style="stroke:none;fill:none"><rect x="0" y="0" width="21000" height="29700"/></g></g><g visibility="visible" id="page1"><desc>Slide</desc><g><desc>Drawing</desc><g><g style="stroke:none;fill:rgb(0,0,0)"><path d="M 8,240 C 21,236 32,230 39,224 45,218 51,211 57,204 62,197 67,190 70,183 74,176 77,168 79,161 81,153 82,146 82,139 82,133 81,127 80,122 78,118 76,113 73,110 70,106 66,103 62,101 58,99 53,98 48,98 44,98 41,99 37,100 33,101 30,103 27,106 24,108 22,111 20,114 18,117 17,120 17,123 17,125 17,126 18,126 18,126 18,126 19,125 20,125 20,124 22,123 23,123 24,122 26,122 27,121 29,121 31,121 33,121 35,121 36,122 38,123 40,124 41,126 42,127 43,129 44,131 45,133 45,135 45,137 45,143 43,147 40,151 36,155 32,157 26,157 23,157 20,156 18,155 16,154 14,152 12,149 10,147 9,144 8,141 7,138 7,134 7,131 7,126 8,121 11,116 13,111 16,107 21,104 25,101 29,98 35,96 40,94 46,93 52,93 62,93 71,95 78,98 85,101 91,105 95,111 99,116 102,122 104,128 105,134 106,140 106,147 106,150 106,154 105,157 105,161 104,164 102,168 101,172 99,176 97,180 94,185 91,190 88,195 84,202 78,209 71,215 64,221 57,226 50,230 43,235 36,238 29,240 23,243 18,244 14,244 10,244 8,243 8,240 Z M 121,116 C 121,113 122,111 124,110 125,108 127,107 130,107 133,107 135,108 136,110 138,111 139,113 139,116 139,119 138,121 136,122 135,124 133,125 130,125 127,125 125,124 124,122 122,121 121,119 121,116 Z M 121,162 C 121,159 122,157 124,156 125,154 127,153 130,153 133,153 135,154 136,156 138,157 139,159 139,162 139,165 138,167 136,168 135,170 133,171 130,171 127,171 125,170 124,168 122,167 121,165 121,162 Z"/></g><g style="stroke:none;fill:none"><rect x="7" y="93" width="133" height="152"/></g><g/></g></g></g></svg>