<?xml version="1.0" encoding="UTF-8"?>
<!DOCTYPE svg PUBLIC "-//W3C//DTD SVG 1.1//EN" "http://www.w3.org/Graphics/SVG/1.1/DTD/svg11.dtd"><svg version="1.1" viewBox="0 0 21000 29700" preserveAspectRatio="xMidYMid" fill-rule="evenodd" xmlns="http://www.w3.org/2000/svg" xmlns:xlink="http://www.w3.org/1999/xlink"><g visibility="visible" id="Default"><desc>Master slide</desc><g style="stroke:none;fill:none"><rect x="0" y="0" width="21000" height="29700"/></g></g><g visibility="visible" id="page1"><desc>Slide</desc><g><desc>Drawing</desc><g><g style="stroke:none;fill:rgb(0,0,0)"><path d="M 52,321 C 51,321 50,321 50,320 50,319 51,318 51,316 51,314 52,312 52,310 53,308 53,305 53,303 54,301 54,299 54,297 54,295 54,293 53,291 52,290 51,288 50,286 48,284 46,281 43,279 40,276 36,273 31,269 28,268 27,266 25,265 23,264 22,263 21,263 20,262 19,262 17,262 16,262 15,262 13,262 L 13,181 14,181 C 14,181 15,181 15,182 15,182 15,183 16,184 19,196 26,208 36,221 39,225 41,228 45,232 48,235 51,239 53,242 56,246 58,250 59,255 60,259 61,264 61,269 61,275 60,281 58,285 59,286 59,288 59,290 60,292 60,295 60,298 L 60,298 C 60,300 60,302 59,305 59,307 58,310 57,312 56,315 56,317 55,318 54,320 53,321 52,321 Z M 55,272 C 55,263 53,256 48,250 48,250 46,249 44,247 42,245 40,242 37,240 34,237 31,235 28,233 24,230 22,229 19,228 22,233 24,238 27,243 30,247 32,252 36,255 36,256 37,257 39,259 41,260 43,262 45,264 47,267 49,269 51,271 53,273 54,275 55,277 55,276 55,275 55,274 55,273 55,272 55,272 Z"/></g><g style="stroke:none;fill:none"><rect x="13" y="181" width="49" height="141"/></g><g/></g></g></g></svg>