<?xml version="1.0" encoding="UTF-8" standalone="no"?>
<svg
   xmlns:dc="http://purl.org/dc/elements/1.1/"
   xmlns:cc="http://creativecommons.org/ns#"
   xmlns:rdf="http://www.w3.org/1999/02/22-rdf-syntax-ns#"
   xmlns:svg="http://www.w3.org/2000/svg"
   xmlns="http://www.w3.org/2000/svg"
   xmlns:sodipodi="http://sodipodi.sourceforge.net/DTD/sodipodi-0.dtd"
   xmlns:inkscape="http://www.inkscape.org/namespaces/inkscape"
   version="1.1"
   viewBox="0 0 19687 27844"
   preserveAspectRatio="xMidYMid"
   fill-rule="evenodd"
   id="svg2"
   inkscape:version="0.48.0 r9654"
   width="100%"
   height="100%"
   sodipodi:docname="flagga-upp-sextondel.svg">
  <metadata
     id="metadata42">
    <rdf:RDF>
      <cc:Work
         rdf:about="">
        <dc:format>image/svg+xml</dc:format>
        <dc:type
           rdf:resource="http://purl.org/dc/dcmitype/StillImage" />
        <dc:title></dc:title>
      </cc:Work>
    </rdf:RDF>
  </metadata>
  <defs
     id="defs40" />
  <sodipodi:namedview
     pagecolor="#ffffff"
     bordercolor="#666666"
     borderopacity="1"
     objecttolerance="10"
     gridtolerance="10"
     guidetolerance="10"
     inkscape:pageopacity="0"
     inkscape:pageshadow="2"
     inkscape:window-width="1680"
     inkscape:window-height="1024"
     id="namedview38"
     showgrid="false"
     inkscape:zoom="0.64"
     inkscape:cx="761.74"
     inkscape:cy="27390.999"
     inkscape:window-x="1676"
     inkscape:window-y="-4"
     inkscape:window-maximized="1"
     inkscape:current-layer="svg2" />
  <g
     visibility="visible"
     id="Default"
     transform="translate(-158,0)"
     style="visibility:visible">
    <desc
       id="desc5">Master slide</desc>
    <g
       style="fill:none;stroke:none"
       id="g7">
      <rect
         x="0"
         y="0"
         width="19687"
         height="27844"
         id="rect9" />
    </g>
  </g>
  <g
     style="fill-rule:evenodd"
     id="g3389"
     transform="matrix(0.03305148,0,0,0.03305148,6.50337,15.922)">
    <g
       id="Default-9"
       visibility="visible"
       style="visibility:visible">
      <desc
         id="desc3294">Master slide</desc>
      <g
         id="g3296"
         style="fill:none;stroke:none">
        <rect
           id="rect3298"
           height="29700"
           width="21000"
           y="0"
           x="0" />
      </g>
    </g>
    <g
       id="page1-4"
       visibility="visible"
       style="visibility:visible">
      <desc
         id="desc3301">Slide</desc>
      <g
         id="g3303">
        <desc
           id="desc3305">Group</desc>
        <g
           id="g3307">
          <desc
             id="desc3309">Group</desc>
          <g
             id="g3311">
            <desc
               id="desc3313">Group</desc>
            <g
               id="g3315">
              <desc
                 id="desc3317">Drawing</desc>
              <g
                 id="g3319">
                <g
                   id="g3321"
                   style="fill:none;stroke:none">
                  <rect
                     id="rect3323"
                     height="29701"
                     width="21000"
                     y="0"
                     x="0" />
                </g>
                <g
                   id="g3325" />
              </g>
            </g>
          </g>
        </g>
        <g
           id="g3327">
          <desc
             id="desc3329">Group</desc>
          <g
             id="g3331">
            <desc
               id="desc3333">Group</desc>
            <g
               id="g3335">
              <desc
                 id="desc3337">Group</desc>
              <g
                 id="g3339">
                <desc
                   id="desc3341">Group</desc>
                <g
                   id="g3343">
                  <desc
                     id="desc3345">Drawing</desc>
                  <g
                     id="g3347">
                    <g
                       id="g3349"
                       style="fill:none;stroke:none">
                      <rect
                         id="rect3351"
                         height="10448"
                         width="21553"
                         y="15"
                         x="-217" />
                    </g>
                    <g
                       id="g3353" />
                  </g>
                </g>
              </g>
              <g
                 id="g3355">
                <desc
                   id="desc3357">Group</desc>
                <g
                   id="g3359">
                  <desc
                     id="desc3361">Group</desc>
                  <g
                     id="g3363">
                    <desc
                       id="desc3365">Group</desc>
                    <g
                       id="g3367">
                      <desc
                         id="desc3369">Drawing</desc>
                      <g
                         id="g3371">
                        <g
                           id="g3373"
                           style="fill:#000000;stroke:none">
                          <path
                             id="path3375"
                             d="m 110,6491 c 55,0 99,-2 133,-5 34,-3 69,-14 105,-31 36,-17 78,-42 125,-77 48,-34 111,-83 190,-148 249,-198 397,-321 445,-368 225,-253 338,-534 338,-845 0,-225 -89,-503 -266,-834 -21,-34 -31,-66 -31,-97 0,-31 7,-46 20,-46 31,0 66,27 105,82 39,54 78,122 115,202 38,80 72,164 103,251 31,87 55,163 72,227 34,133 52,270 52,410 0,129 -24,261 -72,394 -49,133 -122,259 -221,379 -96,112 -194,221 -294,327 -101,106 -197,215 -289,328 -113,139 -215,296 -308,470 -92,174 -177,362 -255,563 -4,10 -5,26 -5,46 0,21 1,34 5,41 3,4 -19,5 -67,5 l 0,-1274 z"
                             inkscape:connector-curvature="0" />
                        </g>
                        <g
                           id="g3377"
                           style="fill:none;stroke:none">
                          <rect
                             id="rect3379"
                             height="3728"
                             width="1507"
                             y="4039"
                             x="110" />
                        </g>
                        <g
                           id="g3381" />
                      </g>
                    </g>
                  </g>
                </g>
              </g>
            </g>
          </g>
        </g>
      </g>
    </g>
  </g>
</svg>
