<?xml version="1.0" encoding="UTF-8"?>
<!DOCTYPE svg PUBLIC "-//W3C//DTD SVG 1.1//EN" "http://www.w3.org/Graphics/SVG/1.1/DTD/svg11.dtd"><svg version="1.1" viewBox="0 0 21000 29700" preserveAspectRatio="xMidYMid" fill-rule="evenodd" xmlns="http://www.w3.org/2000/svg" xmlns:xlink="http://www.w3.org/1999/xlink"><g visibility="visible" id="Default"><desc>Master slide</desc><g style="stroke:none;fill:none"><rect x="0" y="0" width="21000" height="29700"/></g></g><g visibility="visible" id="page1"><desc>Slide</desc><g><desc>Drawing</desc><g><g style="stroke:none;fill:rgb(0,0,0)"><path d="M 10,227 C 12,227 14,227 15,227 16,227 17,226 19,226 20,225 22,224 23,223 25,222 27,220 30,218 39,211 44,206 46,205 54,195 58,185 58,174 58,166 55,156 48,144 48,143 47,142 47,141 47,140 48,139 48,139 49,139 50,140 52,142 53,144 55,146 56,149 57,152 59,155 60,158 61,161 62,164 62,166 63,171 64,176 64,181 64,186 63,190 61,195 60,200 57,204 54,209 50,213 47,216 43,220 39,224 36,228 33,232 29,237 25,243 22,249 18,255 15,262 13,269 12,269 12,270 12,271 12,271 12,272 13,272 13,273 12,273 10,273 L 10,227 Z"/></g><g style="stroke:none;fill:none"><rect x="10" y="139" width="55" height="135"/></g><g/></g></g></g></svg>