<?xml version="1.0" encoding="UTF-8" standalone="no"?>
<svg
   xmlns:dc="http://purl.org/dc/elements/1.1/"
   xmlns:cc="http://creativecommons.org/ns#"
   xmlns:rdf="http://www.w3.org/1999/02/22-rdf-syntax-ns#"
   xmlns:svg="http://www.w3.org/2000/svg"
   xmlns="http://www.w3.org/2000/svg"
   xmlns:sodipodi="http://sodipodi.sourceforge.net/DTD/sodipodi-0.dtd"
   xmlns:inkscape="http://www.inkscape.org/namespaces/inkscape"
   version="1.1"
   viewBox="0 0 19687 27844"
   preserveAspectRatio="xMidYMid"
   fill-rule="evenodd"
   id="svg2"
   inkscape:version="0.48.0 r9654"
   width="100%"
   height="100%"
   sodipodi:docname="flagga-ned-attondel.svg">
  <metadata
     id="metadata42">
    <rdf:RDF>
      <cc:Work
         rdf:about="">
        <dc:format>image/svg+xml</dc:format>
        <dc:type
           rdf:resource="http://purl.org/dc/dcmitype/StillImage" />
        <dc:title></dc:title>
      </cc:Work>
    </rdf:RDF>
  </metadata>
  <defs
     id="defs40" />
  <sodipodi:namedview
     pagecolor="#ffffff"
     bordercolor="#666666"
     borderopacity="1"
     objecttolerance="10"
     gridtolerance="10"
     guidetolerance="10"
     inkscape:pageopacity="0"
     inkscape:pageshadow="2"
     inkscape:window-width="1680"
     inkscape:window-height="1024"
     id="namedview38"
     showgrid="false"
     inkscape:zoom="0.64"
     inkscape:cx="761.74"
     inkscape:cy="27390.999"
     inkscape:window-x="1676"
     inkscape:window-y="-4"
     inkscape:window-maximized="1"
     inkscape:current-layer="svg2" />
  <g
     visibility="visible"
     id="Default"
     transform="translate(-158,0)"
     style="visibility:visible">
    <desc
       id="desc5">Master slide</desc>
    <g
       style="fill:none;stroke:none"
       id="g7">
      <rect
         x="0"
         y="0"
         width="19687"
         height="27844"
         id="rect9" />
    </g>
  </g>
  <g
     style="fill-rule:evenodd"
     id="g3535"
     transform="matrix(0.03305148,0,0,0.03305148,7.40476,15.922)">
    <g
       id="Default-8"
       visibility="visible"
       style="visibility:visible">
      <desc
         id="desc3440">Master slide</desc>
      <g
         id="g3442"
         style="fill:none;stroke:none">
        <rect
           id="rect3444"
           height="29700"
           width="21000"
           y="0"
           x="0" />
      </g>
    </g>
    <g
       id="page1-8"
       visibility="visible"
       style="visibility:visible">
      <desc
         id="desc3447">Slide</desc>
      <g
         id="g3449">
        <desc
           id="desc3451">Group</desc>
        <g
           id="g3453">
          <desc
             id="desc3455">Group</desc>
          <g
             id="g3457">
            <desc
               id="desc3459">Group</desc>
            <g
               id="g3461">
              <desc
                 id="desc3463">Drawing</desc>
              <g
                 id="g3465">
                <g
                   id="g3467"
                   style="fill:none;stroke:none">
                  <rect
                     id="rect3469"
                     height="29701"
                     width="21000"
                     y="0"
                     x="0" />
                </g>
                <g
                   id="g3471" />
              </g>
            </g>
          </g>
        </g>
        <g
           id="g3473">
          <desc
             id="desc3475">Group</desc>
          <g
             id="g3477">
            <desc
               id="desc3479">Group</desc>
            <g
               id="g3481">
              <desc
                 id="desc3483">Group</desc>
              <g
                 id="g3485">
                <desc
                   id="desc3487">Group</desc>
                <g
                   id="g3489">
                  <desc
                     id="desc3491">Drawing</desc>
                  <g
                     id="g3493">
                    <g
                       id="g3495"
                       style="fill:none;stroke:none">
                      <rect
                         id="rect3497"
                         height="10448"
                         width="21553"
                         y="15"
                         x="-217" />
                    </g>
                    <g
                       id="g3499" />
                  </g>
                </g>
              </g>
              <g
                 id="g3501">
                <desc
                   id="desc3503">Group</desc>
                <g
                   id="g3505">
                  <desc
                     id="desc3507">Group</desc>
                  <g
                     id="g3509">
                    <desc
                       id="desc3511">Group</desc>
                    <g
                       id="g3513">
                      <desc
                         id="desc3515">Drawing</desc>
                      <g
                         id="g3517">
                        <g
                           id="g3519"
                           style="fill:#000000;stroke:none">
                          <path
                             id="path3521"
                             d="m 1581,4398 c 0,136 -16,257 -46,363 54,109 81,259 81,450 0,133 -24,267 -72,402 -47,135 -122,262 -224,381 -96,110 -194,216 -295,320 -100,104 -195,213 -284,325 -122,154 -230,317 -322,489 -92,172 -172,354 -240,545 -4,10 -6,26 -6,46 0,21 2,34 6,41 0,4 -23,5 -67,5 l 0,-2252 c 102,0 211,-26 325,-79 114,-53 221,-113 320,-179 99,-67 185,-132 258,-197 74,-65 120,-111 141,-138 157,-178 235,-378 235,-599 0,-191 -53,-405 -158,-640 -21,-44 -31,-77 -31,-97 0,-28 14,-41 41,-41 44,0 87,39 128,117 41,79 77,169 107,269 31,101 56,197 74,289 19,92 29,152 29,180 z m -140,731 c 0,-17 0,-36 0,-58 0,-23 -2,-51 -5,-85 -21,44 -66,101 -136,169 -70,68 -143,138 -220,210 -77,71 -148,136 -215,194 -66,58 -108,99 -125,123 -184,242 -336,498 -456,768 41,-14 88,-36 141,-67 53,-30 112,-73 177,-128 167,-143 297,-254 391,-332 94,-79 151,-130 172,-154 184,-198 276,-411 276,-640 z"
                             inkscape:connector-curvature="0" />
                        </g>
                        <g
                           id="g3523"
                           style="fill:none;stroke:none">
                          <rect
                             id="rect3525"
                             height="4225"
                             width="1505"
                             y="3542"
                             x="112" />
                        </g>
                        <g
                           id="g3527" />
                      </g>
                    </g>
                  </g>
                </g>
              </g>
            </g>
          </g>
        </g>
      </g>
    </g>
  </g>
</svg>
