<?xml version="1.0" encoding="UTF-8"?>
<!DOCTYPE svg PUBLIC "-//W3C//DTD SVG 1.1//EN" "http://www.w3.org/Graphics/SVG/1.1/DTD/svg11.dtd"><svg version="1.1" viewBox="0 0 21000 29700" preserveAspectRatio="xMidYMid" fill-rule="evenodd" xmlns="http://www.w3.org/2000/svg" xmlns:xlink="http://www.w3.org/1999/xlink"><g visibility="visible" id="Default"><desc>Master slide</desc><g style="stroke:none;fill:none"><rect x="0" y="0" width="21000" height="29700"/></g></g><g visibility="visible" id="page1"><desc>Slide</desc><g><desc>Drawing</desc><g><g style="stroke:none;fill:rgb(0,0,0)"><path d="M 65,152 C 65,157 64,162 63,165 65,169 66,175 66,181 66,186 65,191 64,196 62,200 59,205 56,209 52,213 49,217 45,221 42,224 38,228 35,232 31,238 27,243 23,250 20,256 17,262 15,269 15,269 15,270 15,271 15,271 15,272 15,272 15,273 14,273 12,273 L 12,192 C 16,192 20,192 24,190 28,188 32,186 36,183 39,181 42,178 45,176 47,174 49,172 50,171 55,165 58,158 58,150 58,143 56,135 53,127 52,125 51,124 51,123 51,122 52,122 53,122 55,122 56,123 58,126 59,129 60,132 61,136 62,139 63,143 64,146 65,149 65,151 65,152 Z M 60,179 C 60,178 60,177 60,177 60,176 60,175 60,174 59,175 58,177 55,180 53,182 50,185 47,187 45,190 42,192 40,194 37,196 36,198 35,199 29,207 23,216 19,226 20,225 22,225 24,224 26,222 28,221 30,219 36,214 41,210 44,207 48,204 50,202 50,202 57,195 60,187 60,179 Z"/></g><g style="stroke:none;fill:none"><rect x="12" y="122" width="56" height="152"/></g><g/></g></g></g></svg>