<?xml version="1.0" encoding="UTF-8"?>
<!DOCTYPE svg PUBLIC "-//W3C//DTD SVG 1.1//EN" "http://www.w3.org/Graphics/SVG/1.1/DTD/svg11.dtd"><svg version="1.1" viewBox="0 0 21000 29700" preserveAspectRatio="xMidYMid" fill-rule="evenodd" xmlns="http://www.w3.org/2000/svg" xmlns:xlink="http://www.w3.org/1999/xlink"><g visibility="visible" id="Default"><desc>Master slide</desc><g style="stroke:none;fill:none"><rect x="0" y="0" width="21000" height="29700"/></g></g><g visibility="visible" id="page1"><desc>Slide</desc><g><desc>Drawing</desc><g><g style="stroke:none;fill:rgb(0,0,0)"><path d="M 12,181 C 14,181 15,181 14,181 14,181 14,182 14,182 14,183 14,184 14,184 20,199 27,211 35,221 45,234 50,241 52,243 56,250 58,258 58,266 L 58,267 C 58,273 58,278 57,282 56,287 55,291 53,294 52,297 51,299 50,301 48,302 48,303 47,303 46,303 46,303 46,302 46,301 46,300 47,298 48,295 49,293 50,291 50,290 51,288 51,286 51,284 52,282 52,280 52,277 52,274 52,270 L 52,269 C 52,256 45,245 30,234 28,233 27,232 26,231 25,230 24,230 22,229 21,228 20,228 18,227 16,227 14,227 12,227 L 12,181 Z"/></g><g style="stroke:none;fill:none"><rect x="12" y="181" width="47" height="123"/></g><g/></g></g></g></svg>