<?xml version="1.0" encoding="UTF-8" standalone="no"?>
<svg
   xmlns:dc="http://purl.org/dc/elements/1.1/"
   xmlns:cc="http://creativecommons.org/ns#"
   xmlns:rdf="http://www.w3.org/1999/02/22-rdf-syntax-ns#"
   xmlns:svg="http://www.w3.org/2000/svg"
   xmlns="http://www.w3.org/2000/svg"
   xmlns:sodipodi="http://sodipodi.sourceforge.net/DTD/sodipodi-0.dtd"
   xmlns:inkscape="http://www.inkscape.org/namespaces/inkscape"
   version="1.1"
   viewBox="0 0 19687 27844"
   preserveAspectRatio="xMidYMid"
   fill-rule="evenodd"
   id="svg2"
   inkscape:version="0.48.0 r9654"
   width="100%"
   height="100%"
   sodipodi:docname="flaggor.svg">
  <metadata
     id="metadata42">
    <rdf:RDF>
      <cc:Work
         rdf:about="">
        <dc:format>image/svg+xml</dc:format>
        <dc:type
           rdf:resource="http://purl.org/dc/dcmitype/StillImage" />
        <dc:title></dc:title>
      </cc:Work>
    </rdf:RDF>
  </metadata>
  <defs
     id="defs40" />
  <sodipodi:namedview
     pagecolor="#ffffff"
     bordercolor="#666666"
     borderopacity="1"
     objecttolerance="10"
     gridtolerance="10"
     guidetolerance="10"
     inkscape:pageopacity="0"
     inkscape:pageshadow="2"
     inkscape:window-width="1680"
     inkscape:window-height="1024"
     id="namedview38"
     showgrid="false"
     inkscape:zoom="0.64"
     inkscape:cx="761.74"
     inkscape:cy="27390.999"
     inkscape:window-x="1676"
     inkscape:window-y="-4"
     inkscape:window-maximized="1"
     inkscape:current-layer="svg2" />
  <g
     visibility="visible"
     id="Default">
    <desc
       id="desc5">Master slide</desc>
    <g
       style="stroke:none;fill:none"
       id="g7">
      <rect
         x="0"
         y="0"
         width="19687"
         height="27844"
         id="rect9" />
    </g>
  </g>
  <g
     style="fill-rule:evenodd"
     id="g3097"
     transform="matrix(0.03305148,0,0,0.03305148,102.70057,15.922)">
    <g
       id="Default-1"
       visibility="visible"
       style="visibility:visible">
      <desc
         id="desc3002">Master slide</desc>
      <g
         id="g3004"
         style="fill:none;stroke:none">
        <rect
           id="rect3006"
           height="29700"
           width="21000"
           y="0"
           x="0" />
      </g>
    </g>
    <g
       id="page1-7"
       visibility="visible"
       style="visibility:visible">
      <desc
         id="desc3009">Slide</desc>
      <g
         id="g3011">
        <desc
           id="desc3013">Group</desc>
        <g
           id="g3015">
          <desc
             id="desc3017">Group</desc>
          <g
             id="g3019">
            <desc
               id="desc3021">Group</desc>
            <g
               id="g3023">
              <desc
                 id="desc3025">Drawing</desc>
              <g
                 id="g3027">
                <g
                   id="g3029"
                   style="fill:none;stroke:none">
                  <rect
                     id="rect3031"
                     height="29701"
                     width="21000"
                     y="0"
                     x="0" />
                </g>
                <g
                   id="g3033" />
              </g>
            </g>
          </g>
        </g>
        <g
           id="g3035">
          <desc
             id="desc3037">Group</desc>
          <g
             id="g3039">
            <desc
               id="desc3041">Group</desc>
            <g
               id="g3043">
              <desc
                 id="desc3045">Group</desc>
              <g
                 id="g3047">
                <desc
                   id="desc3049">Group</desc>
                <g
                   id="g3051">
                  <desc
                     id="desc3053">Drawing</desc>
                  <g
                     id="g3055">
                    <g
                       id="g3057"
                       style="fill:none;stroke:none">
                      <rect
                         id="rect3059"
                         height="10448"
                         width="21553"
                         y="15"
                         x="-217" />
                    </g>
                    <g
                       id="g3061" />
                  </g>
                </g>
              </g>
              <g
                 id="g3063">
                <desc
                   id="desc3065">Group</desc>
                <g
                   id="g3067">
                  <desc
                     id="desc3069">Group</desc>
                  <g
                     id="g3071">
                    <desc
                       id="desc3073">Group</desc>
                    <g
                       id="g3075">
                      <desc
                         id="desc3077">Drawing</desc>
                      <g
                         id="g3079">
                        <g
                           id="g3081"
                           style="fill:#000000;stroke:none">
                          <path
                             id="path3083"
                             d="m 110,5212 c 48,0 70,1 67,5 -4,7 -5,20 -5,41 0,20 1,35 5,46 153,406 341,750 563,1033 276,348 435,556 476,625 123,194 185,402 185,624 l 0,26 c 0,163 -14,308 -41,435 -28,126 -60,231 -96,317 -36,85 -71,150 -105,194 -34,45 -58,67 -71,67 -28,0 -41,-14 -41,-41 0,-17 10,-50 30,-97 35,-75 61,-137 80,-185 19,-47 32,-98 41,-151 8,-52 14,-113 18,-181 3,-68 6,-161 10,-277 l 0,-25 c 0,-355 -208,-679 -624,-972 -38,-28 -73,-53 -105,-77 -33,-24 -67,-45 -103,-64 -35,-19 -76,-34 -120,-46 -44,-12 -99,-18 -164,-18 l 0,-1279 z"
                             inkscape:connector-curvature="0" />
                        </g>
                        <g
                           id="g3085"
                           style="fill:none;stroke:none">
                          <rect
                             id="rect3087"
                             height="3415"
                             width="1292"
                             y="5211"
                             x="110" />
                        </g>
                        <g
                           id="g3089" />
                      </g>
                    </g>
                  </g>
                </g>
              </g>
            </g>
          </g>
        </g>
      </g>
    </g>
  </g>
  <g
     style="fill-rule:evenodd"
     id="g3243"
     transform="matrix(0.03305148,0,0,0.03305148,165.60197,15.922)">
    <g
       id="Default-4"
       visibility="visible"
       style="visibility:visible">
      <desc
         id="desc3148">Master slide</desc>
      <g
         id="g3150"
         style="fill:none;stroke:none">
        <rect
           id="rect3152"
           height="29700"
           width="21000"
           y="0"
           x="0" />
      </g>
    </g>
    <g
       id="page1-0"
       visibility="visible"
       style="visibility:visible">
      <desc
         id="desc3155">Slide</desc>
      <g
         id="g3157">
        <desc
           id="desc3159">Group</desc>
        <g
           id="g3161">
          <desc
             id="desc3163">Group</desc>
          <g
             id="g3165">
            <desc
               id="desc3167">Group</desc>
            <g
               id="g3169">
              <desc
                 id="desc3171">Drawing</desc>
              <g
                 id="g3173">
                <g
                   id="g3175"
                   style="fill:none;stroke:none">
                  <rect
                     id="rect3177"
                     height="29701"
                     width="21000"
                     y="0"
                     x="0" />
                </g>
                <g
                   id="g3179" />
              </g>
            </g>
          </g>
        </g>
        <g
           id="g3181">
          <desc
             id="desc3183">Group</desc>
          <g
             id="g3185">
            <desc
               id="desc3187">Group</desc>
            <g
               id="g3189">
              <desc
                 id="desc3191">Group</desc>
              <g
                 id="g3193">
                <desc
                   id="desc3195">Group</desc>
                <g
                   id="g3197">
                  <desc
                     id="desc3199">Drawing</desc>
                  <g
                     id="g3201">
                    <g
                       id="g3203"
                       style="fill:none;stroke:none">
                      <rect
                         id="rect3205"
                         height="10448"
                         width="21553"
                         y="15"
                         x="-217" />
                    </g>
                    <g
                       id="g3207" />
                  </g>
                </g>
              </g>
              <g
                 id="g3209">
                <desc
                   id="desc3211">Group</desc>
                <g
                   id="g3213">
                  <desc
                     id="desc3215">Group</desc>
                  <g
                     id="g3217">
                    <desc
                       id="desc3219">Group</desc>
                    <g
                       id="g3221">
                      <desc
                         id="desc3223">Drawing</desc>
                      <g
                         id="g3225">
                        <g
                           id="g3227"
                           style="fill:#000000;stroke:none">
                          <path
                             id="path3229"
                             d="m 1189,9127 c -27,0 -41,-14 -41,-41 0,-20 6,-55 16,-105 10,-49 22,-105 36,-166 13,-62 25,-123 35,-185 11,-61 16,-115 16,-163 -4,-62 -14,-117 -31,-167 -17,-49 -49,-102 -95,-158 -46,-57 -110,-121 -194,-192 -84,-72 -194,-161 -330,-266 -65,-51 -119,-92 -161,-121 -43,-29 -80,-51 -113,-66 -32,-15 -65,-25 -100,-28 -34,-4 -73,-5 -117,-5 l 0,-2252 15,0 c 21,0 32,7 36,23 3,15 8,38 15,69 89,331 278,674 568,1029 75,102 156,200 243,294 87,94 170,193 248,299 79,103 136,219 172,348 36,130 54,260 54,389 0,191 -27,341 -82,451 17,44 30,95 39,153 8,58 14,126 18,205 l 0,25 c 0,48 -8,108 -23,180 -16,71 -36,140 -62,207 -26,66 -53,124 -82,171 -29,48 -56,72 -80,72 z m 97,-1382 c 0,-232 -68,-431 -205,-599 -7,-7 -39,-39 -97,-97 -58,-58 -128,-122 -210,-192 -82,-70 -168,-137 -258,-202 -91,-65 -168,-107 -233,-128 65,147 135,284 210,412 75,128 157,247 245,356 11,13 40,43 90,89 49,46 104,100 164,162 59,61 117,122 174,184 56,61 94,114 115,158 3,-27 5,-52 5,-74 0,-22 0,-45 0,-69 z"
                             inkscape:connector-curvature="0" />
                        </g>
                        <g
                           id="g3231"
                           style="fill:none;stroke:none">
                          <rect
                             id="rect3233"
                             height="3917"
                             width="1353"
                             y="5211"
                             x="109" />
                        </g>
                        <g
                           id="g3235" />
                      </g>
                    </g>
                  </g>
                </g>
              </g>
            </g>
          </g>
        </g>
      </g>
    </g>
  </g>
  <g
     style="fill-rule:evenodd"
     id="g3389"
     transform="matrix(0.03305148,0,0,0.03305148,228.50337,15.922)">
    <g
       id="Default-9"
       visibility="visible"
       style="visibility:visible">
      <desc
         id="desc3294">Master slide</desc>
      <g
         id="g3296"
         style="fill:none;stroke:none">
        <rect
           id="rect3298"
           height="29700"
           width="21000"
           y="0"
           x="0" />
      </g>
    </g>
    <g
       id="page1-4"
       visibility="visible"
       style="visibility:visible">
      <desc
         id="desc3301">Slide</desc>
      <g
         id="g3303">
        <desc
           id="desc3305">Group</desc>
        <g
           id="g3307">
          <desc
             id="desc3309">Group</desc>
          <g
             id="g3311">
            <desc
               id="desc3313">Group</desc>
            <g
               id="g3315">
              <desc
                 id="desc3317">Drawing</desc>
              <g
                 id="g3319">
                <g
                   id="g3321"
                   style="fill:none;stroke:none">
                  <rect
                     id="rect3323"
                     height="29701"
                     width="21000"
                     y="0"
                     x="0" />
                </g>
                <g
                   id="g3325" />
              </g>
            </g>
          </g>
        </g>
        <g
           id="g3327">
          <desc
             id="desc3329">Group</desc>
          <g
             id="g3331">
            <desc
               id="desc3333">Group</desc>
            <g
               id="g3335">
              <desc
                 id="desc3337">Group</desc>
              <g
                 id="g3339">
                <desc
                   id="desc3341">Group</desc>
                <g
                   id="g3343">
                  <desc
                     id="desc3345">Drawing</desc>
                  <g
                     id="g3347">
                    <g
                       id="g3349"
                       style="fill:none;stroke:none">
                      <rect
                         id="rect3351"
                         height="10448"
                         width="21553"
                         y="15"
                         x="-217" />
                    </g>
                    <g
                       id="g3353" />
                  </g>
                </g>
              </g>
              <g
                 id="g3355">
                <desc
                   id="desc3357">Group</desc>
                <g
                   id="g3359">
                  <desc
                     id="desc3361">Group</desc>
                  <g
                     id="g3363">
                    <desc
                       id="desc3365">Group</desc>
                    <g
                       id="g3367">
                      <desc
                         id="desc3369">Drawing</desc>
                      <g
                         id="g3371">
                        <g
                           id="g3373"
                           style="fill:#000000;stroke:none">
                          <path
                             id="path3375"
                             d="m 110,6491 c 55,0 99,-2 133,-5 34,-3 69,-14 105,-31 36,-17 78,-42 125,-77 48,-34 111,-83 190,-148 249,-198 397,-321 445,-368 225,-253 338,-534 338,-845 0,-225 -89,-503 -266,-834 -21,-34 -31,-66 -31,-97 0,-31 7,-46 20,-46 31,0 66,27 105,82 39,54 78,122 115,202 38,80 72,164 103,251 31,87 55,163 72,227 34,133 52,270 52,410 0,129 -24,261 -72,394 -49,133 -122,259 -221,379 -96,112 -194,221 -294,327 -101,106 -197,215 -289,328 -113,139 -215,296 -308,470 -92,174 -177,362 -255,563 -4,10 -5,26 -5,46 0,21 1,34 5,41 3,4 -19,5 -67,5 l 0,-1274 z"
                             inkscape:connector-curvature="0" />
                        </g>
                        <g
                           id="g3377"
                           style="fill:none;stroke:none">
                          <rect
                             id="rect3379"
                             height="3728"
                             width="1507"
                             y="4039"
                             x="110" />
                        </g>
                        <g
                           id="g3381" />
                      </g>
                    </g>
                  </g>
                </g>
              </g>
            </g>
          </g>
        </g>
      </g>
    </g>
  </g>
  <g
     style="fill-rule:evenodd"
     id="g3535"
     transform="matrix(0.03305148,0,0,0.03305148,291.40476,15.922)">
    <g
       id="Default-8"
       visibility="visible"
       style="visibility:visible">
      <desc
         id="desc3440">Master slide</desc>
      <g
         id="g3442"
         style="fill:none;stroke:none">
        <rect
           id="rect3444"
           height="29700"
           width="21000"
           y="0"
           x="0" />
      </g>
    </g>
    <g
       id="page1-8"
       visibility="visible"
       style="visibility:visible">
      <desc
         id="desc3447">Slide</desc>
      <g
         id="g3449">
        <desc
           id="desc3451">Group</desc>
        <g
           id="g3453">
          <desc
             id="desc3455">Group</desc>
          <g
             id="g3457">
            <desc
               id="desc3459">Group</desc>
            <g
               id="g3461">
              <desc
                 id="desc3463">Drawing</desc>
              <g
                 id="g3465">
                <g
                   id="g3467"
                   style="fill:none;stroke:none">
                  <rect
                     id="rect3469"
                     height="29701"
                     width="21000"
                     y="0"
                     x="0" />
                </g>
                <g
                   id="g3471" />
              </g>
            </g>
          </g>
        </g>
        <g
           id="g3473">
          <desc
             id="desc3475">Group</desc>
          <g
             id="g3477">
            <desc
               id="desc3479">Group</desc>
            <g
               id="g3481">
              <desc
                 id="desc3483">Group</desc>
              <g
                 id="g3485">
                <desc
                   id="desc3487">Group</desc>
                <g
                   id="g3489">
                  <desc
                     id="desc3491">Drawing</desc>
                  <g
                     id="g3493">
                    <g
                       id="g3495"
                       style="fill:none;stroke:none">
                      <rect
                         id="rect3497"
                         height="10448"
                         width="21553"
                         y="15"
                         x="-217" />
                    </g>
                    <g
                       id="g3499" />
                  </g>
                </g>
              </g>
              <g
                 id="g3501">
                <desc
                   id="desc3503">Group</desc>
                <g
                   id="g3505">
                  <desc
                     id="desc3507">Group</desc>
                  <g
                     id="g3509">
                    <desc
                       id="desc3511">Group</desc>
                    <g
                       id="g3513">
                      <desc
                         id="desc3515">Drawing</desc>
                      <g
                         id="g3517">
                        <g
                           id="g3519"
                           style="fill:#000000;stroke:none">
                          <path
                             id="path3521"
                             d="m 1581,4398 c 0,136 -16,257 -46,363 54,109 81,259 81,450 0,133 -24,267 -72,402 -47,135 -122,262 -224,381 -96,110 -194,216 -295,320 -100,104 -195,213 -284,325 -122,154 -230,317 -322,489 -92,172 -172,354 -240,545 -4,10 -6,26 -6,46 0,21 2,34 6,41 0,4 -23,5 -67,5 l 0,-2252 c 102,0 211,-26 325,-79 114,-53 221,-113 320,-179 99,-67 185,-132 258,-197 74,-65 120,-111 141,-138 157,-178 235,-378 235,-599 0,-191 -53,-405 -158,-640 -21,-44 -31,-77 -31,-97 0,-28 14,-41 41,-41 44,0 87,39 128,117 41,79 77,169 107,269 31,101 56,197 74,289 19,92 29,152 29,180 z m -140,731 c 0,-17 0,-36 0,-58 0,-23 -2,-51 -5,-85 -21,44 -66,101 -136,169 -70,68 -143,138 -220,210 -77,71 -148,136 -215,194 -66,58 -108,99 -125,123 -184,242 -336,498 -456,768 41,-14 88,-36 141,-67 53,-30 112,-73 177,-128 167,-143 297,-254 391,-332 94,-79 151,-130 172,-154 184,-198 276,-411 276,-640 z"
                             inkscape:connector-curvature="0" />
                        </g>
                        <g
                           id="g3523"
                           style="fill:none;stroke:none">
                          <rect
                             id="rect3525"
                             height="4225"
                             width="1505"
                             y="3542"
                             x="112" />
                        </g>
                        <g
                           id="g3527" />
                      </g>
                    </g>
                  </g>
                </g>
              </g>
            </g>
          </g>
        </g>
      </g>
    </g>
  </g>
</svg>
