<?xml version="1.0" encoding="UTF-8"?>
<!DOCTYPE svg PUBLIC "-//W3C//DTD SVG 1.1//EN" "http://www.w3.org/Graphics/SVG/1.1/DTD/svg11.dtd"><svg version="1.1" viewBox="0 0 21000 29700" preserveAspectRatio="xMidYMid" fill-rule="evenodd" xmlns="http://www.w3.org/2000/svg" xmlns:xlink="http://www.w3.org/1999/xlink"><g visibility="visible" id="Default"><desc>Master slide</desc><g style="stroke:none;fill:none"><rect x="0" y="0" width="21000" height="29700"/></g></g><g visibility="visible" id="page1"><desc>Slide</desc><g><desc>Drawing</desc><g><g style="stroke:none;fill:rgb(0,0,0)"><path d="M 8,181 C 10,181 11,181 10,181 10,181 10,182 10,182 10,183 10,184 10,184 16,199 23,211 31,221 41,234 46,241 48,243 52,250 54,258 54,266 L 54,267 C 54,273 54,278 53,282 52,287 51,291 49,294 48,297 47,299 46,301 44,302 44,303 43,303 42,303 42,303 42,302 42,301 42,300 43,298 44,295 45,293 46,291 46,290 47,288 47,286 47,284 48,282 48,280 48,277 48,274 48,270 L 48,269 C 48,256 41,245 26,234 24,233 23,232 22,231 21,230 20,230 18,229 17,228 16,228 14,227 12,227 10,227 8,227 L 8,181 Z"/></g><g style="stroke:none;fill:none"><rect x="8" y="181" width="47" height="123"/></g><g/></g></g></g></svg>