<?xml version="1.0" encoding="UTF-8" standalone="no"?>
<svg
   xmlns:dc="http://purl.org/dc/elements/1.1/"
   xmlns:cc="http://creativecommons.org/ns#"
   xmlns:rdf="http://www.w3.org/1999/02/22-rdf-syntax-ns#"
   xmlns:svg="http://www.w3.org/2000/svg"
   xmlns="http://www.w3.org/2000/svg"
   xmlns:sodipodi="http://sodipodi.sourceforge.net/DTD/sodipodi-0.dtd"
   xmlns:inkscape="http://www.inkscape.org/namespaces/inkscape"
   version="1.1"
   viewBox="0 0 19687 27844"
   preserveAspectRatio="xMidYMid"
   fill-rule="evenodd"
   id="svg2"
   inkscape:version="0.48.0 r9654"
   width="100%"
   height="100%"
   sodipodi:docname="flagga-upp-attondel.svg">
  <metadata
     id="metadata42">
    <rdf:RDF>
      <cc:Work
         rdf:about="">
        <dc:format>image/svg+xml</dc:format>
        <dc:type
           rdf:resource="http://purl.org/dc/dcmitype/StillImage" />
        <dc:title></dc:title>
      </cc:Work>
    </rdf:RDF>
  </metadata>
  <defs
     id="defs40" />
  <sodipodi:namedview
     pagecolor="#ffffff"
     bordercolor="#666666"
     borderopacity="1"
     objecttolerance="10"
     gridtolerance="10"
     guidetolerance="10"
     inkscape:pageopacity="0"
     inkscape:pageshadow="2"
     inkscape:window-width="1680"
     inkscape:window-height="1024"
     id="namedview38"
     showgrid="false"
     inkscape:zoom="0.64"
     inkscape:cx="761.74"
     inkscape:cy="27390.999"
     inkscape:window-x="1676"
     inkscape:window-y="-4"
     inkscape:window-maximized="1"
     inkscape:current-layer="svg2" />
  <g
     visibility="visible"
     id="Default"
     transform="translate(-96,0)"
     style="visibility:visible">
    <desc
       id="desc5">Master slide</desc>
    <g
       style="fill:none;stroke:none"
       id="g7">
      <rect
         x="0"
         y="0"
         width="19687"
         height="27844"
         id="rect9" />
    </g>
  </g>
  <g
     style="fill-rule:evenodd"
     id="g3097"
     transform="matrix(0.03305148,0,0,0.03305148,6.70057,15.922)">
    <g
       id="Default-1"
       visibility="visible"
       style="visibility:visible">
      <desc
         id="desc3002">Master slide</desc>
      <g
         id="g3004"
         style="fill:none;stroke:none">
        <rect
           id="rect3006"
           height="29700"
           width="21000"
           y="0"
           x="0" />
      </g>
    </g>
    <g
       id="page1-7"
       visibility="visible"
       style="visibility:visible">
      <desc
         id="desc3009">Slide</desc>
      <g
         id="g3011">
        <desc
           id="desc3013">Group</desc>
        <g
           id="g3015">
          <desc
             id="desc3017">Group</desc>
          <g
             id="g3019">
            <desc
               id="desc3021">Group</desc>
            <g
               id="g3023">
              <desc
                 id="desc3025">Drawing</desc>
              <g
                 id="g3027">
                <g
                   id="g3029"
                   style="fill:none;stroke:none">
                  <rect
                     id="rect3031"
                     height="29701"
                     width="21000"
                     y="0"
                     x="0" />
                </g>
                <g
                   id="g3033" />
              </g>
            </g>
          </g>
        </g>
        <g
           id="g3035">
          <desc
             id="desc3037">Group</desc>
          <g
             id="g3039">
            <desc
               id="desc3041">Group</desc>
            <g
               id="g3043">
              <desc
                 id="desc3045">Group</desc>
              <g
                 id="g3047">
                <desc
                   id="desc3049">Group</desc>
                <g
                   id="g3051">
                  <desc
                     id="desc3053">Drawing</desc>
                  <g
                     id="g3055">
                    <g
                       id="g3057"
                       style="fill:none;stroke:none">
                      <rect
                         id="rect3059"
                         height="10448"
                         width="21553"
                         y="15"
                         x="-217" />
                    </g>
                    <g
                       id="g3061" />
                  </g>
                </g>
              </g>
              <g
                 id="g3063">
                <desc
                   id="desc3065">Group</desc>
                <g
                   id="g3067">
                  <desc
                     id="desc3069">Group</desc>
                  <g
                     id="g3071">
                    <desc
                       id="desc3073">Group</desc>
                    <g
                       id="g3075">
                      <desc
                         id="desc3077">Drawing</desc>
                      <g
                         id="g3079">
                        <g
                           id="g3081"
                           style="fill:#000000;stroke:none">
                          <path
                             id="path3083"
                             d="m 110,5212 c 48,0 70,1 67,5 -4,7 -5,20 -5,41 0,20 1,35 5,46 153,406 341,750 563,1033 276,348 435,556 476,625 123,194 185,402 185,624 l 0,26 c 0,163 -14,308 -41,435 -28,126 -60,231 -96,317 -36,85 -71,150 -105,194 -34,45 -58,67 -71,67 -28,0 -41,-14 -41,-41 0,-17 10,-50 30,-97 35,-75 61,-137 80,-185 19,-47 32,-98 41,-151 8,-52 14,-113 18,-181 3,-68 6,-161 10,-277 l 0,-25 c 0,-355 -208,-679 -624,-972 -38,-28 -73,-53 -105,-77 -33,-24 -67,-45 -103,-64 -35,-19 -76,-34 -120,-46 -44,-12 -99,-18 -164,-18 l 0,-1279 z"
                             inkscape:connector-curvature="0" />
                        </g>
                        <g
                           id="g3085"
                           style="fill:none;stroke:none">
                          <rect
                             id="rect3087"
                             height="3415"
                             width="1292"
                             y="5211"
                             x="110" />
                        </g>
                        <g
                           id="g3089" />
                      </g>
                    </g>
                  </g>
                </g>
              </g>
            </g>
          </g>
        </g>
      </g>
    </g>
  </g>
</svg>
