<?xml version="1.0" encoding="UTF-8" standalone="no"?>
<svg
   xmlns:dc="http://purl.org/dc/elements/1.1/"
   xmlns:cc="http://creativecommons.org/ns#"
   xmlns:rdf="http://www.w3.org/1999/02/22-rdf-syntax-ns#"
   xmlns:svg="http://www.w3.org/2000/svg"
   xmlns="http://www.w3.org/2000/svg"
   xmlns:sodipodi="http://sodipodi.sourceforge.net/DTD/sodipodi-0.dtd"
   xmlns:inkscape="http://www.inkscape.org/namespaces/inkscape"
   version="1.1"
   viewBox="0 0 19687 27844"
   preserveAspectRatio="xMidYMid"
   fill-rule="evenodd"
   id="svg2"
   inkscape:version="0.48.0 r9654"
   width="100%"
   height="100%"
   sodipodi:docname="flagga-upp-attondel.svg">
  <metadata
     id="metadata42">
    <rdf:RDF>
      <cc:Work
         rdf:about="">
        <dc:format>image/svg+xml</dc:format>
        <dc:type
           rdf:resource="http://purl.org/dc/dcmitype/StillImage" />
        <dc:title></dc:title>
      </cc:Work>
    </rdf:RDF>
  </metadata>
  <defs
     id="defs40" />
  <sodipodi:namedview
     pagecolor="#ffffff"
     bordercolor="#666666"
     borderopacity="1"
     objecttolerance="10"
     gridtolerance="10"
     guidetolerance="10"
     inkscape:pageopacity="0"
     inkscape:pageshadow="2"
     inkscape:window-width="1680"
     inkscape:window-height="1024"
     id="namedview38"
     showgrid="false"
     inkscape:zoom="0.64"
     inkscape:cx="761.74"
     inkscape:cy="27390.999"
     inkscape:window-x="1676"
     inkscape:window-y="-4"
     inkscape:window-maximized="1"
     inkscape:current-layer="svg2" />
  <g
     visibility="visible"
     id="Default"
     transform="translate(-158,0)"
     style="visibility:visible">
    <desc
       id="desc5">Master slide</desc>
    <g
       style="fill:none;stroke:none"
       id="g7">
      <rect
         x="0"
         y="0"
         width="19687"
         height="27844"
         id="rect9" />
    </g>
  </g>
  <g
     style="fill-rule:evenodd"
     id="g3243"
     transform="matrix(0.03305148,0,0,0.03305148,7.60197,15.922)">
    <g
       id="Default-4"
       visibility="visible"
       style="visibility:visible">
      <desc
         id="desc3148">Master slide</desc>
      <g
         id="g3150"
         style="fill:none;stroke:none">
        <rect
           id="rect3152"
           height="29700"
           width="21000"
           y="0"
           x="0" />
      </g>
    </g>
    <g
       id="page1-0"
       visibility="visible"
       style="visibility:visible">
      <desc
         id="desc3155">Slide</desc>
      <g
         id="g3157">
        <desc
           id="desc3159">Group</desc>
        <g
           id="g3161">
          <desc
             id="desc3163">Group</desc>
          <g
             id="g3165">
            <desc
               id="desc3167">Group</desc>
            <g
               id="g3169">
              <desc
                 id="desc3171">Drawing</desc>
              <g
                 id="g3173">
                <g
                   id="g3175"
                   style="fill:none;stroke:none">
                  <rect
                     id="rect3177"
                     height="29701"
                     width="21000"
                     y="0"
                     x="0" />
                </g>
                <g
                   id="g3179" />
              </g>
            </g>
          </g>
        </g>
        <g
           id="g3181">
          <desc
             id="desc3183">Group</desc>
          <g
             id="g3185">
            <desc
               id="desc3187">Group</desc>
            <g
               id="g3189">
              <desc
                 id="desc3191">Group</desc>
              <g
                 id="g3193">
                <desc
                   id="desc3195">Group</desc>
                <g
                   id="g3197">
                  <desc
                     id="desc3199">Drawing</desc>
                  <g
                     id="g3201">
                    <g
                       id="g3203"
                       style="fill:none;stroke:none">
                      <rect
                         id="rect3205"
                         height="10448"
                         width="21553"
                         y="15"
                         x="-217" />
                    </g>
                    <g
                       id="g3207" />
                  </g>
                </g>
              </g>
              <g
                 id="g3209">
                <desc
                   id="desc3211">Group</desc>
                <g
                   id="g3213">
                  <desc
                     id="desc3215">Group</desc>
                  <g
                     id="g3217">
                    <desc
                       id="desc3219">Group</desc>
                    <g
                       id="g3221">
                      <desc
                         id="desc3223">Drawing</desc>
                      <g
                         id="g3225">
                        <g
                           id="g3227"
                           style="fill:#000000;stroke:none">
                          <path
                             id="path3229"
                             d="m 1189,9127 c -27,0 -41,-14 -41,-41 0,-20 6,-55 16,-105 10,-49 22,-105 36,-166 13,-62 25,-123 35,-185 11,-61 16,-115 16,-163 -4,-62 -14,-117 -31,-167 -17,-49 -49,-102 -95,-158 -46,-57 -110,-121 -194,-192 -84,-72 -194,-161 -330,-266 -65,-51 -119,-92 -161,-121 -43,-29 -80,-51 -113,-66 -32,-15 -65,-25 -100,-28 -34,-4 -73,-5 -117,-5 l 0,-2252 15,0 c 21,0 32,7 36,23 3,15 8,38 15,69 89,331 278,674 568,1029 75,102 156,200 243,294 87,94 170,193 248,299 79,103 136,219 172,348 36,130 54,260 54,389 0,191 -27,341 -82,451 17,44 30,95 39,153 8,58 14,126 18,205 l 0,25 c 0,48 -8,108 -23,180 -16,71 -36,140 -62,207 -26,66 -53,124 -82,171 -29,48 -56,72 -80,72 z m 97,-1382 c 0,-232 -68,-431 -205,-599 -7,-7 -39,-39 -97,-97 -58,-58 -128,-122 -210,-192 -82,-70 -168,-137 -258,-202 -91,-65 -168,-107 -233,-128 65,147 135,284 210,412 75,128 157,247 245,356 11,13 40,43 90,89 49,46 104,100 164,162 59,61 117,122 174,184 56,61 94,114 115,158 3,-27 5,-52 5,-74 0,-22 0,-45 0,-69 z"
                             inkscape:connector-curvature="0" />
                        </g>
                        <g
                           id="g3231"
                           style="fill:none;stroke:none">
                          <rect
                             id="rect3233"
                             height="3917"
                             width="1353"
                             y="5211"
                             x="109" />
                        </g>
                        <g
                           id="g3235" />
                      </g>
                    </g>
                  </g>
                </g>
              </g>
            </g>
          </g>
        </g>
      </g>
    </g>
  </g>
</svg>
