<?xml version="1.0" encoding="UTF-8" standalone="no"?>
<svg><g><path
				style="fill:#000000;fill-opacity:1;fill-rule:evenodd;stroke:none"
				d = "m 20.557649,250.57631 c -5.81753,-0.002 -10.6650905,-1.36806 -14.5450105,-4.0971 -3.87756,-2.73612 -5.81516995,-6.6516 -5.81516995,-11.74881 0,-4.12777 1.30193995,-8.10458 3.90816995,-11.92807 2.60387,-3.82585 5.9069905,-7.19411 9.9070005,-10.1095 3.99998,-2.91302 8.452014,-5.24816 13.360774,-7.01013 4.90876,-1.7596 9.66448,-2.63941 14.2719,-2.63941 6.1801,0 11.17834,1.42467 14.99703,4.27637 3.81636,2.85406 5.72572,6.70821 5.72572,11.56483 0,4.00747 -1.30195,7.92295 -3.90817,11.7488 -2.60623,3.8235 -5.93761,7.19412 -9.99882,10.10714 -4.05885,2.91303 -8.54382,5.27883 -13.45258,7.10448 -4.90878,1.81858 -9.72573,2.72905 -14.450844,2.7314 z" />
				</g></svg>