<?xml version="1.0" encoding="UTF-8" standalone="no"?>
<!-- Created with Inkscape (http://www.inkscape.org/) -->

<svg
   xmlns:dc="http://purl.org/dc/elements/1.1/"
   xmlns:cc="http://creativecommons.org/ns#"
   xmlns:rdf="http://www.w3.org/1999/02/22-rdf-syntax-ns#"
   xmlns:svg="http://www.w3.org/2000/svg"
   xmlns="http://www.w3.org/2000/svg"
   xmlns:sodipodi="http://sodipodi.sourceforge.net/DTD/sodipodi-0.dtd"
   xmlns:inkscape="http://www.inkscape.org/namespaces/inkscape"
   width="744.09448819"
   height="1052.3622047"
   id="svg2"
   version="1.1"
   inkscape:version="0.48.0 r9654"
   sodipodi:docname="noteWhite.svg">
  <defs
     id="defs4" />
  <sodipodi:namedview
     id="base"
     pagecolor="#ffffff"
     bordercolor="#666666"
     borderopacity="1.0"
     inkscape:pageopacity="0.0"
     inkscape:pageshadow="2"
     inkscape:zoom="2.8"
     inkscape:cx="107.48541"
     inkscape:cy="878.36018"
     inkscape:document-units="px"
     inkscape:current-layer="layer1"
     showgrid="false"
     inkscape:window-width="1680"
     inkscape:window-height="994"
     inkscape:window-x="-4"
     inkscape:window-y="-4"
     inkscape:window-maximized="1" />
  <metadata
     id="metadata7">
    <rdf:RDF>
      <cc:Work
         rdf:about="">
        <dc:format>image/svg+xml</dc:format>
        <dc:type
           rdf:resource="http://purl.org/dc/dcmitype/StillImage" />
        <dc:title></dc:title>
      </cc:Work>
    </rdf:RDF>
  </metadata>
  <g
     inkscape:label="Layer 1"
     inkscape:groupmode="layer"
     id="layer1"
     style="display:inline">
    <path
       inkscape:connector-curvature="0"
       id="9"
       style="fill:#000000;fill-opacity:1;fill-rule:evenodd;stroke:none"
       d="m 0.14197458,226.9183 c 0,-3.64187 1.21011002,-6.97946 3.63271012,-10.01514 2.4226,-3.03568 5.66217,-5.64679 9.7233503,-7.83569 4.0565,-2.18182 8.692204,-3.85179 13.899944,-5.00757 5.21012,-1.15106 10.54031,-1.72894 15.99057,-1.7313 5.09006,0.002 10.08827,0.64157 14.99232,1.91292 4.9064,1.27843 9.32782,3.00738 13.26661,5.19156 3.93643,2.18653 7.11712,4.76698 9.54208,7.74133 2.42025,2.97671 3.63271,6.22468 3.63271,9.74389 0,3.88718 -1.0312,7.34743 -3.08885,10.38311 -2.06004,3.03568 -4.99825,5.58546 -8.81461,7.64935 -3.81636,2.06388 -8.38843,3.67253 -13.71862,4.8283 -5.33019,1.15106 -11.26544,1.72895 -17.8081,1.73131 -5.81517,-0.002 -11.23482,-0.58025 -16.26603,-1.73131 -5.026479,-1.15577 -9.389044,-2.79508 -13.082984,-4.9203 -3.6962903,-2.12521 -6.6015203,-4.70565 -8.7204103,-7.73897 -2.1212401,-3.03568 -3.18069012,-6.43696 -3.18069012,-10.20149 z m 65.06407442,9.28158 c 0,-4.00511 -1.39376,-8.80276 -4.18363,-14.38822 -1.33254,-2.67007 -2.75691,-5.00757 -4.27074,-7.01248 -1.51618,-2.00256 -3.18305,-3.61121 -5.00057,-4.82595 -1.81754,-1.21239 -3.90817,-2.12522 -6.27193,-2.73141 -2.36373,-0.60619 -5.06179,-0.91047 -8.09181,-0.91047 -11.63506,0 -17.452602,4.675 -17.452602,14.02498 0,3.51922 0.696896,6.88984 2.090662,10.10714 1.39376,3.2173 3.24189,6.10202 5.54443,8.6518 2.30253,2.54978 4.84756,4.583 7.63508,6.09966 2.78751,1.51902 5.63859,2.27853 8.54853,2.27853 2.6651,0 5.17951,-0.12266 7.54324,-0.3656 2.36376,-0.24296 4.485,-0.72885 6.36375,-1.45769 1.8811,-0.72649 3.48674,-1.8516 4.81694,-3.36826 1.33489,-1.51666 2.24367,-3.55224 2.72865,-6.10203 z" />
  </g>
  <g
     inkscape:groupmode="layer"
     id="layer2"
     inkscape:label="Lager"
     style="display:inline" />
</svg>
