<?xml version="1.0" encoding="UTF-8" standalone="no"?>
<!-- Created with Inkscape (http://www.inkscape.org/) -->

<svg
   xmlns:dc="http://purl.org/dc/elements/1.1/"
   xmlns:cc="http://creativecommons.org/ns#"
   xmlns:rdf="http://www.w3.org/1999/02/22-rdf-syntax-ns#"
   xmlns:svg="http://www.w3.org/2000/svg"
   xmlns="http://www.w3.org/2000/svg"
   xmlns:sodipodi="http://sodipodi.sourceforge.net/DTD/sodipodi-0.dtd"
   xmlns:inkscape="http://www.inkscape.org/namespaces/inkscape"
   width="744.09448819"
   height="1052.3622047"
   id="svg2"
   version="1.1"
   inkscape:version="0.48.0 r9654"
   sodipodi:docname="noteWhole.svg">
  <defs
     id="defs4" />
  <sodipodi:namedview
     id="base"
     pagecolor="#ffffff"
     bordercolor="#666666"
     borderopacity="1.0"
     inkscape:pageopacity="0.0"
     inkscape:pageshadow="2"
     inkscape:zoom="2.8"
     inkscape:cx="107.48541"
     inkscape:cy="878.36018"
     inkscape:document-units="px"
     inkscape:current-layer="layer1"
     showgrid="false"
     inkscape:window-width="1680"
     inkscape:window-height="994"
     inkscape:window-x="-4"
     inkscape:window-y="-4"
     inkscape:window-maximized="1" />
  <metadata
     id="metadata7">
    <rdf:RDF>
      <cc:Work
         rdf:about="">
        <dc:format>image/svg+xml</dc:format>
        <dc:type
           rdf:resource="http://purl.org/dc/dcmitype/StillImage" />
        <dc:title></dc:title>
      </cc:Work>
    </rdf:RDF>
  </metadata>
  <g
     inkscape:label="Layer 1"
     inkscape:groupmode="layer"
     id="layer1"
     style="display:inline">
    <path
       inkscape:connector-curvature="0"
       id="8"
       style="fill:#000000;fill-opacity:1;fill-rule:evenodd;stroke:none"
       d="m -0.01820308,235.29885 c 0,-4.12777 1.15125988,-8.19421 3.45376988,-12.20168 2.30253,-4.00747 5.3325496,-7.55735 9.0900592,-10.65436 3.7575,-3.09701 7.96936,-5.58546 12.63565,-7.46772 4.66627,-1.88227 9.30428,-2.8234 13.90934,-2.8234 7.63741,0 13.69743,1.60865 18.18243,4.82831 4.48262,3.2173 6.72393,7.73898 6.72863,13.56739 -0.005,4.25042 -1.21482,8.25553 -3.63977,12.02006 -2.4226,3.76452 -5.57504,7.04315 -9.4526,9.83588 -3.87756,2.79037 -8.30134,5.00522 -13.27367,6.64689 -4.96763,1.63695 -10.06001,2.45779 -15.27249,2.46015 -6.18245,-0.002 -11.45615,-1.42939 -15.8186992,-4.28109 -4.36254,-2.85641 -6.54264988,-6.83322 -6.54264988,-11.93043 z M 49.439026,207.62158 c -1.93759,0 -4.39551,0.48589 -7.3643,1.45769 -2.97117,0.96944 -6.15186,2.2455 -9.54915,3.82113 -3.39257,1.57799 -6.75924,3.39893 -10.09297,5.46517 -3.33606,2.06388 -6.36843,4.18438 -9.09475,6.37091 -2.731,2.18182 -4.9417295,4.39902 -6.6391792,6.64453 -1.69512,2.24787 -2.54502,4.28109 -2.54738,6.10202 0.002,5.7034 3.4561299,8.55746 10.3684392,8.55746 3.27486,0 7.45849,-1.06143 12.55087,-3.18664 5.09241,-2.12285 10.0624,-4.73396 14.91464,-7.82861 4.84756,-3.097 9.03119,-6.34497 12.54619,-9.74153 3.51735,-3.40128 5.27603,-6.4346 5.27603,-9.10468 0,-5.7034 -3.45377,-8.55745 -10.36844,-8.55745 z" />
  </g>
  <g
     inkscape:groupmode="layer"
     id="layer2"
     inkscape:label="Lager"
     style="display:inline" />
</svg>
