<?xml version="1.0" encoding="UTF-8"?>
<!DOCTYPE svg PUBLIC "-//W3C//DTD SVG 1.1//EN" "http://www.w3.org/Graphics/SVG/1.1/DTD/svg11.dtd"><svg version="1.1" viewBox="0 0 21000 29700" preserveAspectRatio="xMidYMid" fill-rule="evenodd" xmlns="http://www.w3.org/2000/svg" xmlns:xlink="http://www.w3.org/1999/xlink"><g visibility="visible" id="Default"><desc>Master slide</desc><g style="stroke:none;fill:none"><rect x="0" y="0" width="21000" height="29700"/></g></g><g visibility="visible" id="page1"><desc>Slide</desc><g><desc>Drawing</desc><g><g style="stroke:none;fill:rgb(0,0,0)"><path d="M 96,268 C 90,271 83,272 75,272 65,272 55,270 47,267 38,264 30,259 23,253 16,248 10,241 6,233 2,225 0,217 0,209 0,179 21,147 63,112 62,106 61,101 60,95 59,90 59,84 59,78 59,70 60,62 61,54 62,47 64,39 67,33 69,26 72,20 76,14 80,8 84,4 89,0 106,23 114,45 114,66 114,79 111,92 104,105 98,117 88,129 74,140 L 82,179 C 87,178 89,178 90,178 96,178 101,179 107,181 112,183 117,187 120,190 124,194 127,199 130,204 132,209 133,215 133,221 133,225 132,230 131,234 129,238 127,242 124,246 121,250 117,254 113,257 109,260 105,263 100,265 100,265 100,266 101,267 101,269 102,271 102,274 103,276 103,279 104,283 105,286 105,289 106,292 106,295 107,298 107,300 108,303 108,304 108,305 108,311 107,316 104,321 102,326 99,330 94,333 90,337 85,339 80,341 74,343 69,344 62,344 58,344 53,343 49,342 45,340 42,338 39,336 36,333 33,330 31,326 30,322 29,318 29,313 29,310 29,307 30,304 32,301 33,299 35,297 37,295 39,293 42,292 45,291 48,290 51,290 54,290 57,291 60,292 62,293 64,295 66,297 68,299 70,302 71,304 72,307 72,310 72,313 72,319 70,324 65,328 61,332 55,334 47,335 53,338 59,339 65,339 70,339 75,338 80,336 84,335 89,332 92,329 96,326 99,323 101,319 103,315 104,311 104,307 104,305 104,303 103,301 L 96,268 Z M 96,27 C 94,26 93,26 92,26 88,26 85,28 81,32 78,36 75,41 73,47 70,53 68,60 67,68 66,75 65,83 65,91 65,94 65,97 65,100 66,103 66,106 67,108 92,86 105,66 105,49 105,40 102,33 96,27 Z M 99,259 C 105,255 109,250 112,245 115,239 117,234 117,228 117,224 116,220 115,217 114,213 112,210 110,207 107,204 104,202 101,200 98,199 94,198 90,198 90,198 90,198 89,198 88,198 87,198 86,198 L 99,259 Z M 81,199 C 77,199 74,200 70,202 67,203 64,205 62,207 59,209 58,212 56,214 55,217 54,220 54,223 54,232 59,240 69,246 61,245 54,242 49,237 44,232 42,225 42,218 42,213 43,209 45,205 47,200 49,197 52,193 56,190 59,187 64,185 68,183 72,181 77,180 L 69,143 C 52,156 39,169 30,181 21,194 17,206 17,218 17,225 18,231 21,237 24,243 28,248 33,253 38,257 44,261 51,263 57,266 64,267 72,267 76,267 80,267 84,266 87,265 91,264 94,262 L 81,199 Z"/></g><g style="stroke:none;fill:none"><rect x="0" y="0" width="134" height="345"/></g><g/></g></g></g></svg>