<?xml version="1.0" encoding="UTF-8"?>
<!DOCTYPE svg PUBLIC "-//W3C//DTD SVG 1.1//EN" "http://www.w3.org/Graphics/SVG/1.1/DTD/svg11.dtd"><svg version="1.1" viewBox="0 0 21000 29700" preserveAspectRatio="xMidYMid" fill-rule="evenodd" xmlns="http://www.w3.org/2000/svg" xmlns:xlink="http://www.w3.org/1999/xlink"><g visibility="visible" id="Default"><desc>Master slide</desc><g style="stroke:none;fill:none"><rect x="0" y="0" width="21000" height="29700"/></g></g><g visibility="visible" id="page1"><desc>Slide</desc><g><desc>Drawing</desc><g><g style="stroke:none;fill:rgb(0,0,0)"><path d="M 331,926 C 312,936 288,941 259,941 225,941 192,935 161,924 130,912 103,896 79,876 55,856 36,833 22,806 7,780 0,751 0,721 0,619 73,508 218,386 213,367 210,349 207,330 205,310 204,291 204,270 204,243 206,215 211,188 216,161 222,136 231,113 240,89 250,68 263,49 276,29 290,13 307,0 364,80 393,155 393,228 393,275 382,320 360,362 337,405 303,446 255,486 L 283,620 C 298,619 307,618 309,618 330,618 350,622 368,629 386,637 402,648 416,661 430,674 441,690 449,708 457,726 461,746 461,767 461,782 458,798 453,812 447,827 439,841 429,855 419,868 407,880 393,891 379,903 364,912 347,920 347,919 347,922 349,928 350,933 351,941 353,950 355,959 357,970 360,981 363,993 365,1004 367,1014 369,1025 370,1034 372,1043 373,1051 374,1056 374,1059 374,1079 370,1097 361,1114 353,1130 341,1145 327,1157 312,1168 296,1178 277,1184 258,1191 237,1194 216,1194 200,1194 185,1191 171,1186 157,1181 145,1174 134,1165 124,1156 115,1144 109,1131 103,1118 100,1103 100,1087 100,1075 102,1065 106,1054 109,1044 115,1036 121,1028 128,1021 136,1016 146,1011 156,1007 167,1005 178,1005 188,1005 198,1007 207,1012 216,1017 223,1023 230,1030 236,1037 241,1046 245,1055 249,1065 251,1074 251,1084 251,1106 242,1124 226,1138 210,1152 189,1160 165,1162 184,1172 204,1177 225,1177 242,1177 258,1174 274,1168 291,1162 305,1153 317,1143 329,1133 338,1121 346,1107 353,1093 357,1079 357,1063 357,1057 356,1051 355,1044 L 331,926 Z M 329,92 C 325,91 321,90 318,90 305,90 293,97 281,110 270,124 261,141 252,162 244,184 238,208 233,235 228,261 226,288 226,315 226,326 226,336 227,346 228,356 229,366 231,376 318,299 361,230 361,169 361,139 350,114 329,92 Z M 343,900 C 363,885 379,868 390,850 401,832 406,812 406,791 406,778 404,765 399,752 395,740 389,729 380,719 372,709 362,702 351,696 340,690 327,687 314,687 313,687 311,687 308,687 306,687 302,688 298,688 L 343,900 Z M 281,691 C 268,693 256,696 245,701 233,706 223,712 215,719 207,726 200,734 195,744 190,753 188,763 188,774 188,807 205,834 240,855 212,851 188,840 171,822 154,805 145,782 145,756 145,740 148,725 155,710 161,696 170,683 181,671 192,659 205,649 220,641 235,632 251,626 267,623 L 240,496 C 180,541 135,585 104,628 73,671 58,714 58,756 58,779 63,801 74,822 84,843 98,861 116,876 133,892 154,904 177,913 200,922 224,926 250,926 265,926 279,925 292,922 304,919 316,915 327,909 L 281,691 Z"/></g><g style="stroke:none;fill:none"><rect x="0" y="0" width="462" height="1195"/></g><g/></g></g></g></svg>