<?xml version="1.0" encoding="UTF-8"?>
<!DOCTYPE svg PUBLIC "-//W3C//DTD SVG 1.1//EN" "http://www.w3.org/Graphics/SVG/1.1/DTD/svg11.dtd"><svg version="1.1" viewBox="0 0 21000 29700" preserveAspectRatio="xMidYMid" fill-rule="evenodd" xmlns="http://www.w3.org/2000/svg" xmlns:xlink="http://www.w3.org/1999/xlink"><g visibility="visible" id="Default"><desc>Master slide</desc><g style="stroke:none;fill:none"><rect x="0" y="0" width="21000" height="29700"/></g></g><g visibility="visible" id="page1"><desc>Slide</desc><g><desc>Drawing</desc><g><g style="stroke:none;fill:rgb(0,0,0)"><path d="M 183,515 C 172,520 159,523 143,523 124,523 106,520 89,513 72,507 57,498 44,487 30,476 20,463 12,448 4,433 0,418 0,401 0,344 40,282 121,215 118,204 116,194 115,183 114,173 113,162 113,150 113,135 114,120 117,105 119,90 123,76 128,63 133,50 139,38 146,27 153,16 161,7 170,0 202,44 218,87 218,127 218,153 212,178 199,201 187,225 168,248 141,270 L 157,345 C 165,344 170,344 171,344 183,344 194,346 204,350 214,355 223,360 231,368 238,375 244,384 248,394 253,404 255,415 255,427 255,435 253,444 250,452 247,460 243,468 237,475 232,483 225,490 218,496 210,502 201,507 192,512 192,511 192,513 193,516 194,519 194,523 196,529 197,534 198,539 199,546 201,552 202,558 203,564 204,570 205,575 206,580 207,584 207,588 207,589 207,600 205,610 200,620 195,629 189,637 181,643 173,650 164,655 153,659 142,662 131,664 120,664 111,664 102,663 94,660 87,657 80,653 74,648 68,643 63,636 60,629 57,622 55,613 55,604 55,598 56,592 58,586 60,581 63,576 67,572 71,568 75,565 81,563 86,560 92,559 98,559 104,559 109,560 114,563 119,565 123,569 127,573 130,577 133,582 135,587 138,592 139,598 139,603 139,615 134,625 125,633 116,641 105,645 91,647 102,652 113,655 125,655 134,655 143,653 152,650 161,646 169,642 176,636 182,630 188,624 192,616 196,608 198,600 198,591 198,588 198,584 197,580 L 183,515 Z M 182,51 C 180,51 178,51 176,51 169,51 162,54 156,62 150,69 144,79 140,91 135,103 131,116 129,131 126,146 125,161 125,175 125,181 125,187 126,193 126,199 127,204 128,209 176,167 200,128 200,94 200,78 194,64 182,51 Z M 190,500 C 201,491 210,482 216,472 222,462 225,451 225,439 225,432 224,425 221,418 219,411 215,405 211,399 206,394 201,389 194,386 188,383 181,381 173,381 173,381 172,381 171,381 169,381 167,382 165,382 L 190,500 Z M 156,383 C 149,384 142,386 135,388 129,391 124,395 119,399 114,403 111,407 108,412 105,417 104,423 104,429 104,447 114,462 133,474 117,472 104,466 94,456 85,446 80,434 80,419 80,410 82,402 85,394 89,386 94,378 100,372 106,366 113,360 122,356 130,351 139,348 148,346 L 133,275 C 100,300 75,325 58,349 41,373 32,397 32,420 32,433 35,445 41,457 46,469 54,479 64,487 74,496 85,503 98,508 111,513 124,515 139,515 147,515 154,514 162,513 169,511 175,509 181,505 L 156,383 Z"/></g><g style="stroke:none;fill:none"><rect x="0" y="0" width="256" height="665"/></g><g/></g></g></g></svg>