<?xml version="1.0" encoding="UTF-8"?>
<!DOCTYPE svg PUBLIC "-//W3C//DTD SVG 1.1//EN" "http://www.w3.org/Graphics/SVG/1.1/DTD/svg11.dtd"><svg version="1.1" viewBox="0 0 21000 29700" preserveAspectRatio="xMidYMid" fill-rule="evenodd" xmlns="http://www.w3.org/2000/svg" xmlns:xlink="http://www.w3.org/1999/xlink"><g visibility="visible" id="Default"><desc>Master slide</desc><g style="stroke:none;fill:none"><rect x="0" y="0" width="21000" height="29700"/></g></g><g visibility="visible" id="page1"><desc>Slide</desc><g><desc>Drawing</desc><g><g style="stroke:none;fill:rgb(0,0,0)"><path d="M 94,263 C 89,266 82,267 74,267 64,267 55,265 46,262 37,259 29,254 22,249 16,243 10,236 6,229 2,221 0,213 0,205 0,176 21,144 62,110 61,104 60,99 59,94 58,88 58,83 58,77 58,69 59,61 60,53 61,46 63,39 66,32 68,25 71,19 75,14 78,8 83,4 87,0 104,23 112,44 112,65 112,78 109,91 103,103 96,115 86,127 73,138 L 81,176 C 85,175 88,175 88,175 94,175 100,176 105,178 110,180 115,183 118,187 122,191 125,195 128,201 130,206 131,211 131,217 131,222 130,226 129,230 127,235 125,239 122,242 119,246 115,250 111,253 107,256 103,259 98,261 98,261 98,262 99,263 99,265 100,267 100,270 101,272 101,275 102,278 103,282 103,285 104,288 104,291 105,294 105,296 106,298 106,300 106,301 106,306 105,312 102,316 100,321 97,325 93,328 89,332 84,334 79,336 73,338 68,339 62,339 57,339 53,338 49,337 45,335 42,333 39,331 36,328 33,325 32,321 30,317 29,313 29,308 29,305 30,302 31,299 32,296 33,294 35,292 37,290 39,288 42,287 45,286 48,285 51,285 54,285 57,286 59,287 62,288 64,290 66,292 67,294 69,297 70,299 71,302 71,305 71,308 71,314 69,319 65,323 60,327 54,329 47,330 53,333 59,334 65,334 69,334 74,333 79,331 83,330 87,327 91,324 94,321 97,318 99,314 101,310 102,306 102,302 102,300 102,298 101,296 L 94,263 Z M 94,26 C 93,26 92,26 91,26 87,26 83,27 80,31 77,35 74,40 72,46 69,52 67,59 66,66 65,74 64,82 64,89 64,92 64,95 64,98 65,101 65,104 66,106 91,85 103,65 103,48 103,39 100,32 94,26 Z M 97,254 C 103,250 108,245 111,240 114,235 116,229 116,223 116,219 115,216 114,212 113,209 111,206 108,203 106,200 103,198 100,196 97,195 93,194 89,194 89,194 88,194 88,194 87,194 86,194 85,194 L 97,254 Z M 80,195 C 77,195 73,196 70,198 67,199 64,201 62,203 59,205 57,207 56,210 55,213 54,215 54,219 54,228 59,235 68,242 60,240 54,237 49,232 44,227 42,221 42,213 42,209 43,205 45,201 47,196 49,193 52,190 55,187 59,184 63,182 67,179 71,178 76,177 L 68,141 C 51,154 39,166 30,178 21,190 17,202 17,214 17,221 18,227 21,233 24,239 28,244 33,248 38,252 44,256 51,258 57,261 64,262 72,262 76,262 80,262 83,261 87,260 90,259 93,257 L 80,195 Z"/></g><g style="stroke:none;fill:none"><rect x="0" y="0" width="132" height="340"/></g><g/></g></g></g></svg>