<?xml version="1.0" encoding="UTF-8"?>
<!DOCTYPE svg PUBLIC "-//W3C//DTD SVG 1.1//EN" "http://www.w3.org/Graphics/SVG/1.1/DTD/svg11.dtd">
	<svg version="1.1" viewBox="0 0 21000 29700" preserveAspectRatio="xMidYMid" fill-rule="evenodd" xmlns="http://www.w3.org/2000/svg" xmlns:xlink="http://www.w3.org/1999/xlink"><g visibility="visible" id="Default"><desc>Master slide</desc><g style="stroke:none;fill:none"><rect x="0" y="0" width="21000" height="29700"/></g></g><g visibility="visible" id="page1"><desc>Slide</desc><g><desc>Drawing</desc><g>
		
	<g style="stroke:none;fill:rgb(0,0,0)"><path d="M 2759,7125 C 2612,7198 2430,7235 2212,7235 1956,7235 1711,7191 1476,7103 1241,7015 1034,6896 854,6745 675,6595 531,6419 423,6218 314,6016 259,5802 259,5574 259,4803 806,3959 1899,3040 1864,2900 1838,2757 1820,2613 1803,2469 1794,2320 1794,2167 1794,1956 1812,1749 1847,1545 1882,1342 1932,1152 1998,974 2064,797 2145,635 2241,489 2337,344 2447,222 2572,122 3008,724 3225,1298 3225,1845 3225,2200 3141,2538 2973,2860 2805,3181 2542,3494 2184,3798 L 2395,4810 C 2510,4801 2574,4796 2587,4796 2747,4796 2897,4825 3036,4883 3175,4940 3296,5019 3400,5120 3504,5221 3587,5340 3647,5478 3708,5615 3738,5764 3738,5924 3738,6039 3718,6153 3676,6265 3634,6377 3575,6483 3498,6584 3421,6685 3330,6777 3224,6862 3119,6947 3002,7020 2874,7081 2874,7074 2879,7093 2888,7136 2898,7179 2910,7236 2924,7306 2939,7377 2955,7455 2975,7541 2994,7628 3011,7711 3025,7791 3039,7871 3052,7942 3063,8004 3074,8067 3080,8109 3080,8132 3080,8282 3048,8420 2984,8544 2920,8669 2834,8776 2725,8866 2616,8955 2490,9025 2346,9075 2202,9124 2050,9149 1890,9149 1769,9149 1655,9130 1550,9092 1444,9053 1352,8999 1272,8928 1192,8858 1128,8773 1082,8672 1036,8571 1012,8460 1012,8339 1012,8252 1027,8171 1056,8094 1084,8017 1124,7952 1176,7897 1227,7843 1289,7800 1363,7768 1436,7736 1516,7720 1603,7720 1679,7720 1751,7738 1819,7773 1886,7808 1943,7853 1991,7909 2039,7965 2078,8029 2106,8101 2135,8173 2149,8246 2149,8320 2149,8486 2088,8622 1965,8727 1842,8833 1687,8895 1502,8915 1649,8988 1801,9025 1958,9025 2086,9025 2211,9002 2332,8955 2454,8909 2560,8847 2651,8768 2742,8690 2816,8599 2872,8495 2928,8391 2956,8279 2956,8161 2956,8116 2951,8067 2942,8012 L 2759,7125 Z M 2744,819 C 2712,813 2684,810 2658,810 2559,810 2467,860 2382,961 2297,1062 2224,1193 2162,1354 2099,1516 2050,1697 2015,1899 1980,2100 1963,2302 1963,2503 1963,2586 1966,2666 1972,2743 1979,2820 1990,2894 2006,2964 2658,2385 2984,1864 2984,1400 2984,1179 2904,986 2744,819 Z M 2846,6926 C 3003,6811 3122,6684 3204,6547 3285,6409 3326,6260 3326,6101 3326,6001 3309,5905 3276,5810 3242,5716 3194,5632 3132,5558 3069,5485 2995,5426 2908,5381 2822,5336 2727,5314 2625,5314 2619,5314 2606,5315 2587,5316 2568,5318 2540,5320 2505,5323 L 2846,6926 Z M 2384,5342 C 2285,5355 2192,5380 2106,5416 2020,5453 1945,5499 1883,5553 1821,5608 1771,5670 1734,5740 1697,5811 1679,5887 1679,5971 1679,6217 1810,6422 2073,6585 1856,6550 1681,6466 1550,6333 1419,6200 1353,6033 1353,5831 1353,5713 1378,5599 1428,5488 1477,5378 1544,5279 1627,5191 1710,5103 1808,5027 1920,4963 2032,4899 2150,4855 2275,4829 L 2073,3869 C 1622,4208 1280,4541 1048,4868 816,5194 700,5517 700,5838 700,6014 739,6180 817,6337 896,6494 1001,6631 1134,6748 1267,6865 1421,6957 1595,7024 1769,7091 1954,7125 2149,7125 2261,7125 2365,7114 2461,7094 2557,7073 2647,7040 2730,6995 L 2384,5342 Z"/></g><g style="stroke:none;fill:none"><rect x="259" y="122" width="3481" height="9029"/></g><g/></g></g></g></svg>