<?xml version="1.0" standalone="no"?>
<!DOCTYPE svg PUBLIC "-//W3C//DTD SVG 1.1//EN"

    "http://www.w3.org/Graphics/SVG/1.1/DTD/svg11.dtd">
<svg contentScriptType="text/ecmascript" xmlns:xlink="http://www.w3.org/1999/xlink" baseProfile="full" fill-rule="evenodd"
    zoomAndPan="magnify" contentStyleType="text/css" viewBox="0 0 21000 29700" preserveAspectRatio="xMidYMid" xmlns="http://www.w3.org/2000/svg"
    version="1.1">
    <g visibility="visible" id="page1">
        <desc>Slide</desc>
        <g>
            <desc>Drawing</desc>
            <g>
                <g style="stroke:none;fill:rgb(0,0,0)">
                    <path stroke-width="1" d="M -4063.2817 80.28878 C -4060.1814 80.28878 -4056.8425 80.64651 -4053.0269 
                        81.36196 C -4033.948 101.27544 -4024.4084 124.28923 -4024.4084 150.6418 C -4024.4084 205.97029 
                        -4063.2817 268.09558 -4141.028 337.13693 C -4142.9355 328.78998 -4144.247 319.96603 -4145.082 
                        310.78436 C -4145.7974 301.6027 -4146.1553 292.06332 -4146.1553 282.16617 C -4146.1553 258.19846 
                        -4144.128 234.1115 -4139.9546 210.14377 C -4135.781 186.05681 -4129.938 164.47392 -4122.426 
                        145.15666 C -4115.0327 125.958626 -4106.328 110.33787 -4096.1924 98.29439 C -4086.057 86.2509 
                        -4075.0867 80.28878 -4063.2817 80.28878 z M -4067.2166 617.3566 C -4055.054 617.3566 -4043.7258 
                        619.9799 -4033.471 625.3459 C -4023.097 630.71173 -4014.273 637.7471 -4006.7607 646.4517 C 
                        -3999.3677 655.2757 -3993.644 665.29205 -3989.5898 676.50085 C -3985.6548 687.82886 -3983.6277 
                        699.2761 -3983.6277 711.2004 C -3983.6277 730.16 -3988.5166 747.92706 -3998.1753 764.3825 C 
                        -4007.9531 780.7187 -4022.143 795.8625 -4040.864 809.5753 C -4040.864 809.5753 -4040.864 
                        809.5753 -4081.5256 618.4298 C -4077.3523 618.072 -4074.0134 617.83356 -4071.7478 617.5951 C 
                        -4069.4822 617.4758 -4067.9321 617.3566 -4067.2166 617.3566 z M -4133.0386 445.05133 C 
                        -4133.0386 445.05133 -4133.0386 445.05133 -4108.9517 559.52405 C -4123.857 562.6243 -4137.9272 
                        567.871 -4151.2827 575.5025 C -4164.6377 583.13403 -4176.323 592.1965 -4186.2207 602.6898 C 
                        -4196.1177 613.1831 -4204.107 624.9881 -4209.9497 638.1048 C -4215.912 651.3407 -4218.893 
                        664.9343 -4218.893 679.00494 C -4218.893 703.0919 -4211.023 723.0054 -4195.4023 738.8646 C 
                        -4179.7812 754.7238 -4158.914 764.7402 -4133.0386 768.9137 C -4164.3994 749.47723 -4180.02 
                        725.0326 -4180.02 695.69885 C -4180.02 685.6825 -4177.8735 676.62006 -4173.4614 668.1539 C 
                        -4169.05 659.8069 -4163.0874 652.4139 -4155.6943 645.8555 C -4148.3013 639.41644 -4139.3584 
                        633.9313 -4129.1035 629.51935 C -4118.8486 625.22656 -4107.7593 622.24554 -4095.954 620.69543 C 
                        -4095.954 620.69543 -4095.954 620.69543 -4054.696 817.80316 C -4064.5933 823.169 -4075.3252 
                        827.10406 -4086.7725 829.6081 C -4098.2197 831.99304 -4110.6206 833.3046 -4123.976 833.3046 C 
                        -4147.228 833.3046 -4169.288 829.25037 -4190.036 821.2611 C -4210.7847 813.2719 -4229.148 
                        802.30164 -4245.007 788.3502 C -4260.866 774.3989 -4273.3867 758.0627 -4282.8066 739.3417 C 
                        -4292.108 720.62054 -4296.7583 700.8263 -4296.7583 679.8396 C -4296.7583 641.5628 -4282.9263 
                        603.04755 -4255.2617 564.1745 C -4227.5977 525.1822 -4186.817 485.47452 -4133.0386 445.05133 z M 
                        -4073.5364 -1.75 C -4088.442 10.174241 -4101.5586 24.721815 -4113.006 42.011967 C -4124.453 
                        59.421356 -4134.112 78.73863 -4141.9814 99.844536 C -4149.8516 121.06969 -4155.814 143.72574 
                        -4159.9873 167.93196 C -4164.1606 192.2574 -4166.307 216.94058 -4166.307 242.10072 C -4166.307 
                        260.34485 -4165.234 278.11194 -4163.207 295.28284 C -4161.0605 312.45377 -4157.96 329.50543 
                        -4153.7866 346.19937 C -4284.1187 455.7831 -4349.344 556.4237 -4349.344 648.3596 C -4349.344 
                        675.5469 -4342.7856 701.06476 -4329.7886 725.1518 C -4316.91 749.1195 -4299.7393 770.10614 
                        -4278.395 787.9925 C -4256.931 805.9981 -4232.248 820.188 -4204.226 830.6813 C -4176.204 
                        841.17456 -4146.9897 846.4213 -4116.464 846.4213 C -4090.469 846.4213 -4068.7668 842.00934 
                        -4051.238 833.3046 C -4051.238 833.3046 -4051.238 833.3046 -4029.4167 939.0727 C -4028.3435 
                        945.631 -4027.7473 951.47394 -4027.7473 956.8398 C -4027.7473 970.9104 -4031.0862 984.2655 
                        -4037.7637 996.66675 C -4044.4414 1009.0679 -4053.2654 1019.919 -4064.1162 1029.22 C -4074.9673 
                        1038.6401 -4087.6072 1046.0331 -4102.155 1051.5182 C -4116.583 1057.1226 -4131.4883 1059.8652 
                        -4146.7515 1059.8652 C -4165.472 1059.8652 -4183.597 1055.4532 -4201.126 1046.7485 C -4179.066 
                        1044.3636 -4160.5835 1036.9706 -4145.9165 1024.331 C -4131.25 1011.81055 -4123.976 995.59357 
                        -4123.976 975.7993 C -4123.976 966.9754 -4125.6455 958.2707 -4129.1035 949.6853 C -4132.4424 
                        941.0998 -4137.093 933.46826 -4142.8164 926.79065 C -4148.54 920.1131 -4155.337 914.74725 
                        -4163.326 910.5737 C -4171.4346 906.4002 -4180.02 904.2539 -4189.0825 904.2539 C -4199.4565 
                        904.2539 -4208.9956 906.16174 -4217.7007 909.9775 C -4226.5244 913.7933 -4233.9175 918.92065 
                        -4239.999 925.3598 C -4246.199 931.9181 -4250.969 939.6689 -4254.308 948.8505 C -4257.766 
                        958.0322 -4259.5547 967.69086 -4259.5547 978.0649 C -4259.5547 992.4933 -4256.693 1005.7291 
                        -4251.2075 1017.77264 C -4245.7227 1029.8162 -4238.091 1039.9517 -4228.552 1048.2986 C -4219.012 
                        1056.7649 -4208.042 1063.204 -4195.4023 1067.8545 C -4182.882 1072.3856 -4169.288 1074.6512 
                        -4154.86 1074.6512 C -4135.781 1074.6512 -4117.6562 1071.6702 -4100.4854 1065.8273 C -4083.3142 
                        1059.8652 -4068.2898 1051.5182 -4055.2925 1040.9056 C -4042.295 1030.1738 -4032.04 1017.4149 
                        -4024.4084 1002.5096 C -4016.777 987.7236 -4012.9612 971.26807 -4012.9612 953.3818 C -4012.9612 
                        950.63916 -4013.6768 945.631 -4014.9885 938.1187 C -4016.3 930.72565 -4017.8503 922.25946 
                        -4019.5195 912.72003 C -4021.189 903.18066 -4023.216 893.28357 -4025.4817 882.9094 C -4027.8667 
                        872.6546 -4029.7744 863.3537 -4031.5632 854.8875 C -4033.2324 846.5405 -4034.6633 839.7438 
                        -4035.856 834.6163 C -4036.6624 830.7626 -4037.1995 828.5255 -4037.4167 828.00616 C -4037.4167 
                        828.00616 -4037.4167 828.00616 -4037.4167 828.00616 C -4037.453 828.0234 -4037.489 828.0407 
                        -4037.5254 828.0579 C -4037.5254 827.945 -4037.5144 827.88885 -4037.4927 827.88885 C -4037.4749 
                        827.88885 -4037.4495 827.928 -4037.4167 828.00616 C -4037.4167 828.00616 -4037.4167 828.00616 
                        -4037.4167 828.00616 C -4022.196 820.7429 -4008.2812 812.0554 -3995.7903 801.9438 C -3983.1506 
                        791.8082 -3972.2996 780.8379 -3963.118 768.7945 C -3953.9363 756.751 -3946.9011 744.11127 
                        -3941.8928 730.75616 C -3936.8848 717.401 -3934.4998 703.8073 -3934.4998 690.0944 C -3934.4998 
                        671.0157 -3938.0771 653.24854 -3945.3508 636.91235 C -3952.5054 620.4569 -3962.4026 606.2671 
                        -3974.8037 594.2236 C -3987.2048 582.1801 -4001.6333 572.7599 -4018.208 565.96313 C -4034.7827 
                        559.04706 -4052.669 555.58905 -4071.7478 555.58905 C -4073.2979 555.58905 -4080.9294 556.18524 
                        -4094.6423 557.2584 C -4094.6423 557.2584 -4094.6423 557.2584 -4119.8027 436.58514 C -4077.1138 
                        400.33542 -4045.753 363.01254 -4025.7202 324.73572 C -4005.6875 286.3397 -3995.6711 246.03574 
                        -3995.6711 203.70467 C -3995.6711 138.47908 -4021.5469 70.033936 -4073.5364 -1.75 z"/>
                </g>
                <g style="stroke:none;fill:none">
                    <path stroke-width="1"/>
                </g>
                <g/>
            </g>
        </g>
    </g>
</svg>