<?xml version="1.0" encoding="UTF-8"?>
<!DOCTYPE svg PUBLIC "-//W3C//DTD SVG 1.1//EN" "http://www.w3.org/Graphics/SVG/1.1/DTD/svg11.dtd"><svg version="1.1" viewBox="0 0 21000 29700" preserveAspectRatio="xMidYMid" fill-rule="evenodd" xmlns="http://www.w3.org/2000/svg" xmlns:xlink="http://www.w3.org/1999/xlink"><g visibility="visible" id="Default"><desc>Master slide</desc><g style="stroke:none;fill:none"><rect x="0" y="0" width="21000" height="29700"/></g></g><g visibility="visible" id="page1"><desc>Slide</desc><g><desc>Drawing</desc><g><g style="stroke:none;fill:rgb(0,0,0)"><path d="M 101,284 C 95,287 88,288 79,288 69,288 59,286 49,283 40,279 31,274 24,268 17,262 11,255 7,247 2,239 0,230 0,221 0,190 22,155 66,118 65,112 64,107 63,101 62,95 62,89 62,83 62,74 63,66 64,58 66,49 68,42 70,34 73,27 76,21 80,15 84,9 88,4 94,0 111,24 120,48 120,70 120,84 117,98 110,111 103,124 92,137 78,149 L 86,190 C 91,189 94,189 94,189 101,189 107,190 112,193 118,195 123,198 127,202 131,206 135,211 137,217 140,222 141,228 141,235 141,240 140,244 138,249 137,253 134,258 131,262 128,266 124,270 119,273 115,276 110,279 105,282 105,282 105,282 105,284 106,286 106,288 107,291 107,294 108,297 109,301 110,304 110,308 111,311 111,314 112,317 112,319 113,322 113,324 113,325 113,331 112,336 109,341 107,346 103,351 99,354 95,358 90,361 84,363 78,365 72,366 66,366 61,366 57,365 53,364 49,362 45,360 42,357 38,354 36,351 34,347 32,343 31,338 31,333 31,330 32,326 33,323 34,320 36,317 38,315 40,313 42,311 45,310 48,309 51,308 55,308 58,308 61,309 63,310 66,311 68,313 70,316 72,318 74,320 75,323 76,326 76,329 76,332 76,339 74,344 69,348 64,352 58,355 51,356 57,359 63,360 69,360 74,360 79,359 84,357 89,355 93,353 97,350 100,347 103,343 106,339 108,334 109,330 109,325 109,323 109,321 108,319 L 101,284 Z M 100,29 C 99,28 98,28 97,28 93,28 89,30 86,34 82,38 79,44 77,50 74,57 73,64 71,72 70,80 69,89 69,97 69,100 69,103 69,106 70,109 70,112 71,115 97,92 110,71 110,52 110,43 107,35 100,29 Z M 105,275 C 111,270 116,265 119,259 122,254 124,248 124,241 124,237 123,234 122,230 121,226 119,222 116,220 114,217 111,214 107,213 104,211 100,210 96,210 96,210 95,210 94,210 94,210 92,210 91,210 L 105,275 Z M 87,211 C 83,212 79,213 75,214 72,215 69,217 66,220 64,222 62,224 60,227 59,230 58,233 58,236 58,246 63,255 74,261 65,260 58,256 53,251 48,246 45,239 45,231 45,226 46,221 48,217 50,212 53,209 56,205 59,202 63,199 67,196 72,194 77,192 82,191 L 74,152 C 55,166 41,179 32,193 23,206 18,219 18,232 18,239 20,246 23,252 26,258 30,264 36,269 41,273 47,277 55,280 62,283 69,284 77,284 82,284 86,284 90,283 93,282 97,281 100,279 L 87,211 Z"/></g><g style="stroke:none;fill:none"><rect x="0" y="0" width="142" height="367"/></g><g/></g></g></g></svg>