<?xml version="1.0" encoding="UTF-8"?>
<!DOCTYPE svg PUBLIC "-//W3C//DTD SVG 1.1//EN" "http://www.w3.org/Graphics/SVG/1.1/DTD/svg11.dtd"><svg version="1.1" viewBox="0 0 21000 29700" preserveAspectRatio="xMidYMid" fill-rule="evenodd" xmlns="http://www.w3.org/2000/svg" xmlns:xlink="http://www.w3.org/1999/xlink"><g visibility="visible" id="Default"><desc>Master slide</desc><g style="stroke:none;fill:none"><rect x="0" y="0" width="21000" height="29700"/></g></g><g visibility="visible" id="page1"><desc>Slide</desc><g><desc>Group</desc><g><desc>Group</desc><g><desc>Group</desc><g><desc>Drawing</desc><g><g style="stroke:none;fill:none"><rect x="0" y="0" width="21000" height="29701"/></g><g/></g></g></g></g><g><desc>Group</desc><g><desc>Group</desc><g><desc>Group</desc><g><desc>Group</desc><g><desc>Drawing</desc><g><g style="stroke:none;fill:none"><rect x="-217" y="15" width="21553" height="10448"/></g><g/></g></g></g><g><desc>Group</desc><g><desc>Group</desc><g><desc>Group</desc><g><desc>Drawing</desc><g><g style="stroke:none;fill:rgb(0,0,0)"><path d="M 811,8967 L 591,8967 1231,7239 C 985,7345 750,7398 525,7398 218,7398 64,7284 64,7055 64,6963 100,6891 172,6840 243,6789 327,6763 422,6763 613,6763 709,6845 709,7009 709,7087 682,7174 627,7270 658,7284 695,7290 740,7290 774,7290 819,7282 875,7265 931,7248 988,7228 1044,7206 1100,7184 1151,7163 1198,7145 1244,7126 1275,7115 1292,7111 L 1707,5980 C 1424,6083 1186,6134 995,6134 685,6134 530,6021 530,5796 530,5707 564,5636 632,5583 700,5531 782,5504 878,5504 1069,5504 1164,5591 1164,5765 1164,5844 1139,5931 1087,6026 1122,6033 1149,6036 1169,6036 1207,6036 1257,6027 1320,6008 1383,5990 1447,5969 1510,5947 1573,5925 1628,5904 1676,5885 1724,5867 1751,5856 1758,5852 L 2188,4701 C 1942,4803 1715,4854 1507,4854 1203,4854 1052,4752 1052,4547 1052,4332 1166,4225 1395,4225 1592,4225 1691,4312 1691,4486 1691,4564 1666,4651 1615,4747 1635,4754 1652,4757 1666,4757 1710,4757 1766,4746 1835,4724 1903,4702 1972,4674 2042,4642 2112,4610 2177,4574 2239,4534 2300,4495 2348,4459 2382,4424 L 811,8967 Z"/></g><g style="stroke:none;fill:none"><rect x="64" y="4224" width="2320" height="4745"/></g><g/></g></g></g></g></g></g></g></g></g></g></svg>