<?xml version="1.0" encoding="UTF-8"?>
<!DOCTYPE svg PUBLIC "-//W3C//DTD SVG 1.1//EN" "http://www.w3.org/Graphics/SVG/1.1/DTD/svg11.dtd"><svg version="1.1" viewBox="0 0 21000 29700" preserveAspectRatio="xMidYMid" fill-rule="evenodd" xmlns="http://www.w3.org/2000/svg" xmlns:xlink="http://www.w3.org/1999/xlink"><g visibility="visible" id="Default"><desc>Master slide</desc><g style="stroke:none;fill:none"><rect x="0" y="0" width="21000" height="29700"/></g></g><g visibility="visible" id="page1"><desc>Slide</desc><g><desc>Drawing</desc><g><g style="stroke:none;fill:rgb(0,0,0)"><path d="M 26,314 L 18,314 44,253 C 37,256 30,258 23,258 12,258 6,254 6,245 6,242 8,240 10,238 13,236 16,235 20,235 27,235 30,238 30,244 30,246 29,249 27,253 28,253 29,253 29,253 30,253 31,253 31,253 34,253 39,252 46,249 L 65,207 C 57,210 49,212 42,212 31,212 25,208 25,200 25,197 26,194 29,192 31,190 34,189 38,189 44,189 48,192 48,198 48,201 47,204 45,208 46,208 47,208 48,208 53,208 62,204 73,196 L 26,314 Z"/></g><g style="stroke:none;fill:none"><rect x="6" y="189" width="69" height="126"/></g><g/></g></g></g></svg>