<?xml version="1.0" encoding="UTF-8"?>
<!DOCTYPE svg PUBLIC "-//W3C//DTD SVG 1.1//EN" "http://www.w3.org/Graphics/SVG/1.1/DTD/svg11.dtd"><svg version="1.1" viewBox="0 0 21000 29700" preserveAspectRatio="xMidYMid" fill-rule="evenodd" xmlns="http://www.w3.org/2000/svg" xmlns:xlink="http://www.w3.org/1999/xlink"><g visibility="visible" id="Default"><desc>Master slide</desc><g style="stroke:none;fill:none"><rect x="0" y="0" width="21000" height="29700"/></g></g><g visibility="visible" id="page1"><desc>Slide</desc><g><desc>Drawing</desc><g><g style="stroke:none;fill:rgb(0,0,0)"><path d="M 54,263 C 49,261 43,260 38,260 34,260 30,261 27,263 24,266 22,269 22,273 22,280 26,287 34,294 33,295 33,295 32,295 31,295 29,294 26,292 23,291 20,288 17,285 14,283 12,280 9,276 7,273 6,269 6,266 6,264 6,261 7,258 8,256 9,254 11,252 12,250 14,248 17,247 19,246 21,245 24,245 28,245 31,246 35,248 34,246 32,244 30,241 29,239 27,237 24,234 22,231 20,228 17,225 14,221 11,217 7,213 20,201 26,191 26,181 26,179 25,176 24,173 23,170 21,167 19,165 18,162 16,160 15,158 13,156 13,155 13,155 13,154 14,153 16,153 L 48,198 C 37,212 31,222 31,228 31,231 32,233 34,236 35,239 37,242 40,245 42,248 45,251 47,254 50,257 52,260 54,263 Z"/></g><g style="stroke:none;fill:none"><rect x="6" y="153" width="50" height="143"/></g><g/></g></g></g></svg>