<?xml version="1.0" encoding="UTF-8"?>
<!DOCTYPE svg PUBLIC "-//W3C//DTD SVG 1.1//EN" "http://www.w3.org/Graphics/SVG/1.1/DTD/svg11.dtd"><svg version="1.1" viewBox="0 0 21000 29700" preserveAspectRatio="xMidYMid" fill-rule="evenodd" xmlns="http://www.w3.org/2000/svg" xmlns:xlink="http://www.w3.org/1999/xlink"><g visibility="visible" id="Default"><desc>Master slide</desc><g style="stroke:none;fill:none"><rect x="0" y="0" width="21000" height="29700"/></g></g><g visibility="visible" id="page1"><desc>Slide</desc><g><desc>Drawing</desc><g><g style="stroke:none;fill:rgb(0,0,0)"><path d="M 30,273 L 22,273 52,208 C 42,211 34,213 28,213 17,213 11,208 11,199 11,197 12,194 15,193 18,191 21,190 24,190 31,190 34,193 34,199 34,202 33,205 31,209 32,209 32,209 34,209 42,209 50,205 60,197 L 30,273 Z"/></g><g style="stroke:none;fill:none"><rect x="11" y="190" width="50" height="84"/></g><g/></g></g></g></svg>