<?xml version="1.0" encoding="UTF-8" standalone="no"?>
<!-- Created with Inkscape (http://www.inkscape.org/) -->

<svg
   xmlns:dc="http://purl.org/dc/elements/1.1/"
   xmlns:cc="http://creativecommons.org/ns#"
   xmlns:rdf="http://www.w3.org/1999/02/22-rdf-syntax-ns#"
   xmlns:svg="http://www.w3.org/2000/svg"
   xmlns="http://www.w3.org/2000/svg"
   xmlns:sodipodi="http://sodipodi.sourceforge.net/DTD/sodipodi-0.dtd"
   xmlns:inkscape="http://www.inkscape.org/namespaces/inkscape"
   width="744.09448819"
   height="1052.3622047"
   id="svg2"
   version="1.1"
   inkscape:version="0.48.0 r9654"
   sodipodi:docname="signNeutral.svg">
  <defs
     id="defs4" />
  <sodipodi:namedview
     id="base"
     pagecolor="#ffffff"
     bordercolor="#666666"
     borderopacity="1.0"
     inkscape:pageopacity="0.0"
     inkscape:pageshadow="2"
     inkscape:zoom="3.959798"
     inkscape:cx="93.023601"
     inkscape:cy="816.51251"
     inkscape:document-units="px"
     inkscape:current-layer="layer1"
     showgrid="false"
     inkscape:window-width="1680"
     inkscape:window-height="1024"
     inkscape:window-x="1676"
     inkscape:window-y="-4"
     inkscape:window-maximized="1" />
  <metadata
     id="metadata7">
    <rdf:RDF>
      <cc:Work
         rdf:about="">
        <dc:format>image/svg+xml</dc:format>
        <dc:type
           rdf:resource="http://purl.org/dc/dcmitype/StillImage" />
        <dc:title></dc:title>
      </cc:Work>
    </rdf:RDF>
  </metadata>
  <g
     inkscape:label="Layer 1"
     inkscape:groupmode="layer"
     id="layer1"
     style="display:inline">
    <path
       style="fill:#000000"
       d="M 27.34375 192.96875 L 4.8125 200.9375 L 4.8125 215.6875 L 27.34375 207.375 L 27.34375 192.96875 z M 27.34375 237.96875 L 4.8125 246.09375 L 4.8125 260.53125 L 27.34375 252.71875 L 27.34375 237.96875 z "
       id="path3067" />
    <path
       style="fill:#000000"
       d="m 31.696674,191.47129 -4.5625,1.625 0,14.40625 0.0312,0 0,30.59375 -0.0312,0 0,14.75 0.0312,0 0,36.4375 4.53125,0 0,-97.8125 z"
       id="path3072"
       inkscape:connector-curvature="0" />
    <path
       inkscape:connector-curvature="0"
       id="path3080"
       d="m 0.3968647,262.04141 4.5624998,-1.625 0,-14.40625 -0.0312,0 0,-30.59375 0.0312,0 0,-14.75 -0.0312,0 0,-36.4375 -4.5312498,0 0,97.8125 z"
       style="fill:#000000" />
  </g>
  <g
     inkscape:groupmode="layer"
     id="layer2"
     inkscape:label="Lager"
     style="display:inline" />
</svg>
