<?xml version="1.0" encoding="UTF-8" standalone="no"?>
<!-- Created with Inkscape (http://www.inkscape.org/) -->

<svg
   xmlns:dc="http://purl.org/dc/elements/1.1/"
   xmlns:cc="http://creativecommons.org/ns#"
   xmlns:rdf="http://www.w3.org/1999/02/22-rdf-syntax-ns#"
   xmlns:svg="http://www.w3.org/2000/svg"
   xmlns="http://www.w3.org/2000/svg"
   xmlns:sodipodi="http://sodipodi.sourceforge.net/DTD/sodipodi-0.dtd"
   xmlns:inkscape="http://www.inkscape.org/namespaces/inkscape"
   width="744.09448819"
   height="1052.3622047"
   id="svg2"
   version="1.1"
   inkscape:version="0.48.0 r9654"
   sodipodi:docname="signFlat2.svg">
  <defs
     id="defs4" />
  <sodipodi:namedview
     id="base"
     pagecolor="#ffffff"
     bordercolor="#666666"
     borderopacity="1.0"
     inkscape:pageopacity="0.0"
     inkscape:pageshadow="2"
     inkscape:zoom="3.959798"
     inkscape:cx="181.13869"
     inkscape:cy="838.25384"
     inkscape:document-units="px"
     inkscape:current-layer="layer1"
     showgrid="false"
     inkscape:window-width="1680"
     inkscape:window-height="1024"
     inkscape:window-x="1676"
     inkscape:window-y="-4"
     inkscape:window-maximized="1" />
  <metadata
     id="metadata7">
    <rdf:RDF>
      <cc:Work
         rdf:about="">
        <dc:format>image/svg+xml</dc:format>
        <dc:type
           rdf:resource="http://purl.org/dc/dcmitype/StillImage" />
        <dc:title />
      </cc:Work>
    </rdf:RDF>
  </metadata>
  <g
     inkscape:label="Layer 1"
     inkscape:groupmode="layer"
     id="layer1"
     style="display:inline">
    <path
       style="fill:#000000"
       d="m 61.5625,199.03125 c -6.58322,-0.002 -11.66994,2.24322 -15.28125,6.6875 -0.0523,0.0644 -0.10454,0.12216 -0.15625,0.1875 L 44.65625,208 l -4.5625,6.40625 0,4.8125 6.21875,-6.8125 c 2.60579,-4.03174 6.1693,-6.0625 10.6875,-6.0625 2.90759,0 5.34363,0.92787 7.28125,2.8125 1.93526,1.88226 2.90425,4.23616 2.90625,7.03125 -0.002,2.42713 -0.70234,5.24909 -2.09375,8.46875 -1.3914,3.22202 -3.19725,6.43659 -5.375,9.65625 -2.18011,3.2173 -4.55238,6.23734 -7.15625,9.09375 -3.544566,3.24993 -6.671421,6.14071 -9.869989,9.45023 -0.857946,0.88771 -1.721051,1.80555 -2.598761,2.76852 l 0,4.65625 L 65.75,241.3125 c 5.69509,-4.12777 9.69877,-8.34215 12.0625,-12.65625 2.36138,-4.31175 3.66371,-8.22842 3.90625,-11.75 0,-2.5545 -0.53496,-4.93846 -1.625,-7.125 -1.09004,-2.18889 -2.52855,-4.04466 -4.34375,-5.625 -1.81752,-1.57799 -3.98492,-2.83954 -6.46875,-3.75 -2.48616,-0.91283 -5.05368,-1.377 -7.71875,-1.375 z"
       id="rect3014"
       inkscape:connector-curvature="0"
       sodipodi:nodetypes="cccccccscccccsccccccccc" />
    <path
       style="fill:#000000"
       d="m 0.09375,150.625 0,109.65625 6.15625,-4.5625 c -0.34076,-1.9298 -0.66073,-3.9111 -0.90625,-5.9375 -0.0422,0.0272 -0.0829,0.0671 -0.125,0.0937 -0.47104,-2.71121 -0.74306,-7.15907 -0.84375,-13.1875 -0.009,-0.24622 -0.0231,-0.50287 -0.0312,-0.75 -0.29353,-8.88348 -0.047,-18.36205 0.4375,-28.125 -0.0396,0.0636 -0.0859,0.12326 -0.125,0.1875 l 1.25,-57.375 -5.8125,0 z"
       id="path2986"
       inkscape:connector-curvature="0" />
    <path
       inkscape:connector-curvature="0"
       id="10"
       style="fill:#000000;fill-opacity:1;fill-rule:evenodd;stroke:none;display:inline"
       d="m 105.70704,170.97984 5.81283,0 -1.25721,57.37598 c 3.63742,-5.96993 9.26898,-8.95607 16.9017,-8.95371 2.66507,-0.002 5.23835,0.45287 7.72451,1.3657 2.48383,0.91046 4.63332,2.15823 6.45084,3.73622 1.8152,1.58034 3.27018,3.46025 4.36022,5.64914 1.09004,2.18654 1.63625,4.55234 1.63625,7.10684 -0.24254,3.52158 -1.54679,7.44178 -3.90817,11.75353 -2.36373,4.3141 -6.39435,8.53622 -12.08944,12.66399 l -25.63153,18.95235 0,-109.65004 z m 16.9017,55.71308 c -5.08298,0 -8.96057,2.55214 -11.62093,7.65407 -0.71102,6.92521 -1.06652,12.87863 -1.06652,17.86026 0,8.62586 0.29665,14.63825 0.88758,18.03953 2.30253,-1.45769 4.75337,-3.61121 7.35491,-6.46763 2.60387,-2.85641 4.99115,-5.89445 7.17126,-9.11175 2.17775,-3.21966 3.96469,-6.43696 5.35609,-9.65898 1.39141,-3.21966 2.08592,-6.04541 2.08827,-8.47254 -0.002,-2.79509 -0.96997,-5.13494 -2.90523,-7.0172 -1.93762,-1.88463 -4.35784,-2.82576 -7.26543,-2.82576 z" 
	   />
  </g>
  <g
     inkscape:groupmode="layer"
     id="layer2"
     inkscape:label="Lager"
     style="display:inline" />
</svg>
