<?xml version="1.0" encoding="UTF-8" standalone="no"?>
<!-- Created with Inkscape (http://www.inkscape.org/) -->

<svg
   xmlns:dc="http://purl.org/dc/elements/1.1/"
   xmlns:cc="http://creativecommons.org/ns#"
   xmlns:rdf="http://www.w3.org/1999/02/22-rdf-syntax-ns#"
   xmlns:svg="http://www.w3.org/2000/svg"
   xmlns="http://www.w3.org/2000/svg"
   xmlns:sodipodi="http://sodipodi.sourceforge.net/DTD/sodipodi-0.dtd"
   xmlns:inkscape="http://www.inkscape.org/namespaces/inkscape"
   width="744.09448819"
   height="1052.3622047"
   id="svg2"
   version="1.1"
   inkscape:version="0.48.0 r9654"
   sodipodi:docname="opus.svg">
  <defs
     id="defs4" />
  <sodipodi:namedview
     id="base"
     pagecolor="#ffffff"
     bordercolor="#666666"
     borderopacity="1.0"
     inkscape:pageopacity="0.0"
     inkscape:pageshadow="2"
     inkscape:zoom="0.98994949"
     inkscape:cx="641.09451"
     inkscape:cy="755.88935"
     inkscape:document-units="px"
     inkscape:current-layer="layer1"
     showgrid="false"
     inkscape:window-width="1680"
     inkscape:window-height="1024"
     inkscape:window-x="1676"
     inkscape:window-y="-4"
     inkscape:window-maximized="1" />
  <metadata
     id="metadata7">
    <rdf:RDF>
      <cc:Work
         rdf:about="">
        <dc:format>image/svg+xml</dc:format>
        <dc:type
           rdf:resource="http://purl.org/dc/dcmitype/StillImage" />
        <dc:title></dc:title>
      </cc:Work>
    </rdf:RDF>
  </metadata>
  <g
     inkscape:label="Layer 1"
     inkscape:groupmode="layer"
     id="layer1"
     style="display:inline">
    <path
       inkscape:connector-curvature="0"
       id="2-9"
       style="fill:#000000;fill-opacity:1;fill-rule:evenodd;stroke:none"
       d="m 95.72971,266.7949 c -5.57504,2.79274 -12.48498,4.1891 -20.72511,4.1891 -9.69981,0 -18.99938,-1.66998 -27.91049,-5.00757 -8.90876,-3.33996 -16.75807,-7.86163 -23.54558,-13.56975 -6.78751,-5.70339 -12.24248,-12.38094 -16.36254,-20.03029 -4.12007,-7.64934 -6.1801,-15.78458 -6.1801,-24.40572 0,-29.26234 20.72746,-61.31506 62.18472,-96.1605 -1.3349,-5.34251 -2.33313,-10.74399 -2.99941,-16.209153 -0.66627,-5.460449 -1.00058,-11.107236 -1.00058,-16.938007 0,-8.010226 0.66392,-15.871864 1.99646,-23.582532 1.3302,-7.710668 3.23955,-14.935434 5.72336,-21.674325 2.48617,-6.738864 5.54208,-12.869193 9.17715,-18.393316 3.63272,-5.5265031 7.814,-10.1708424 12.53677,-13.9306366 16.47555,22.8253826 24.71097,44.6247216 24.71097,65.3862176 0,13.480109 -3.18069,26.321 -9.54442,38.522682 -6.36138,12.20404 -16.32959,24.07079 -29.90225,35.60967 l 7.99763,38.42834 c 4.36256,-0.35616 6.78751,-0.53307 7.2725,-0.53307 6.05767,0 11.72453,1.09209 16.99586,3.27863 5.27368,2.18418 9.88109,5.18919 13.82693,9.01269 3.94349,3.82349 7.07003,8.34517 9.37727,13.56502 2.30488,5.21986 3.4585,10.86193 3.46085,16.93329 -0.002,4.36836 -0.78869,8.68011 -2.36374,12.92581 -1.57504,4.25042 -3.814,8.28856 -6.72159,12.10969 -2.90994,3.82586 -6.36373,7.34272 -10.36137,10.55766 -3.99764,3.21965 -8.42141,5.98172 -13.26896,8.28856 0,-0.24294 0.18129,0.45523 0.54385,2.09218 0.36492,1.63932 0.8193,3.79048 1.36315,6.46291 0.5462,2.67008 1.18187,5.64443 1.90935,8.92306 0.72749,3.27626 1.36316,6.43224 1.90936,9.46556 0.5462,3.03568 1.02884,5.73878 1.45497,8.10222 0.42378,2.37052 0.63567,3.97681 0.63567,4.82595 0,5.70576 -1.21248,10.92561 -3.63508,15.65957 -2.42495,4.73396 -5.69746,8.80041 -9.81988,12.19933 -4.12006,3.39656 -8.90875,6.03833 -14.36136,7.9206 -5.45497,1.88226 -11.21364,2.82339 -17.27602,2.82339 -4.60506,0 -8.90641,-0.72885 -12.90875,-2.18654 -4,-1.45769 -7.515,-3.52157 -10.54502,-6.18929 -3.02765,-2.67244 -5.422,-5.91568 -7.18068,-9.73918 -1.75632,-3.82113 -2.63449,-8.03853 -2.63449,-12.64984 0,-3.27862 0.54621,-6.37563 1.63626,-9.2863 1.09005,-2.91066 2.60623,-5.39912 4.54384,-7.463 1.93996,-2.06389 4.3037,-3.7032 7.09122,-4.91323 2.78987,-1.21474 5.81989,-1.82329 9.09004,-1.82329 2.90994,0 5.63625,0.66988 8.18127,2.00492 2.54502,1.33503 4.72748,3.06634 6.54502,5.18919 1.81754,2.12521 3.27251,4.5547 4.36491,7.2861 1.09005,2.72905 1.63626,5.49111 1.63626,8.28384 0,6.31431 -2.33314,11.4752 -7.00176,15.48267 -4.66627,4.00512 -10.51205,6.37328 -17.54441,7.09976 5.57504,2.79509 11.329,4.19146 17.2666,4.1891 4.8452,0.002 9.57268,-0.87745 14.17773,-2.64177 4.6027,-1.75961 8.62859,-4.12777 12.08474,-7.10212 3.45379,-2.97436 6.24131,-6.43932 8.3602,-10.38547 2.11889,-3.94614 3.18069,-8.16354 3.18069,-12.65692 0,-1.70299 -0.18365,-3.58526 -0.54385,-5.64914 L 95.72971,266.7949 z M 95.18821,27.488123 c -1.21483,-0.243068 -2.30724,-0.365597 -3.27486,-0.365597 -3.75986,0 -7.24661,1.912917 -10.46026,5.738777 -3.21365,3.823478 -6.00352,8.80275 -8.36726,14.933079 -2.36374,6.132684 -4.21188,13.022518 -5.54914,20.671856 -1.33254,7.649365 -2.00117,15.298698 -2.00117,22.948042 0,3.158334 0.12478,6.194011 0.36492,9.10704 0.24485,2.91538 0.67333,5.70811 1.2831,8.37819 24.73216,-21.976242 37.09942,-41.768292 37.09942,-59.373819 0,-8.378205 -3.03237,-15.723276 -9.09475,-22.037568 z m 3.814,231.850857 c 5.94467,-4.37072 10.46026,-9.16837 13.55619,-14.39058 3.09123,-5.21986 4.63802,-10.86429 4.63802,-16.93801 0,-3.76216 -0.63802,-7.4347 -1.91171,-11.01996 -1.27134,-3.57818 -3.08887,-6.76718 -5.45497,-9.56227 -2.36609,-2.78801 -5.18657,-5.03588 -8.46143,-6.7318 -3.27486,-1.69828 -6.85108,-2.54506 -10.72865,-2.54506 -0.24249,0 -0.72749,0.0307 -1.45497,0.0873 -0.72513,0.0613 -1.75633,0.15097 -3.08887,0.2689 l 12.90639,60.83151 z M 81.56374,199.26225 c -3.75749,0.48354 -7.2725,1.42468 -10.545,2.82104 -3.27251,1.39637 -6.08828,3.12767 -8.45202,5.19155 -2.36374,2.06389 -4.24249,4.43205 -5.63625,7.10212 -1.39376,2.67244 -2.09064,5.58546 -2.09064,8.7438 0,9.34762 4.96527,17.11962 14.88874,23.31127 -8.24013,-1.33503 -14.84636,-4.52167 -19.81634,-9.56227 -4.96997,-5.03823 -7.45378,-11.38084 -7.45378,-19.03255 0,-4.49101 0.93937,-8.83106 2.81812,-13.02016 1.87875,-4.18909 4.39317,-7.95598 7.54325,-11.30065 3.15479,-3.34703 6.85108,-6.23647 11.09121,-8.66595 4.24249,-2.43421 8.72748,-4.13721 13.45261,-5.10664 l -7.63507,-36.42579 c -17.08768,12.86684 -30.02468,25.49546 -38.81101,37.88112 -8.78633,12.38567 -13.1795,24.64868 -13.1795,36.79139 0,6.67755 1.48322,12.99421 4.45438,18.94292 2.97115,5.95106 6.9735,11.14026 12.00469,15.5723 5.03119,4.4344 10.85107,7.92531 17.45966,10.47274 6.60623,2.55214 13.60563,3.82821 20.9982,3.82821 4.24249,0 8.18127,-0.39627 11.81634,-1.18408 3.63743,-0.79017 7.03001,-2.03558 10.1801,-3.73386 L 81.56374,199.26225 z" />
    <path
       inkscape:connector-curvature="0"
       id="3"
       style="fill:#000000;fill-opacity:1;fill-rule:evenodd;stroke:none"
       d="m 147.86618,327.44716 c 13.4526,-4.25043 23.68919,-9.53161 30.7192,-15.84356 6.66273,-5.9487 12.69215,-12.38094 18.08591,-19.30144 5.39139,-6.91814 9.9682,-14.02262 13.72334,-21.30637 3.7575,-7.28374 6.63684,-14.65711 8.63566,-22.12484 2.00117,-7.46536 2.9994,-14.77976 2.99705,-21.94321 0.002,-5.82841 -0.78399,-11.20159 -2.36139,-16.11717 -1.57504,-4.91794 -3.81635,-9.16364 -6.7263,-12.74655 -2.90758,-3.58054 -6.45319,-6.40393 -10.63447,-8.46782 -4.18128,-2.06152 -8.8758,-3.09464 -14.08827,-3.097 -3.63507,0.002 -7.30075,0.70054 -10.99704,2.0969 -3.69628,1.39637 -6.9994,3.27863 -9.90463,5.64679 -2.90995,2.37052 -5.27369,5.07362 -7.09122,8.10929 -1.81754,3.03568 -2.72631,6.13269 -2.72631,9.29102 0,1.94359 0.42378,2.91538 1.27134,2.91538 -0.12007,0 0.12242,-0.30663 0.72748,-0.91754 0.60742,-0.61091 1.45497,-1.28315 2.54502,-2.01907 1.09241,-0.73356 2.45556,-1.4058 4.09182,-2.01435 1.63625,-0.61563 3.36197,-0.9199 5.17951,-0.9199 1.93996,0 3.7881,0.42693 5.54443,1.27607 1.75632,0.84914 3.27015,2.00256 4.54619,3.46025 1.26898,1.46005 2.26957,3.13003 2.99941,5.00757 0.72749,1.88462 1.09005,3.85888 1.09005,5.92276 0,5.82841 -1.75632,10.65436 -5.27133,14.48021 -3.515,3.82349 -8.18127,5.73642 -13.9988,5.73878 -2.90994,-0.002 -5.51382,-0.70054 -7.81399,-2.09455 -2.30018,-1.39636 -4.26839,-3.27627 -5.90229,-5.64443 -1.6339,-2.36344 -2.90523,-5.1255 -3.81165,-8.28148 -0.90877,-3.15597 -1.36315,-6.49357 -1.36315,-10.01043 0,-5.34015 1.21247,-10.31706 3.63743,-14.93073 2.42024,-4.60894 5.69275,-8.61406 9.81046,-12.01298 4.12006,-3.39657 8.84519,-6.069 14.17538,-8.01023 5.33018,-1.94359 10.90051,-2.91539 16.71804,-2.91303 10.66037,-0.002 19.47496,1.63696 26.4414,4.91559 6.96644,3.27862 12.47791,7.52905 16.5344,12.7489 4.06121,5.21986 6.87934,10.98458 8.45202,17.29653 1.57504,6.31195 2.36139,12.5036 2.36139,18.57496 0,3.76453 -0.27075,7.37809 -0.81695,10.83598 -0.54621,3.46025 -1.51383,7.07146 -2.90759,10.83599 -1.39376,3.76452 -3.2419,7.8286 -5.54208,12.19932 -2.30252,4.36836 -5.21247,9.34763 -8.72747,14.93309 -4.36021,7.03843 -9.96349,13.532 -16.80986,19.48306 -6.84402,5.94871 -13.87403,11.07893 -21.08296,15.38597 -7.21129,4.31174 -14.05531,7.68 -20.53676,10.10949 -6.48145,2.42713 -11.59975,3.64187 -15.35724,3.63951 -3.63272,0.002 -5.57033,-1.394 -5.81518,-4.18673 z M 260.7324,204.15425 c -0.005,-2.55214 0.87817,-4.71037 2.63684,-6.47234 1.76103,-1.76197 3.91053,-2.64177 6.45791,-2.64413 2.54973,0.002 4.70159,0.88216 6.46262,2.64413 1.75632,1.76197 2.63919,3.9202 2.63919,6.47234 0,2.55214 -0.88287,4.70802 -2.63919,6.46998 -1.76103,1.76197 -3.91289,2.64413 -6.46262,2.64649 -2.54738,-0.002 -4.69688,-0.88452 -6.45791,-2.64649 -1.75867,-1.76196 -2.64154,-3.91784 -2.63684,-6.46998 z m 0,45.35356 c -0.005,-2.55214 0.87817,-4.71037 2.63684,-6.47234 1.76103,-1.75961 3.91053,-2.64413 6.45791,-2.64413 2.54973,0 4.70159,0.88452 6.46262,2.64413 1.75632,1.76197 2.63919,3.9202 2.63919,6.47234 0,2.55214 -0.88287,4.70802 -2.63919,6.47234 -1.76103,1.75961 -3.91289,2.64177 -6.46262,2.64177 -2.54738,0 -4.69688,-0.88216 -6.45791,-2.64177 -1.75867,-1.76432 -2.64154,-3.9202 -2.63684,-6.47234 z" />
    <path
       inkscape:connector-curvature="0"
       id="4"
       style="fill:#000000;fill-opacity:1;fill-rule:evenodd;stroke:none"
       d="m 372.53213,317.0499 c -4.36257,0 -8.5415,-0.6345 -12.53913,-1.90585 -4.00001,-1.27136 -7.48204,-3.08993 -10.4485,-5.45338 -2.96878,-2.3658 -5.33252,-5.18683 -7.08648,-8.46546 -1.75871,-3.27863 -2.63687,-6.98182 -2.63687,-11.10959 0,-1.82094 0.36495,-3.7032 1.09007,-5.64679 0.72512,-1.94123 1.72571,-3.7032 2.99705,-5.28118 1.27369,-1.57799 2.78751,-2.85406 4.54384,-3.8235 1.75632,-0.97179 3.60212,-1.45769 5.53971,-1.45769 2.06004,0 3.99766,0.42457 5.81518,1.27371 1.81755,0.8515 3.42083,2.00492 4.81224,3.46261 1.39376,1.45533 2.48382,3.12531 3.26779,5.00757 0.78871,1.88226 1.18188,3.85416 1.18188,5.91804 0,2.06625 -0.66628,3.88718 -1.99881,5.46517 -1.33256,1.57799 -2.81813,2.97435 -4.45439,4.1891 -1.63625,1.21474 -3.11947,2.27616 -4.45438,3.18663 -1.33254,0.91047 -1.99882,1.60865 -1.99882,2.09455 0,4.00747 4.66627,6.01003 13.9988,6.01003 3.99766,0 7.39023,-0.57553 10.17775,-1.72895 2.78752,-1.15341 5.05944,-3.12767 6.81576,-5.92039 1.75397,-2.79038 2.99705,-6.52424 3.72688,-11.20159 0.72515,-4.67027 1.08771,-10.59067 1.08771,-17.75412 0,-4.25042 -0.42378,-8.31686 -1.26898,-12.20168 -0.85226,-3.88718 -2.00352,-7.2861 -3.4538,-10.19913 -1.45496,-2.91538 -3.21128,-5.22222 -5.27367,-6.9205 -2.06004,-1.70064 -4.36022,-2.55214 -6.90522,-2.54978 -8.48027,-0.002 -17.20539,7.22241 -26.17065,21.67432 -0.60744,-4.73868 -1.45263,-9.04807 -2.54267,-12.93289 -1.09007,-3.88717 -2.36141,-7.22241 -3.81637,-10.01278 -1.45263,-2.78801 -3.08417,-4.96983 -4.90405,-6.54546 -1.81519,-1.57799 -3.7528,-2.36581 -5.81046,-2.36581 -1.21249,0 -2.36141,0.18164 -3.45145,0.54487 l 0,83.76068 -7.27955,0 0,-181.41661 7.27955,0 0,86.52511 c 0.48499,0.1203 0.90878,0.2123 1.27134,0.27361 0.36492,0.059 0.78635,0.0896 1.27133,0.0896 2.30018,0 4.44968,-0.84914 6.44849,-2.54978 1.99882,-1.70064 3.75279,-4.03814 5.26662,-7.01249 1.51382,-2.97435 2.81813,-6.46526 3.90581,-10.47274 1.09007,-4.00747 1.87639,-8.2579 2.36141,-12.75363 10.66271,12.87628 19.08885,19.31089 25.27129,19.31089 2.6651,0 5.09003,-0.75951 7.27014,-2.27617 2.18482,-1.51666 4.00234,-3.64187 5.45497,-6.37564 1.45496,-2.73376 2.57799,-5.98172 3.36196,-9.74625 0.79106,-3.76216 1.18424,-7.89229 1.18188,-12.3833 0.002,-7.2861 -0.39082,-13.23481 -1.18188,-17.85083 -0.78868,-4.61603 -2.18244,-8.22723 -4.18128,-10.83834 -1.99881,-2.60875 -4.66862,-4.37308 -7.99997,-5.28355 -3.33373,-0.91046 -7.54562,-1.3657 -12.63565,-1.3657 -7.99764,0 -11.99762,1.57799 -11.99762,4.73396 0,0.9718 1.33253,2.06625 3.99998,3.27863 4.48029,2.06388 7.5103,4.00747 9.08769,5.82841 1.5774,1.82093 2.36373,4.0688 2.36373,6.73888 0,1.82093 -0.39318,3.67253 -1.18186,5.55479 -0.78634,1.88227 -1.84815,3.58291 -3.18069,5.09957 -1.33256,1.51901 -2.84874,2.79273 -4.54384,3.82585 -1.69748,1.03076 -3.515,1.54732 -5.45497,1.54732 -4.60507,0 -8.4214,-1.60865 -11.45141,-4.82595 -3.03002,-3.2173 -4.5462,-7.13278 -4.5462,-11.74645 0,-6.43696 2.12124,-12.44699 6.36372,-18.03245 3.2725,-4.24571 7.15244,-6.97711 11.63741,-8.18713 4.48265,-1.21239 9.08769,-1.81622 13.81518,-1.81858 6.66508,0.002 12.69449,0.88216 18.08826,2.63941 5.39375,1.76197 9.99881,4.28109 13.81515,7.55971 3.82107,3.27863 6.75927,7.31205 8.81696,12.10734 2.06236,4.79765 3.09356,10.22979 3.09121,16.29879 0.002,5.70811 -0.87581,11.17092 -2.63449,16.39314 -1.75632,5.21985 -4.15066,9.83352 -7.18067,13.83863 -3.03002,4.00748 -6.57327,7.19412 -10.63213,9.56227 -4.05885,2.36581 -8.44966,3.54989 -13.17715,3.54989 -9.81281,0 -17.14652,-1.69829 -21.99173,-5.09957 l -0.90877,0 c -1.93759,0 -3.51029,1.27607 -4.72275,3.82585 -1.2125,2.54978 -1.81755,5.58546 -1.81755,9.1094 0,2.30683 0.15071,4.55234 0.4544,6.74123 0.30134,2.18418 0.78632,4.15844 1.4526,5.91805 0.66628,1.76196 1.42202,3.16068 2.26957,4.19145 0.8499,1.03312 1.8199,1.54968 2.90994,1.54968 3.14773,-3.03332 6.33078,-5.43214 9.53973,-7.18939 3.21128,-1.76197 6.81341,-2.63941 10.81104,-2.63941 5.45026,0 10.38727,1.2454 14.80869,3.73386 4.41906,2.48845 8.23542,5.88737 11.4467,10.1944 3.20896,4.3094 5.69276,9.28631 7.44908,14.92837 1.75635,5.64443 2.63451,11.56483 2.63451,17.75413 0,12.38094 -3.69629,21.81584 -11.08652,28.30941 -7.39021,6.49357 -17.8081,9.74153 -31.25362,9.74153 z m -62.89103,-182.30585 0,181.41661 -22.72156,0 0,-181.41661 22.72156,0 z" />
    <path
       inkscape:connector-curvature="0"
       id="5"
       style="fill:#000000;fill-opacity:1;fill-rule:evenodd;stroke:none"
       d="m 459.9646,191.60112 c -8.60976,5.34251 -12.91582,15.90724 -12.91582,31.69182 0,3.39893 0.33431,6.95116 1.00059,10.65437 0.66628,3.70319 1.57741,7.22477 2.72867,10.56236 1.15124,3.33996 2.51677,6.43461 4.09415,9.28866 1.57506,2.85406 3.27251,5.13023 5.09241,6.83087 l 0,-69.02808 z m 35.43257,55.3687 c -0.84758,2.91303 -2.24134,5.73642 -4.18128,8.46783 -1.93997,2.7314 -4.21189,5.16089 -6.81577,7.2861 -2.6086,2.12521 -5.42673,3.82349 -8.45439,5.09956 -3.03001,1.27371 -5.9988,1.91293 -8.90639,1.91293 l -0.72748,0 0,13.47539 -6.34726,0 0,-14.2066 c -4.96998,-0.84914 -9.45024,-2.54742 -13.4479,-5.09956 -3.99763,-2.54978 -7.41846,-5.76944 -10.26485,-9.65426 -2.84636,-3.88482 -5.05944,-8.25554 -6.63447,-13.11215 -1.57505,-4.85662 -2.36137,-10.01987 -2.36137,-15.48503 0,-5.34251 0.75573,-10.35009 2.27192,-15.02508 1.51382,-4.67735 3.69626,-8.83578 6.5403,-12.47765 2.84872,-3.64423 6.30016,-6.61859 10.35666,-8.92542 4.05885,-2.30683 8.56973,-3.76452 13.53971,-4.37072 l 0,-13.47303 6.34726,0 0,13.11687 c 3.7622,0 7.37137,0.42457 10.83223,1.27371 3.45851,0.8515 6.52382,2.06388 9.19127,3.64423 2.67216,1.57799 4.76517,3.42958 6.28368,5.55244 1.51385,2.12285 2.2743,4.52167 2.2743,7.19411 0,3.03568 -1.15127,5.64207 -3.4538,7.82861 -2.30253,2.18182 -4.97234,3.27626 -8.00235,3.27862 -3.27486,-0.002 -6.24365,-1.06614 -8.90874,-3.18899 -2.66745,-2.12286 -4.00001,-4.76227 -4.00001,-7.91824 0,-4.24807 2.24133,-8.43716 6.7263,-12.56493 -1.21482,-0.24294 -2.36844,-0.45523 -3.46322,-0.63686 -1.09475,-0.18399 -2.25072,-0.27361 -3.4679,-0.27361 -0.60741,0 -1.2784,0.0307 -2.00823,0.0896 -0.72748,0.0613 -1.39847,0.15333 -2.00353,0.27362 l 0,75.21973 c 1.21011,0.36324 2.60387,0.54722 4.18128,0.54722 7.99762,0 16.30133,-5.95106 24.90403,-17.84847 z" />
    <path
       inkscape:connector-curvature="0"
       id="6"
       style="fill:#000000;fill-opacity:1;fill-rule:evenodd;stroke:none"
       d="m 575.04859,246.5995 c -0.72748,2.79273 -2.06002,5.5548 -3.99999,8.2862 -1.93761,2.73377 -4.20953,5.16325 -6.81576,7.28846 -2.60622,2.12757 -5.45497,3.86123 -8.54383,5.19863 -3.09123,1.33976 -6.09063,2.00964 -8.99822,2.00964 -5.81753,0 -11.18069,-1.12276 -16.08945,-3.36826 -4.90876,-2.24551 -9.12065,-5.37318 -12.63329,-9.38065 -3.515,-4.00512 -6.24132,-8.68011 -8.18127,-14.02262 -1.93997,-5.34251 -2.90759,-11.10959 -2.90759,-17.3036 0,-5.94871 0.90875,-11.44454 2.7263,-16.48513 1.81754,-5.03824 4.42377,-9.37829 7.8187,-13.02252 3.39257,-3.64187 7.48675,-6.49593 12.27309,-8.55981 4.79104,-2.06389 10.09297,-3.09465 15.91051,-3.09465 3.87758,0 7.57385,0.42457 11.09123,1.27371 3.515,0.84678 6.5756,2.03086 9.17949,3.54988 2.60858,1.51666 4.69923,3.36826 6.27426,5.5548 1.57506,2.18418 2.36376,4.61366 2.36376,7.28138 0,3.15833 -1.15127,5.79539 -3.4538,7.9206 -2.30253,2.12521 -4.97234,3.18664 -8.00235,3.18664 -3.27486,0 -6.24365,-1.06143 -8.90874,-3.18664 -2.66745,-2.12521 -4.00001,-4.76227 -4.00001,-7.9206 0,-4.2457 2.24133,-8.4348 6.7263,-12.56257 -2.66509,-0.61327 -4.96763,-0.9199 -6.90522,-0.9199 -3.64213,0 -6.91702,0.8515 -9.82931,2.54978 -2.91228,1.70064 -5.3702,4.09947 -7.37372,7.19411 -2.00117,3.09701 -3.51736,6.73888 -4.54856,10.92797 -1.03119,4.1891 -1.54915,8.83343 -1.54915,13.93063 0,5.22222 0.57915,10.32178 1.73042,15.29869 1.15362,4.97927 2.75929,9.40896 4.82166,13.29377 2.06475,3.88482 4.52029,7.01249 7.37139,9.37829 2.85107,2.36816 6.03648,3.55225 9.55619,3.55225 7.87521,0 16.17419,-5.94871 24.89696,-17.84848 z" />
    <path
       inkscape:connector-curvature="0"
       id="7"
       style="fill:#000000;fill-opacity:1;fill-rule:evenodd;stroke:none"
       d="m 606.32813,250.57631 c -5.81753,-0.002 -10.66509,-1.36806 -14.54501,-4.0971 -3.87756,-2.73612 -5.81517,-6.6516 -5.81517,-11.74881 0,-4.12777 1.30194,-8.10458 3.90817,-11.92807 2.60387,-3.82585 5.90699,-7.19411 9.907,-10.1095 3.99998,-2.91302 8.45201,-5.24816 13.36077,-7.01013 4.90876,-1.7596 9.66448,-2.63941 14.2719,-2.63941 6.1801,0 11.17834,1.42467 14.99703,4.27637 3.81636,2.85406 5.72572,6.70821 5.72572,11.56483 0,4.00747 -1.30195,7.92295 -3.90817,11.7488 -2.60623,3.8235 -5.93761,7.19412 -9.99882,10.10714 -4.05885,2.91303 -8.54382,5.27883 -13.45258,7.10448 -4.90878,1.81858 -9.72573,2.72905 -14.45084,2.7314 z" />
    <path
       inkscape:connector-curvature="0"
       id="8"
       style="fill:#000000;fill-opacity:1;fill-rule:evenodd;stroke:none"
       d="m 662.83894,235.29885 c 0,-4.12777 1.15126,-8.19421 3.45377,-12.20168 2.30253,-4.00747 5.33255,-7.55735 9.09006,-10.65436 3.7575,-3.09701 7.96936,-5.58546 12.63565,-7.46772 4.66627,-1.88227 9.30428,-2.8234 13.90934,-2.8234 7.63741,0 13.69743,1.60865 18.18243,4.82831 4.48262,3.2173 6.72393,7.73898 6.72863,13.56739 -0.005,4.25042 -1.21482,8.25553 -3.63977,12.02006 -2.4226,3.76452 -5.57504,7.04315 -9.4526,9.83588 -3.87756,2.79037 -8.30134,5.00522 -13.27367,6.64689 -4.96763,1.63695 -10.06001,2.45779 -15.27249,2.46015 -6.18245,-0.002 -11.45615,-1.42939 -15.8187,-4.28109 -4.36254,-2.85641 -6.54265,-6.83322 -6.54265,-11.93043 z m 49.45723,-27.67727 c -1.93759,0 -4.39551,0.48589 -7.3643,1.45769 -2.97117,0.96944 -6.15186,2.2455 -9.54915,3.82113 -3.39257,1.57799 -6.75924,3.39893 -10.09297,5.46517 -3.33606,2.06388 -6.36843,4.18438 -9.09475,6.37091 -2.731,2.18182 -4.94173,4.39902 -6.63918,6.64453 -1.69512,2.24787 -2.54502,4.28109 -2.54738,6.10202 0.002,5.7034 3.45613,8.55746 10.36844,8.55746 3.27486,0 7.45849,-1.06143 12.55087,-3.18664 5.09241,-2.12285 10.0624,-4.73396 14.91464,-7.82861 4.84756,-3.097 9.03119,-6.34497 12.54619,-9.74153 3.51735,-3.40128 5.27603,-6.4346 5.27603,-9.10468 0,-5.7034 -3.45377,-8.55745 -10.36844,-8.55745 z" />
    <path
       inkscape:connector-curvature="0"
       id="9"
       style="fill:#000000;fill-opacity:1;fill-rule:evenodd;stroke:none"
       d="m 741.92769,226.9183 c 0,-3.64187 1.21011,-6.97946 3.63271,-10.01514 2.4226,-3.03568 5.66217,-5.64679 9.72335,-7.83569 4.0565,-2.18182 8.69218,-3.85179 13.89992,-5.00757 5.21012,-1.15106 10.54031,-1.72894 15.99057,-1.7313 5.09006,0.002 10.08827,0.64157 14.99232,1.91292 4.9064,1.27843 9.32782,3.00738 13.26661,5.19156 3.93643,2.18653 7.11712,4.76698 9.54208,7.74133 2.42025,2.97671 3.63271,6.22468 3.63271,9.74389 0,3.88718 -1.0312,7.34743 -3.08885,10.38311 -2.06004,3.03568 -4.99825,5.58546 -8.81461,7.64935 -3.81636,2.06388 -8.38843,3.67253 -13.71862,4.8283 -5.33019,1.15106 -11.26544,1.72895 -17.8081,1.73131 -5.81517,-0.002 -11.23482,-0.58025 -16.26603,-1.73131 -5.02647,-1.15577 -9.38902,-2.79508 -13.08296,-4.9203 -3.69629,-2.12521 -6.60152,-4.70565 -8.72041,-7.73897 -2.12124,-3.03568 -3.18069,-6.43696 -3.18069,-10.20149 z m 65.06405,9.28158 c 0,-4.00511 -1.39376,-8.80276 -4.18363,-14.38822 -1.33254,-2.67007 -2.75691,-5.00757 -4.27074,-7.01248 -1.51618,-2.00256 -3.18305,-3.61121 -5.00057,-4.82595 -1.81754,-1.21239 -3.90817,-2.12522 -6.27193,-2.73141 -2.36373,-0.60619 -5.06179,-0.91047 -8.09181,-0.91047 -11.63506,0 -17.45259,4.675 -17.45259,14.02498 0,3.51922 0.69689,6.88984 2.09065,10.10714 1.39376,3.2173 3.24189,6.10202 5.54443,8.6518 2.30253,2.54978 4.84756,4.583 7.63508,6.09966 2.78751,1.51902 5.63859,2.27853 8.54853,2.27853 2.6651,0 5.17951,-0.12266 7.54324,-0.3656 2.36376,-0.24296 4.485,-0.72885 6.36375,-1.45769 1.8811,-0.72649 3.48674,-1.8516 4.81694,-3.36826 1.33489,-1.51666 2.24367,-3.55224 2.72865,-6.10203 z" />
    <path
       inkscape:connector-curvature="0"
       id="10"
       style="fill:#000000;fill-opacity:1;fill-rule:evenodd;stroke:none"
       d="m 840.10293,150.61827 5.81283,0 -1.25721,57.37598 c 3.63742,-5.96993 9.26898,-8.95607 16.9017,-8.95371 2.66507,-0.002 5.23835,0.45287 7.72451,1.3657 2.48383,0.91046 4.63332,2.15823 6.45084,3.73622 1.8152,1.58034 3.27018,3.46025 4.36022,5.64914 1.09004,2.18654 1.63625,4.55234 1.63625,7.10684 -0.24254,3.52158 -1.54679,7.44178 -3.90817,11.75353 -2.36373,4.3141 -6.39435,8.53622 -12.08944,12.66399 l -25.63153,18.95235 0,-109.65004 z m 16.9017,55.71308 c -5.08298,0 -8.96057,2.55214 -11.62093,7.65407 -0.71102,6.92521 -1.06652,12.87863 -1.06652,17.86026 0,8.62586 0.29665,14.63825 0.88758,18.03953 2.30253,-1.45769 4.75337,-3.61121 7.35491,-6.46763 2.60387,-2.85641 4.99115,-5.89445 7.17126,-9.11175 2.17775,-3.21966 3.96469,-6.43696 5.35609,-9.65898 1.39141,-3.21966 2.08592,-6.04541 2.08827,-8.47254 -0.002,-2.79509 -0.96997,-5.13494 -2.90523,-7.0172 -1.93762,-1.88463 -4.35784,-2.82576 -7.26543,-2.82576 z" />
    <path
       inkscape:connector-curvature="0"
       id="11"
       style="fill:#000000;fill-opacity:1;fill-rule:evenodd;stroke:none"
       d="m 925.00453,208.16173 -17.48556,5.8284 0.0157,31.51021 17.46908,-5.82841 0,-31.5102 z m 4.52736,-43.89588 0.0131,26.0474 9.44083,-3.09464 0,16.5724 -9.4526,3.097 0,31.50785 9.4526,-3.09701 0,16.57476 -9.4526,3.09701 0,28.59482 -4.52736,0 0,-27.32111 -17.48556,5.82841 0,27.31875 -4.52736,0 0,-26.04268 -9.4526,3.09464 0,-16.57239 9.4526,-3.09701 -0.0131,-31.50785 -9.43847,3.09465 0,-16.5724 9.4526,-3.09701 0,-28.59482 4.52736,0 0.0157,27.32111 17.46908,-5.82841 0,-27.32347 4.52736,0 z" />
    <path
       inkscape:connector-curvature="0"
       id="12"
       style="fill:#000000;fill-opacity:1;fill-rule:evenodd;stroke:none"
       d="m 980.48414,289.03768 0,-36.43051 -27.82574,9.65191 0,-97.8116 4.525,0 0.0183,36.60977 27.80926,-9.83589 0,97.81632 -4.52736,0 z m -23.30074,-42.80378 23.30074,-8.38055 -0.0157,-30.60209 -23.28425,8.55981 0,30.42283 z" />
    <path
       inkscape:connector-curvature="0"
       id="13"
       style="fill:#000000;fill-opacity:1;fill-rule:evenodd;stroke:none"
       d="m 1003.9167,268.8069 c 0,-2.79273 0.9111,-4.49337 2.7263,-5.09956 2.5474,-0.72649 4.3061,-1.78792 5.2737,-3.18428 0.97,-1.39637 1.455,-3.97681 1.455,-7.74134 l 0,-37.50844 c 0,-4.25042 -0.4214,-6.8002 -1.2667,-7.64935 0,0 -0.5768,0.69819 -1.728,2.09455 -1.1513,1.39637 -2.425,2.91303 -3.8187,4.55234 -1.3938,1.63932 -2.6981,3.15833 -3.9082,4.5547 -1.2125,1.39636 -1.8788,2.09455 -2.0012,2.09455 -0.8475,0 -1.5138,-0.0613 -1.9988,-0.18399 8.8475,-17.11491 13.6951,-29.25055 14.5426,-36.414 1.2125,0.23823 2.7569,0.41514 4.6333,0.53308 1.8788,0.11795 4.0895,0.17689 6.6322,0.17689 5.5727,0 9.5703,-0.23587 11.9905,-0.70997 l 0,68.82287 c 0,3.76453 0.518,6.19401 1.5515,7.28374 1.0289,1.09209 2.1825,1.82094 3.4609,2.18654 1.276,0.3656 2.4603,0.8515 3.5527,1.45534 1.0924,0.60855 1.7021,2.18653 1.8222,4.73632 l -42.9193,0 z" />
    <path
       inkscape:connector-curvature="0"
       id="14"
       style="fill:#000000;fill-opacity:1;fill-rule:evenodd;stroke:none"
       d="m 1118.4474,238.94544 c -0.9676,21.00209 -7.8752,31.50549 -20.7227,31.50549 -1.8176,0 -4.2401,-0.51656 -7.2701,-1.54732 -3.0301,-1.03312 -6.1519,-2.18654 -9.3632,-3.46025 -3.2113,-1.27843 -6.2719,-2.46251 -9.1819,-3.5546 -2.9099,-1.09209 -5.0924,-1.63932 -6.5473,-1.63932 -1.94,0 -3.515,0.36325 -4.7275,1.09209 -1.2125,0.72885 -2.3049,1.51902 -3.2749,2.36816 -0.9676,0.84914 -1.8764,1.63932 -2.7263,2.37052 -0.8475,0.72885 -1.8787,1.09209 -3.0912,1.09209 -0.8476,0 -1.5138,-0.24294 -1.9988,-0.72885 0.485,-4.13012 1.4856,-7.37809 2.997,-9.74624 1.5162,-2.36816 3.1195,-4.82596 4.8146,-7.37574 3.0277,-4.73868 7.6916,-9.3547 13.9894,-13.84807 4.8452,-3.39892 8.6592,-6.22232 11.4444,-8.46782 2.7851,-2.24787 4.904,-4.28345 6.3566,-6.10438 1.455,-1.82094 2.3638,-3.64187 2.7287,-5.46281 0.3602,-1.82094 0.5415,-4.00747 0.5438,-6.55725 0,-5.10193 -1.3937,-9.29338 -4.1765,-12.57201 -2.7828,-3.27863 -6.5968,-4.91794 -11.4397,-4.91794 -6.0576,0 -10.0553,1.51902 -11.9929,4.5547 2.1801,1.69828 4.3296,3.51922 6.4508,5.46281 2.1213,1.94358 3.1807,4.37071 3.1807,7.2861 0,1.57798 -0.3625,3.03567 -1.09,4.37071 -0.7275,1.33504 -1.6951,2.51912 -2.91,3.54988 -1.2124,1.03312 -2.6085,1.8233 -4.1836,2.36816 -1.5774,0.54723 -3.1524,0.82084 -4.7298,0.82084 -7.3973,0 -11.096,-3.7032 -11.0936,-11.10959 0,-8.37819 3.0277,-14.74911 9.0877,-19.11511 6.06,-4.36364 14.3025,-6.54546 24.7251,-6.54782 6.545,0.002 11.9081,0.91283 16.0894,2.7314 4.1813,1.8233 7.4844,4.0405 9.9094,6.64689 2.4226,2.61111 4.0894,5.37317 4.9982,8.28856 0.9088,2.91302 1.3632,5.40148 1.3632,7.46536 0,6.07136 -1.9989,10.80768 -5.9989,14.2066 -1.2101,1.09445 -3.6633,2.51912 -7.3596,4.28109 -3.6962,1.75961 -7.7268,3.67253 -12.0871,5.73642 -4.3625,2.06388 -8.6027,4.12541 -12.7227,6.18929 -4.1201,2.06389 -7.2702,4.00747 -9.4526,5.82841 l 0,0.18163 c 0.8522,-0.1203 1.6739,-0.21229 2.4626,-0.27125 0.7911,-0.0613 1.6127,-0.092 2.4626,-0.092 1.8175,0 4.2425,0.3939 7.2702,1.18408 3.0323,0.79017 6.1212,1.63931 9.2736,2.54978 3.1501,0.91047 6.0601,1.7596 8.7252,2.54978 2.6674,0.79017 4.5462,1.18408 5.6339,1.18408 3.2748,0 5.6385,-0.9718 7.0912,-2.91539 0.2425,-0.24293 0.6663,-1.30437 1.2737,-3.18663 0.605,-1.88227 2.3637,-4.09711 5.2689,-6.64453 z" />
    <path
       inkscape:connector-curvature="0"
       id="15"
       style="fill:#000000;fill-opacity:1;fill-rule:evenodd;stroke:none"
       d="m 1190.0612,244.60402 c 0,8.38055 -2.8487,14.63589 -8.5415,18.76366 -5.6974,4.12777 -13.6315,6.19401 -23.8069,6.19401 -4.3649,0 -8.4214,-0.42693 -12.1789,-1.27607 -3.7528,-0.84914 -7.0253,-2.06388 -9.8128,-3.64423 -2.7875,-1.58035 -4.97,-3.5546 -6.5427,-5.92276 -1.575,-2.37052 -2.3637,-5.00993 -2.3637,-7.92531 0,-3.15834 1.1819,-5.7718 3.5456,-7.83569 2.3638,-2.06624 5.1206,-3.09936 8.2684,-3.09936 3.03,0 5.6362,0.91047 7.8164,2.73376 2.1824,1.82093 3.2725,4.19145 3.2725,7.10684 0,4.37308 -1.7564,8.1376 -5.2714,11.29593 2.425,2.06388 6.0577,3.09701 10.9029,3.09701 4.4803,0 7.9058,-1.57799 10.2648,-4.73632 2.3638,-3.15833 3.5433,-6.98419 3.5433,-11.4752 0,-5.22457 -0.937,-9.14242 -2.8134,-11.75352 -1.8717,-2.61111 -4.7487,-4.34006 -8.6263,-5.1892 -3.6374,-0.24294 -6.7262,-0.60855 -9.2713,-1.09445 -2.545,-0.48825 -3.8187,-1.15577 -3.8187,-2.00491 0,-1.57799 0.1225,-2.76207 0.3649,-3.55224 0.2426,-0.79017 0.6357,-1.33504 1.1819,-1.63932 0.5438,-0.30427 1.3019,-0.45523 2.2719,-0.45523 0.97,0 2.2413,-0.12031 3.8164,-0.36324 5.6975,-0.4859 9.8481,-1.8516 12.4543,-4.09947 2.6039,-2.24786 3.9082,-6.22703 3.9082,-11.93279 0,-11.17328 -5.3984,-16.75874 -16.1977,-16.76109 -4,0.002 -6.8464,0.8515 -8.5439,2.54978 1.5751,1.82329 3.0607,3.70555 4.4544,5.64678 1.3938,1.94359 2.0906,4.31175 2.0906,7.10448 0,2.79273 -1.0923,5.03824 -3.2725,6.73888 -2.1824,1.69828 -4.7886,2.54978 -7.8163,2.54978 -3.2725,0 -6.0294,-1.06378 -8.2731,-3.18664 -2.2413,-2.12521 -3.362,-4.88727 -3.362,-8.28855 0,-6.07136 2.7569,-10.744 8.2708,-14.02027 5.5138,-3.28098 12.6309,-4.9203 21.3584,-4.91794 9.5727,-0.002 17.1489,1.93887 22.7239,5.82841 5.5727,3.88482 8.3579,9.53397 8.3626,16.94272 0,4.25042 -1.3656,8.22723 -4.0895,11.93279 -2.7216,3.7032 -6.2036,6.34497 -10.4391,7.92532 l 0.1813,0.1816 c 4.7205,0.9718 8.5674,3.12532 11.5362,6.46763 2.9665,3.33995 4.4521,7.37573 4.4521,12.11441 z" />
    <path
       inkscape:connector-curvature="0"
       id="16"
       style="fill:#000000;fill-opacity:1;fill-rule:evenodd;stroke:none"
       d="m 1256.2342,249.68472 0,4.72924 c -0.1201,0.96943 -0.1766,1.72423 -0.1766,2.27145 0,0.54251 0,0.93877 0,1.18172 0,2.30212 0.6356,3.81642 1.9093,4.54526 1.2713,0.72649 4.0895,1.27136 8.452,1.63696 l 0.7275,5.29062 -44.7227,0 0.3602,-5.11372 c 5.6975,-0.3656 9.0901,-1.57562 10.1801,-3.63479 0.3649,-0.84914 0.5462,-4.48394 0.5462,-10.90674 l -37.0853,0 0,-7.28139 c 2.7875,-3.52157 5.4832,-7.70831 8.0895,-12.56256 2.6062,-4.85662 4.9723,-9.89486 7.0936,-15.11471 2.1188,-5.2175 3.8775,-10.46567 5.2713,-15.74921 1.3937,-5.27883 2.2695,-10.16375 2.6321,-14.65476 l 31.0865,0 c -1.8175,8.37583 -8.2378,18.08435 -19.2678,29.13025 -12.2401,12.2583 -19.6962,21.78754 -22.3613,28.58539 l 24.5414,0 0,-20.7615 22.7239,-20.21663 0,40.97813 11.4515,0 0,7.64699 -11.4515,0 z" />
    <path
       inkscape:connector-curvature="0"
       id="17"
       style="fill:#000000;fill-opacity:1;fill-rule:evenodd;stroke:none"
       d="m 1273.2795,248.40865 c 0,-3.64187 1.1795,-6.83323 3.5409,-9.56463 2.3637,-2.73141 5.2995,-4.09711 8.8122,-4.09711 8.6003,0 12.8993,3.95087 12.8993,11.84788 0,1.46005 -0.3343,2.91538 -1.0006,4.37543 -0.6662,1.45769 -1.3937,2.82575 -2.18,4.10418 -0.7887,1.27371 -1.5468,2.3658 -2.272,3.28099 -0.7275,0.91047 -1.0924,1.48835 -1.0924,1.7313 1.94,2.55214 5.0901,3.82821 9.455,3.82821 10.1918,0 15.2866,-7.83804 15.2866,-23.50941 0,-6.19873 -1.2714,-11.20866 -3.8187,-15.03687 -2.545,-3.82585 -6.1801,-5.74113 -10.9052,-5.74113 -4.6075,0 -9.5751,1.57798 -14.9076,4.73396 -0.7275,0.3656 -1.1513,0.69818 -1.2737,1.00246 -0.1201,0.30427 -0.3932,0.54722 -0.817,0.72884 -0.4237,0.18161 -1.1512,0.36324 -2.1824,0.54487 -1.0289,0.18399 -2.6957,0.45523 -4.9982,0.82083 0.3625,-4.85661 0.8169,-10.92797 1.3631,-18.21407 0.5462,-7.28374 1.1207,-15.84356 1.7281,-25.67944 7.8775,1.95774 18.5426,2.93662 31.9929,2.93426 8.2448,0.002 16.492,-0.72413 24.7392,-2.17711 -1.455,12.98478 -12.9111,19.47363 -34.3755,19.47363 -0.605,0 -1.6056,-0.059 -2.9994,-0.18398 -1.3937,-0.12031 -2.8793,-0.2453 -4.4567,-0.36796 -1.5751,-0.12502 -3.063,-0.25003 -4.4567,-0.37268 -1.3962,-0.12502 -2.4556,-0.18399 -3.1831,-0.18399 -0.2425,0 -0.4238,0.54486 -0.5462,1.63931 -0.1201,1.09445 -0.2731,2.39882 -0.4544,3.91784 -0.1813,1.51902 -0.3013,3.15833 -0.3625,4.9203 -0.061,1.75961 -0.092,3.30929 -0.092,4.64905 6.9099,-3.1489 13.8811,-4.72217 20.9158,-4.72217 4.4873,0 8.7321,0.63686 12.7345,1.91057 4,1.27607 7.5173,3.097 10.5474,5.46516 3.0323,2.36816 5.3984,5.2175 7.0959,8.55746 1.6975,3.33759 2.5474,7.07145 2.545,11.20158 0,4.24571 -0.9064,8.13053 -2.7287,11.6521 -1.8175,3.52158 -4.3342,6.49593 -7.5456,8.92306 -3.2136,2.42948 -6.9711,4.31175 -11.2725,5.64443 -4.306,1.33739 -9.0052,2.00491 -14.0953,2.00491 -4.97,0 -9.3937,-0.57789 -13.276,-1.7313 -3.8776,-1.15342 -7.183,-2.64413 -9.9094,-4.46507 -2.7286,-1.82093 -4.8193,-3.94614 -6.2742,-6.37563 -1.455,-2.42949 -2.1801,-4.91794 -2.1801,-7.47008 z" />
    <path
       inkscape:connector-curvature="0"
       id="18"
       style="fill:#000000;fill-opacity:1;fill-rule:evenodd;stroke:none"
       d="m 1414.148,240.5824 c 0,4.60894 -0.817,8.70369 -2.4532,12.28188 -1.6363,3.58054 -3.8776,6.61386 -6.7263,9.09996 -2.8487,2.48609 -6.2719,4.36836 -10.2719,5.64442 -4,1.27372 -8.3626,1.90821 -13.0877,1.90821 -11.3926,0 -20.1789,-3.76452 -26.3613,-11.28885 -6.1801,-7.53141 -9.269,-17.9098 -9.269,-31.14225 0,-6.06664 0.8475,-11.74173 2.5474,-17.02291 1.6951,-5.28119 4.0918,-9.89721 7.1877,-13.83864 3.0936,-3.94615 6.7922,-7.04316 11.0959,-9.28866 4.3061,-2.24786 9.0642,-3.37062 14.2766,-3.37062 4.1201,0 8.0283,0.42457 11.7222,1.27843 3.6987,0.84914 6.91,2.03322 9.6339,3.54988 2.731,1.51902 4.8805,3.34232 6.4579,5.46753 1.5751,2.12756 2.3614,4.52403 2.3614,7.19882 0,3.52158 -1.2101,6.43696 -3.6351,8.74615 -2.4226,2.3092 -5.4526,3.46261 -9.09,3.46497 -3.5127,-0.002 -6.5144,-1.18644 -8.9982,-3.55224 -2.4838,-2.37052 -3.7269,-5.3142 -3.7269,-8.83342 0,-0.9718 0.3343,-2.3375 1.0006,-4.09711 0.6662,-1.76196 1.0005,-3.06634 0.9982,-3.91548 0,-2.91538 -2.1189,-4.37308 -6.3637,-4.37308 -2.0577,0 -3.9365,0.73121 -5.6339,2.1889 -1.6951,1.45769 -3.1195,3.39892 -4.2708,5.82841 -1.1512,2.43184 -2.06,5.19391 -2.7286,8.2862 -0.6639,3.09936 -0.9983,6.286 -1.0006,9.56463 0,0.4859 0,1.51902 0,3.09701 0,1.57798 0.061,3.70319 0.1789,6.37327 7.3879,-3.63716 14.5968,-5.45573 21.6245,-5.45573 7.3878,0 13.3254,1.96953 17.8081,5.91332 4.4826,3.94143 6.7239,9.37121 6.7239,16.287 z m -31.6256,-14.19717 c -9.2125,0 -13.8223,6.12797 -13.8223,18.38626 0,12.37623 4.1248,18.56553 12.3673,18.56317 7.8823,0.002 11.8211,-6.18694 11.8211,-18.56317 0,-12.25829 -3.4538,-18.38626 -10.3661,-18.38626 z" />
    <path
       inkscape:connector-curvature="0"
       id="19"
       style="fill:#000000;fill-opacity:1;fill-rule:evenodd;stroke:none"
       d="m 1488.182,187.58893 c 0,5.9487 -4.6662,19.11982 -13.9964,39.511 -8.3626,18.08906 -12.5439,32.10696 -12.5439,42.06078 l 0,0.72412 c -2.7875,-0.36324 -7.9434,-0.54486 -15.4632,-0.54486 -2.5473,0 -4.8193,0.0944 -6.8228,0.27833 -1.9988,0.1887 -3.7881,0.4057 -5.3655,0.65572 1.0924,-13.83863 9.8858,-28.89201 26.3779,-45.1625 5.9399,-5.9487 10.1212,-11.41151 12.5438,-16.39078 -5.575,2.79509 -10.9099,4.19146 -16,4.19146 -1.5774,0 -3.668,-0.39391 -6.2766,-1.18173 -2.6062,-0.79253 -5.2431,-1.67233 -7.9129,-2.64413 -2.6698,-0.97179 -5.0947,-1.88226 -7.2772,-2.7314 -2.1801,-0.8515 -3.6963,-1.39636 -4.5438,-1.63931 -1.3326,0.60619 -2.5145,2.15351 -3.5457,4.64668 -1.0312,2.48846 -1.9705,4.94625 -2.8181,7.37574 -2.3025,-1.57799 -3.6963,-3.52158 -4.1812,-5.82841 l 0,-7.6517 c 0,-0.84915 0.028,-2.00256 0.092,-3.46025 0.059,-1.4577 0.087,-3.2173 0.092,-5.28355 l 0,-8.74615 c 5.4526,2.42949 8.4214,3.64187 8.9064,3.64187 0.2425,0 1.0311,-0.33258 2.3637,-1.0001 1.3325,-0.66752 2.9099,-1.42703 4.7275,-2.27617 1.8199,-0.8515 3.7269,-1.60865 5.7304,-2.27852 2.0012,-0.66752 3.7293,-1.00011 5.1842,-1.00011 1.9376,0 4.1837,0.69819 6.731,2.09455 2.5474,1.39401 5.0642,2.972 7.548,4.7316 2.4861,1.76197 4.7887,3.33996 6.9076,4.73632 2.1212,1.39637 3.7881,2.09455 5.0005,2.09455 4.9677,0 8.3626,-3.27862 10.1801,-9.83352 l 1.8176,0 c 1.6974,0 2.545,0.30427 2.545,0.91047 z" />
    <path
       inkscape:connector-curvature="0"
       id="20"
       style="fill:#000000;fill-opacity:1;fill-rule:evenodd;stroke:none"
       d="m 1557.9948,243.50957 c 0,3.88482 -0.8782,7.4064 -2.6392,10.56473 -1.7564,3.15598 -4.1507,5.8921 -7.1807,8.19893 -3.03,2.30919 -6.5168,4.09946 -10.4556,5.37553 -3.9411,1.27372 -8.0918,1.91293 -12.4543,1.91293 -4.7299,0 -9.0924,-0.54723 -13.0924,-1.63932 -3.9977,-1.09444 -7.4844,-2.64176 -10.4556,-4.64432 -2.9711,-2.00728 -5.2736,-4.49809 -6.9099,-7.47244 -1.6363,-2.97671 -2.4532,-6.28365 -2.4532,-9.93023 0,-4.49337 1.269,-8.47254 3.8116,-11.93279 2.5427,-3.46497 5.9941,-5.80247 10.3544,-7.01485 -7.9953,-4.12777 -11.993,-10.93033 -11.993,-20.40533 0,-3.64423 0.7275,-6.86153 2.1825,-9.65662 1.4526,-2.79273 3.5126,-5.19391 6.1824,-7.19647 2.6675,-2.00727 5.8199,-3.52393 9.4574,-4.5547 3.6374,-1.03312 7.5785,-1.54968 11.8234,-1.54968 9.4573,0 17.1253,1.75961 23.0017,5.28354 5.8811,3.52158 8.8193,8.56453 8.824,15.12179 -0.01,8.1376 -3.8234,15.00149 -11.4632,20.58931 8.9723,4.00983 13.4597,10.3265 13.4597,18.94999 z m -14.5592,-40.99463 c 0,-4.49337 -1.6056,-7.86163 -4.8193,-10.11186 -3.2113,-2.24314 -7.7292,-3.3659 -13.5491,-3.36825 -10.0624,0.002 -15.0959,3.52393 -15.0959,10.56237 0,8.1376 7.8187,14.4519 23.4608,18.94291 6.6698,-3.27626 10.0035,-8.37583 10.0035,-15.30104 l 0,-0.72413 z m -2.173,48.99779 c 0,-2.18654 -0.7887,-4.21976 -2.3661,-6.10202 -1.5751,-1.88227 -3.668,-3.64187 -6.2743,-5.28119 -2.6062,-1.63931 -5.5444,-3.24796 -8.8193,-4.82595 -3.2725,-1.58035 -6.6062,-3.09701 -10.0011,-4.5547 -6.5474,3.52158 -9.8223,8.68247 -9.8223,15.48032 0,5.09956 1.94,9.13769 5.8199,12.11205 3.8776,2.97435 8.6686,4.4627 14.3661,4.4627 4.6098,0 8.6098,-1.00245 12.0047,-3.00501 3.3949,-2.00256 5.0924,-4.76463 5.0924,-8.2862 z" />
    <path
       inkscape:connector-curvature="0"
       id="21"
       style="fill:#000000;fill-opacity:1;fill-rule:evenodd;stroke:none"
       d="m 1564.3396,211.79652 c 0,-9.34527 3.1195,-16.47569 9.3608,-21.39128 6.2414,-4.91558 14.6345,-7.37101 25.1748,-7.37337 10.9076,0.002 19.2702,3.9485 25.0877,11.8408 5.8175,7.89229 8.7251,18.45466 8.7251,31.68947 0,6.07135 -0.9088,11.74881 -2.7287,17.03235 -1.8175,5.28118 -4.3037,9.86419 -7.4561,13.75136 -3.1524,3.88482 -6.9712,6.98183 -11.4538,9.28866 -4.4873,2.30684 -9.3349,3.46025 -14.5473,3.46025 -3.6351,0 -7.1807,-0.45523 -10.6345,-1.3657 -3.4538,-0.91047 -6.4838,-2.12521 -9.0901,-3.64423 -2.6038,-1.51902 -4.7251,-3.37062 -6.3613,-5.55716 -1.6363,-2.18417 -2.4532,-4.55233 -2.4532,-7.10212 0,-3.40364 1.0594,-6.31666 3.1807,-8.74615 2.1212,-2.42713 4.8781,-3.64187 8.2707,-3.64187 3.635,0 6.5756,1.24305 8.8169,3.7315 2.2413,2.4861 3.362,5.55244 3.362,9.19431 0,0.9718 -0.3014,2.3375 -0.9088,4.09947 -0.605,1.75961 -0.9087,3.06398 -0.9087,3.91312 0,2.67008 2.0011,4.00512 5.9988,4.00512 9.6998,0 14.5473,-10.68974 14.545,-32.06687 l 0,-3.64423 c -7.5127,3.88718 -14.6604,5.83077 -21.4456,5.83077 -7.2677,0 -13.1771,-2.06388 -17.7186,-6.18929 -4.5438,-4.13013 -6.8158,-9.83353 -6.8158,-17.11491 z m 34.166,-22.40553 c -4.4873,0 -8.0047,1.88226 -10.5521,5.64679 -2.5474,3.76217 -3.821,8.61642 -3.821,14.56748 0,5.09721 1.0005,9.37594 3.0041,12.83618 1.9988,3.46025 5.0618,5.19156 9.1842,5.1892 9.0971,0.002 13.6456,-6.00767 13.6456,-18.02538 0,-5.82841 -1.0006,-10.652 -3.0041,-14.47785 -1.9988,-3.82349 -4.8193,-5.73642 -8.4567,-5.73642 z" />
    <path
       inkscape:connector-curvature="0"
       id="22"
       style="fill:#000000;fill-opacity:1;fill-rule:evenodd;stroke:none"
       d="m 1712.137,227.08341 c 0,5.46517 -0.9394,10.74635 -2.8182,15.84592 -1.8764,5.09956 -4.4496,9.61888 -7.7221,13.56502 -3.2726,3.94615 -7.1219,7.10448 -11.5409,9.47264 -4.4238,2.3658 -9.1795,3.54988 -14.2696,3.54988 -4.9652,0 -9.6315,-1.21238 -13.9917,-3.64187 -4.3626,-2.42948 -8.2095,-5.61612 -11.5409,-9.56227 -3.3314,-3.94614 -5.9659,-8.46546 -7.9058,-13.56502 -1.94,-5.09957 -2.9076,-10.32178 -2.9076,-15.6643 0,-5.34251 0.9676,-10.59303 2.9076,-15.75392 1.9399,-5.15853 4.5744,-9.7722 7.9058,-13.83864 3.3314,-4.0688 7.1783,-7.34742 11.5409,-9.83588 4.3602,-2.48845 9.0265,-3.73386 13.9917,-3.73386 4.8476,0 9.4809,1.18408 13.9047,3.55224 4.4214,2.36816 8.2989,5.5548 11.6327,9.56227 3.3313,4.00747 5.9682,8.62114 7.9058,13.83864 1.9376,5.22221 2.9076,10.62369 2.9076,16.20915 z m -22.9005,2.36817 c 0,-26.46962 -4.485,-39.70442 -13.4456,-39.70442 -9.2054,0 -13.8057,12.50596 -13.8057,37.51788 0,24.28543 4.6003,36.42578 13.8057,36.42578 8.9606,0 13.4432,-11.41151 13.4456,-34.23924 z" />
  </g>
  <g
     inkscape:groupmode="layer"
     id="layer2"
     inkscape:label="Lager"
     style="display:inline" />
</svg>
