<?xml version="1.0" encoding="UTF-8" standalone="no"?>
<!-- Created with Inkscape (http://www.inkscape.org/) -->

<svg
   xmlns:dc="http://purl.org/dc/elements/1.1/"
   xmlns:cc="http://creativecommons.org/ns#"
   xmlns:rdf="http://www.w3.org/1999/02/22-rdf-syntax-ns#"
   xmlns:svg="http://www.w3.org/2000/svg"
   xmlns="http://www.w3.org/2000/svg"
   xmlns:sodipodi="http://sodipodi.sourceforge.net/DTD/sodipodi-0.dtd"
   xmlns:inkscape="http://www.inkscape.org/namespaces/inkscape"
   width="744.09448819"
   height="1052.3622047"
   id="svg2"
   version="1.1"
   inkscape:version="0.48.0 r9654"
   sodipodi:docname="signFlat2.svg">
  <defs
     id="defs4" />
  <sodipodi:namedview
     id="base"
     pagecolor="#ffffff"
     bordercolor="#666666"
     borderopacity="1.0"
     inkscape:pageopacity="0.0"
     inkscape:pageshadow="2"
     inkscape:zoom="3.959798"
     inkscape:cx="177.35062"
     inkscape:cy="837.54732"
     inkscape:document-units="px"
     inkscape:current-layer="layer1"
     showgrid="false"
     inkscape:window-width="1680"
     inkscape:window-height="1024"
     inkscape:window-x="1676"
     inkscape:window-y="-4"
     inkscape:window-maximized="1" />
  <metadata
     id="metadata7">
    <rdf:RDF>
      <cc:Work
         rdf:about="">
        <dc:format>image/svg+xml</dc:format>
        <dc:type
           rdf:resource="http://purl.org/dc/dcmitype/StillImage" />
        <dc:title></dc:title>
      </cc:Work>
    </rdf:RDF>
  </metadata>
  <g
     inkscape:label="Layer 1"
     inkscape:groupmode="layer"
     id="layer1"
     style="display:inline">
    <path
       inkscape:connector-curvature="0"
       id="10-1"
       style="fill:#000000;fill-opacity:1;fill-rule:evenodd;stroke:none;display:inline"
       d="m 0.119631,150.69109 5.81283,0 -1.25721,57.37598 c 3.63742,-5.96993 9.26898,-8.95607 16.901689,-8.95371 2.66507,-0.002 5.23835,0.45287 7.72451,1.3657 2.48383,0.91046 4.63332,2.15823 6.45084,3.73622 1.8152,1.58034 3.27018,3.46025 4.36022,5.64914 1.09004,2.18654 1.63625,4.55234 1.63625,7.10684 -0.24254,3.52158 -1.54679,7.44178 -3.90817,11.75353 -2.36373,4.3141 -6.39435,8.53622 -12.08944,12.66399 l -25.631519,18.95235 0,-109.65004 z m 16.901689,55.71308 c -5.082969,0 -8.960559,2.55214 -11.620919,7.65407 -0.71102,6.92521 -1.06652,12.87863 -1.06652,17.86026 0,8.62586 0.29665,14.63825 0.88758,18.03953 2.30253,-1.45769 4.75337,-3.61121 7.35491,-6.46763 2.603867,-2.85641 4.991139,-5.89445 7.171249,-9.11175 2.17775,-3.21966 3.96469,-6.43696 5.35609,-9.65898 1.39141,-3.21966 2.08592,-6.04541 2.08827,-8.47254 -0.002,-2.79509 -0.96997,-5.13494 -2.90523,-7.0172 -1.93762,-1.88463 -4.35784,-2.82576 -7.26543,-2.82576 z" />
  </g>
  <g
     inkscape:groupmode="layer"
     id="layer2"
     inkscape:label="Lager"
     style="display:inline" />
</svg>
