<?xml version="1.0" encoding="UTF-8"?>
<!DOCTYPE svg PUBLIC "-//W3C//DTD SVG 1.1//EN" "http://www.w3.org/Graphics/SVG/1.1/DTD/svg11.dtd"><svg version="1.1" viewBox="0 0 21000 29700" preserveAspectRatio="xMidYMid" fill-rule="evenodd" xmlns="http://www.w3.org/2000/svg" xmlns:xlink="http://www.w3.org/1999/xlink"><g visibility="visible" id="Default"><desc>Master slide</desc><g style="stroke:none;fill:none"><rect x="0" y="0" width="21000" height="29700"/></g></g><g visibility="visible" id="page1"><desc>Slide</desc><g><desc>Drawing</desc><g><g style="stroke:none;fill:rgb(0,0,0)"><path d="M 66,250 L 66,255 C 66,256 66,256 66,257 66,257 66,258 66,258 66,260 67,262 68,262 69,263 72,264 76,264 L 77,269 32,269 32,264 C 38,264 41,262 42,261 43,260 43,256 43,250 L 6,250 6,243 C 8,239 11,235 14,230 16,225 19,220 21,215 23,209 25,204 26,199 28,193 29,189 29,184 L 60,184 C 58,192 52,202 41,213 28,226 21,235 18,242 L 43,242 43,221 66,201 66,242 78,242 78,250 66,250 Z"/></g><g style="stroke:none;fill:none"><rect x="5" y="184" width="74" height="86"/></g><g/></g></g></g></svg>