<?xml version="1.0" encoding="UTF-8"?>
<!DOCTYPE svg PUBLIC "-//W3C//DTD SVG 1.1//EN" "http://www.w3.org/Graphics/SVG/1.1/DTD/svg11.dtd"><svg version="1.1" viewBox="0 0 21000 29700" preserveAspectRatio="xMidYMid" fill-rule="evenodd" xmlns="http://www.w3.org/2000/svg" xmlns:xlink="http://www.w3.org/1999/xlink"><g visibility="visible" id="Default"><desc>Master slide</desc><g style="stroke:none;fill:none"><rect x="0" y="0" width="21000" height="29700"/></g></g><g visibility="visible" id="page1"><desc>Slide</desc><g><desc>Drawing</desc><g><g style="stroke:none;fill:rgb(0,0,0)"><path d="M 39,191 C 30,197 26,207 26,223 26,227 26,230 27,234 28,238 29,241 30,245 31,248 32,251 34,254 35,257 37,259 39,261 L 39,191 Z M 74,247 C 73,250 72,253 70,256 68,259 66,261 63,263 61,265 58,267 55,268 52,270 49,270 46,270 L 45,270 45,284 39,284 39,270 C 34,269 29,267 25,264 21,262 18,259 15,255 12,251 10,246 8,241 7,236 6,231 6,225 6,220 7,215 8,210 10,205 12,201 15,198 18,194 21,191 25,188 29,186 34,185 39,184 L 39,171 45,171 45,184 C 49,184 52,184 56,185 59,186 63,187 65,189 68,191 70,192 72,195 73,197 74,199 74,202 74,205 73,207 70,210 68,212 65,213 62,213 59,213 56,212 53,210 50,208 49,205 49,202 49,198 51,193 56,189 55,189 54,189 52,189 51,188 50,188 49,188 48,188 48,188 47,188 46,188 46,188 45,189 L 45,265 C 46,265 48,265 49,265 57,265 66,259 74,247 Z"/></g><g style="stroke:none;fill:none"><rect x="6" y="171" width="70" height="114"/></g><g/></g></g></g></svg>