<?xml version="1.0" encoding="UTF-8"?>
<!DOCTYPE svg PUBLIC "-//W3C//DTD SVG 1.1//EN" "http://www.w3.org/Graphics/SVG/1.1/DTD/svg11.dtd"><svg version="1.1" viewBox="0 0 21000 29700" preserveAspectRatio="xMidYMid" fill-rule="evenodd" xmlns="http://www.w3.org/2000/svg" xmlns:xlink="http://www.w3.org/1999/xlink"><g visibility="visible" id="Default"><desc>Master slide</desc><g style="stroke:none;fill:none"><rect x="0" y="0" width="21000" height="29700"/></g></g><g visibility="visible" id="page1"><desc>Slide</desc><g><desc>Drawing</desc><g><g style="stroke:none;fill:rgb(0,0,0)"><path d="M 74,241 C 74,245 73,249 72,253 70,257 68,260 65,262 62,265 59,267 55,268 51,269 46,270 42,270 30,270 21,266 15,259 9,251 6,240 6,227 6,221 7,215 9,210 10,204 13,200 16,196 19,192 23,189 27,186 31,184 36,183 41,183 46,183 49,183 53,184 57,185 60,186 63,188 66,189 68,191 69,193 71,196 72,198 72,201 72,204 71,207 68,210 66,212 63,213 59,213 55,213 52,212 50,209 47,207 46,204 46,201 46,200 46,198 47,196 48,195 48,193 48,192 48,189 46,188 42,188 40,188 38,189 36,190 34,192 33,194 32,196 31,198 30,201 29,204 28,207 28,211 28,214 28,214 28,215 28,217 28,219 28,221 28,223 35,220 43,218 50,218 57,218 63,220 67,224 72,228 74,234 74,241 Z M 43,226 C 34,226 29,232 29,245 29,258 33,264 41,264 49,264 53,258 53,245 53,232 50,226 43,226 Z"/></g><g style="stroke:none;fill:none"><rect x="5" y="183" width="70" height="88"/></g><g/></g></g></g></svg>