<?xml version="1.0" encoding="UTF-8"?>
<!DOCTYPE svg PUBLIC "-//W3C//DTD SVG 1.1//EN" "http://www.w3.org/Graphics/SVG/1.1/DTD/svg11.dtd"><svg version="1.1" viewBox="0 0 21000 29700" preserveAspectRatio="xMidYMid" fill-rule="evenodd" xmlns="http://www.w3.org/2000/svg" xmlns:xlink="http://www.w3.org/1999/xlink"><g visibility="visible" id="Default"><desc>Master slide</desc><g style="stroke:none;fill:none"><rect x="0" y="0" width="21000" height="29700"/></g></g><g visibility="visible" id="page1"><desc>Slide</desc><g><desc>Drawing</desc><g><g style="stroke:none;fill:rgb(0,0,0)"><path d="M 75,244 C 75,248 74,251 72,255 71,258 68,260 65,263 62,265 58,267 54,268 50,269 46,270 42,270 37,270 32,269 28,268 24,267 21,266 18,264 15,262 12,259 11,256 9,253 8,250 8,246 8,242 9,238 12,234 14,231 18,229 22,227 14,223 10,216 10,207 10,203 11,200 12,197 14,195 16,192 19,190 21,188 25,187 28,186 32,185 36,184 40,184 50,184 58,186 64,189 70,193 73,198 73,204 73,213 69,219 61,225 70,229 75,235 75,244 Z M 60,203 C 60,198 58,195 55,192 52,190 47,189 41,189 31,189 26,193 26,200 26,208 34,214 50,219 57,215 60,210 60,203 L 60,203 Z M 58,252 C 58,249 57,247 56,246 54,244 52,242 49,240 47,239 44,237 40,235 37,234 33,232 30,231 23,234 20,240 20,246 20,251 22,256 26,259 30,262 35,263 41,263 45,263 49,262 53,260 56,258 58,255 58,252 Z"/></g><g style="stroke:none;fill:none"><rect x="8" y="184" width="68" height="87"/></g><g/></g></g></g></svg>