<?xml version="1.0" encoding="UTF-8"?>
<!DOCTYPE svg PUBLIC "-//W3C//DTD SVG 1.1//EN" "http://www.w3.org/Graphics/SVG/1.1/DTD/svg11.dtd"><svg version="1.1" viewBox="0 0 21000 29700" preserveAspectRatio="xMidYMid" fill-rule="evenodd" xmlns="http://www.w3.org/2000/svg" xmlns:xlink="http://www.w3.org/1999/xlink"><g visibility="visible" id="Default"><desc>Master slide</desc><g style="stroke:none;fill:none"><rect x="0" y="0" width="21000" height="29700"/></g></g><g visibility="visible" id="page1"><desc>Slide</desc><g><desc>Drawing</desc><g><g style="stroke:none;fill:rgb(0,0,0)"><path d="M 76,239 C 75,260 68,271 55,271 53,271 51,270 48,269 45,268 41,267 38,266 35,265 32,263 29,262 26,261 24,261 23,261 21,261 19,261 18,262 17,263 16,263 15,264 14,265 13,266 12,267 11,267 10,268 9,268 8,268 7,267 7,267 7,263 8,259 10,257 12,255 13,252 15,250 18,245 23,240 29,236 34,232 38,229 40,227 43,225 45,223 47,221 48,219 49,217 49,215 50,213 50,211 50,209 50,204 49,199 46,196 43,193 39,191 34,191 28,191 24,193 22,196 24,197 27,199 29,201 31,203 32,205 32,208 32,210 32,211 31,213 30,214 29,215 28,216 27,217 25,218 24,219 22,219 21,220 19,220 12,220 8,216 8,208 8,200 11,194 17,189 23,185 31,183 42,183 48,183 54,184 58,186 62,188 65,190 68,192 70,195 72,198 73,201 74,204 74,206 74,208 74,214 72,219 68,223 67,224 64,225 61,227 57,229 53,231 49,233 44,235 40,237 36,239 32,241 29,243 27,245 L 27,245 C 27,245 28,245 29,245 29,245 30,245 31,245 33,245 35,245 38,246 41,247 44,247 48,248 51,249 54,250 56,251 59,252 61,252 62,252 65,252 68,251 69,249 69,249 70,248 71,246 71,244 73,242 76,239 Z"/></g><g style="stroke:none;fill:none"><rect x="7" y="183" width="70" height="89"/></g><g/></g></g></g></svg>