<?xml version="1.0" encoding="UTF-8"?>
<!DOCTYPE svg PUBLIC "-//W3C//DTD SVG 1.1//EN" "http://www.w3.org/Graphics/SVG/1.1/DTD/svg11.dtd"><svg version="1.1" viewBox="0 0 21000 29700" preserveAspectRatio="xMidYMid" fill-rule="evenodd" xmlns="http://www.w3.org/2000/svg" xmlns:xlink="http://www.w3.org/1999/xlink"><g visibility="visible" id="Default"><desc>Master slide</desc><g style="stroke:none;fill:none"><rect x="0" y="0" width="21000" height="29700"/></g></g><g visibility="visible" id="page1"><desc>Slide</desc><g><desc>Drawing</desc><g><g style="stroke:none;fill:rgb(0,0,0)"><path d="M 10,269 C 10,266 11,264 13,264 16,263 18,262 19,261 20,259 20,257 20,253 L 20,215 C 20,211 20,208 19,207 19,207 18,208 17,210 16,211 15,212 13,214 12,216 11,217 9,219 8,220 8,221 7,221 7,221 6,221 5,221 14,203 19,191 20,184 21,184 23,185 25,185 26,185 29,185 31,185 37,185 41,185 43,184 L 43,253 C 43,257 44,259 45,261 46,262 47,262 48,263 50,263 51,264 52,264 53,265 54,266 54,269 L 10,269 Z"/></g><g style="stroke:none;fill:none"><rect x="5" y="184" width="51" height="86"/></g><g/></g></g></g></svg>