<?xml version="1.0" encoding="UTF-8"?>
<!DOCTYPE svg PUBLIC "-//W3C//DTD SVG 1.1//EN" "http://www.w3.org/Graphics/SVG/1.1/DTD/svg11.dtd"><svg version="1.1" viewBox="0 0 21000 29700" preserveAspectRatio="xMidYMid" fill-rule="evenodd" xmlns="http://www.w3.org/2000/svg" xmlns:xlink="http://www.w3.org/1999/xlink"><g visibility="visible" id="Default"><desc>Master slide</desc><g style="stroke:none;fill:none"><rect x="0" y="0" width="21000" height="29700"/></g></g><g visibility="visible" id="page1"><desc>Slide</desc><g><desc>Drawing</desc><g><g style="stroke:none;fill:rgb(0,0,0)"><path d="M 4,249 C 4,245 5,242 8,239 10,236 13,235 16,235 25,235 29,239 29,247 29,248 29,250 28,251 27,253 27,254 26,255 25,256 24,258 24,258 23,259 22,260 22,260 24,263 28,264 32,264 43,264 48,256 48,241 48,234 47,230 44,226 42,222 38,220 33,220 29,220 24,222 18,225 17,225 17,225 17,226 17,226 16,226 16,226 16,227 15,227 14,227 13,227 11,227 9,228 9,223 10,217 10,209 11,202 11,193 12,183 20,185 31,186 44,186 52,186 61,185 69,184 68,197 56,204 34,204 34,204 32,204 31,204 30,204 28,204 27,204 25,203 23,203 22,203 21,203 20,203 19,203 19,203 18,204 18,205 18,206 18,207 18,209 18,210 17,212 17,213 17,215 17,217 17,218 24,215 31,213 39,213 43,213 47,214 51,215 56,216 59,218 62,220 65,223 68,226 69,229 71,232 72,236 72,240 72,245 71,249 69,252 67,256 65,259 62,261 58,264 55,266 50,267 46,268 41,269 36,269 31,269 26,268 23,267 19,266 15,265 13,263 10,261 8,259 6,256 5,254 4,251 4,249 Z"/></g><g style="stroke:none;fill:none"><rect x="4" y="183" width="69" height="87"/></g><g/></g></g></g></svg>