<?xml version="1.0" encoding="UTF-8"?>
<!DOCTYPE svg PUBLIC "-//W3C//DTD SVG 1.1//EN" "http://www.w3.org/Graphics/SVG/1.1/DTD/svg11.dtd"><svg version="1.1" viewBox="0 0 21000 29700" preserveAspectRatio="xMidYMid" fill-rule="evenodd" xmlns="http://www.w3.org/2000/svg" xmlns:xlink="http://www.w3.org/1999/xlink"><g visibility="visible" id="Default"><desc>Master slide</desc><g style="stroke:none;fill:none"><rect x="0" y="0" width="21000" height="29700"/></g></g><g visibility="visible" id="page1"><desc>Slide</desc><g><desc>Drawing</desc><g><g style="stroke:none;fill:rgb(0,0,0)"><path d="M 77,188 C 77,194 72,207 63,227 54,245 50,259 50,269 L 50,271 C 47,270 42,270 34,270 32,270 29,270 27,270 25,270 24,271 22,271 23,257 32,242 49,225 55,219 59,214 61,209 56,212 50,213 45,213 44,213 41,213 39,212 36,211 34,210 31,209 28,208 26,207 23,206 21,206 20,205 19,205 18,205 16,207 15,209 14,212 13,214 12,217 10,215 9,213 8,211 L 8,203 C 8,203 8,201 8,200 8,198 8,197 8,195 L 8,186 C 14,188 17,190 17,190 18,190 18,189 20,189 21,188 23,187 25,186 26,185 28,185 30,184 32,183 34,183 36,183 38,183 40,184 42,185 45,186 48,188 50,190 53,192 55,193 57,195 59,196 61,197 62,197 67,197 71,193 72,187 L 74,187 C 76,187 77,187 77,188 Z"/></g><g style="stroke:none;fill:none"><rect x="8" y="183" width="70" height="89"/></g><g/></g></g></g></svg>