<?xml version="1.0" encoding="UTF-8"?>
<!DOCTYPE svg PUBLIC "-//W3C//DTD SVG 1.1//EN" "http://www.w3.org/Graphics/SVG/1.1/DTD/svg11.dtd"><svg version="1.1" viewBox="0 0 21000 29700" preserveAspectRatio="xMidYMid" fill-rule="evenodd" xmlns="http://www.w3.org/2000/svg" xmlns:xlink="http://www.w3.org/1999/xlink"><g visibility="visible" id="Default"><desc>Master slide</desc><g style="stroke:none;fill:none"><rect x="0" y="0" width="21000" height="29700"/></g></g><g visibility="visible" id="page1"><desc>Slide</desc><g><desc>Drawing</desc><g><g style="stroke:none;fill:rgb(0,0,0)"><path d="M 81,227 C 81,232 80,238 78,243 76,248 74,252 70,256 67,260 63,263 59,265 54,268 50,269 45,269 40,269 35,268 30,265 26,263 22,260 19,256 16,252 13,247 11,242 9,237 8,232 8,227 8,222 9,216 11,211 13,206 16,202 19,197 22,193 26,190 30,188 35,185 40,184 45,184 49,184 54,185 58,188 63,190 67,193 70,197 73,201 76,206 78,211 80,216 81,221 81,227 Z M 58,229 C 58,202 54,189 45,189 36,189 31,202 31,227 31,252 36,264 45,264 54,264 58,252 58,229 Z"/></g><g style="stroke:none;fill:none"><rect x="8" y="184" width="74" height="86"/></g><g/></g></g></g></svg>