<?xml version="1.0" encoding="UTF-8"?>
<!DOCTYPE svg PUBLIC "-//W3C//DTD SVG 1.1//EN" "http://www.w3.org/Graphics/SVG/1.1/DTD/svg11.dtd"><svg version="1.1" viewBox="0 0 21000 29700" preserveAspectRatio="xMidYMid" fill-rule="evenodd" xmlns="http://www.w3.org/2000/svg" xmlns:xlink="http://www.w3.org/1999/xlink"><g visibility="visible" id="Default"><desc>Master slide</desc><g style="stroke:none;fill:none"><rect x="0" y="0" width="21000" height="29700"/></g></g><g visibility="visible" id="page1"><desc>Slide</desc><g><desc>Drawing</desc><g><g style="stroke:none;fill:rgb(0,0,0)"><path d="M 4,212 C 4,202 7,195 13,190 20,185 28,183 39,183 50,183 58,187 64,195 70,203 73,213 73,227 73,233 72,238 70,244 68,249 66,253 63,257 59,261 55,264 51,267 46,269 41,270 36,270 32,270 29,270 25,269 22,268 19,267 16,265 14,263 11,262 10,259 8,257 7,255 7,252 7,249 8,246 11,244 13,241 15,240 19,240 23,240 26,241 28,244 30,246 31,249 31,253 31,254 31,255 30,257 30,259 29,260 29,261 29,264 31,265 35,265 45,265 50,254 50,232 L 50,229 C 42,233 35,235 29,235 21,235 15,233 11,229 6,225 4,219 4,212 Z M 38,189 C 34,189 30,191 28,195 25,198 24,203 24,209 24,214 25,218 27,222 29,225 32,227 36,227 45,227 50,221 50,209 50,203 49,199 47,195 45,191 42,189 38,189 Z"/></g><g style="stroke:none;fill:none"><rect x="4" y="183" width="70" height="88"/></g><g/></g></g></g></svg>