<?xml version="1.0" encoding="UTF-8"?>
<!DOCTYPE svg PUBLIC "-//W3C//DTD SVG 1.1//EN" "http://www.w3.org/Graphics/SVG/1.1/DTD/svg11.dtd"><svg version="1.1" viewBox="0 0 21000 29700" preserveAspectRatio="xMidYMid" fill-rule="evenodd" xmlns="http://www.w3.org/2000/svg" xmlns:xlink="http://www.w3.org/1999/xlink"><g visibility="visible" id="Default"><desc>Master slide</desc><g style="stroke:none;fill:none"><rect x="0" y="0" width="21000" height="29700"/></g></g><g visibility="visible" id="page1"><desc>Slide</desc><g><desc>Drawing</desc><g><g style="stroke:none;fill:rgb(0,0,0)"><path d="M 70,245 C 70,253 67,260 61,264 56,268 48,270 37,270 33,270 29,270 25,269 21,268 18,267 15,265 12,263 10,261 8,259 7,257 6,254 6,251 6,248 7,245 10,243 12,241 15,240 18,240 21,240 24,241 26,243 28,245 29,247 29,250 29,255 27,259 24,262 26,264 30,265 35,265 39,265 43,263 45,260 48,257 49,253 49,249 49,243 48,239 46,237 44,234 41,232 37,231 33,231 30,231 28,230 25,230 24,229 24,228 24,227 24,225 24,225 24,224 25,223 25,223 26,223 27,223 28,223 29,223 30,222 32,222 37,222 41,220 44,218 47,216 48,212 48,206 48,195 43,189 32,189 28,189 25,190 23,192 25,194 26,196 28,198 29,200 30,202 30,205 30,208 29,211 27,212 24,214 22,215 19,215 15,215 13,214 10,212 8,210 7,207 7,203 7,197 10,192 15,189 21,186 28,184 37,184 46,184 54,186 60,190 65,194 68,199 68,207 68,211 67,215 64,219 61,222 58,225 53,226 L 54,227 C 58,228 62,230 65,233 68,236 70,240 70,245 Z"/></g><g style="stroke:none;fill:none"><rect x="6" y="184" width="65" height="87"/></g><g/></g></g></g></svg>