<?xml version="1.0" encoding="UTF-8"?>
<!DOCTYPE svg PUBLIC "-//W3C//DTD SVG 1.1//EN" "http://www.w3.org/Graphics/SVG/1.1/DTD/svg11.dtd"><svg version="1.1" viewBox="0 0 21000 29700" preserveAspectRatio="xMidYMid" fill-rule="evenodd" xmlns="http://www.w3.org/2000/svg" xmlns:xlink="http://www.w3.org/1999/xlink"><g visibility="visible" id="Default"><desc>Master slide</desc><g style="stroke:none;fill:none"><rect x="0" y="0" width="21000" height="29700"/></g></g><g visibility="visible" id="page1"><desc>Slide</desc><g><desc>Drawing</desc><g><g style="stroke:none;fill:rgb(0,0,0)"><path d="M 78,247 C 77,250 76,253 74,255 72,258 70,261 67,263 64,265 61,267 58,268 55,269 52,270 49,270 43,270 37,269 32,267 27,264 23,261 19,257 16,253 13,248 11,243 9,238 8,232 8,226 8,220 9,214 11,209 13,204 15,199 19,196 22,192 26,189 31,187 36,185 42,184 48,184 51,184 55,184 59,185 62,186 66,187 68,189 71,190 73,192 75,194 76,197 77,199 77,202 77,205 76,208 73,210 71,212 68,213 65,213 62,213 59,212 56,210 53,208 52,205 52,202 52,198 54,193 59,189 56,189 54,189 52,189 48,189 45,190 42,192 39,193 36,196 34,199 32,202 31,205 30,210 29,214 28,218 28,224 28,229 29,234 30,239 31,244 33,248 35,252 37,256 39,259 42,261 45,264 48,265 52,265 60,265 69,259 78,247 Z"/></g><g style="stroke:none;fill:none"><rect x="8" y="184" width="71" height="87"/></g><g/></g></g></g></svg>