<?xml version="1.0" encoding="UTF-8"?>
<!DOCTYPE svg PUBLIC "-//W3C//DTD SVG 1.1//EN" "http://www.w3.org/Graphics/SVG/1.1/DTD/svg11.dtd"><svg version="1.1" viewBox="0 0 21000 29700" preserveAspectRatio="xMidYMid" fill-rule="evenodd" xmlns="http://www.w3.org/2000/svg" xmlns:xlink="http://www.w3.org/1999/xlink"><g visibility="visible" id="Default"><desc>Master slide</desc><g style="stroke:none;fill:none"><rect x="0" y="0" width="21000" height="29700"/></g></g><g visibility="visible" id="page1"><desc>Slide</desc><g><desc>Drawing</desc><g><g style="stroke:none;fill:none"><rect x="0" y="464" width="503" height="1205"/></g><g/></g></g><g><desc>Drawing</desc><g><g style="stroke:none;fill:rgb(0,0,0)"><path d="M 124,212 L 124,225 58,225 C 58,222 58,219 59,216 61,211 64,207 67,202 71,197 76,192 83,187 93,178 101,171 104,166 108,161 110,157 110,152 110,148 108,144 105,141 102,138 97,136 92,136 86,136 82,138 78,141 75,144 73,148 73,154 L 60,152 C 61,143 64,136 70,131 75,126 83,124 92,124 102,124 109,127 115,132 120,137 123,144 123,152 123,156 122,160 121,164 119,168 117,172 113,176 109,180 103,186 95,193 87,199 83,203 80,206 78,208 77,210 75,212 L 124,212 Z"/></g><g style="stroke:none;fill:none"><rect x="57" y="124" width="68" height="103"/></g><g/></g></g></g></svg>