<?xml version="1.0" encoding="UTF-8"?>
<!DOCTYPE svg PUBLIC "-//W3C//DTD SVG 1.1//EN" "http://www.w3.org/Graphics/SVG/1.1/DTD/svg11.dtd"><svg version="1.1" viewBox="0 0 21000 29700" preserveAspectRatio="xMidYMid" fill-rule="evenodd" xmlns="http://www.w3.org/2000/svg" xmlns:xlink="http://www.w3.org/1999/xlink"><g visibility="visible" id="Default"><desc>Master slide</desc><g style="stroke:none;fill:none"><rect x="0" y="0" width="21000" height="29700"/></g></g><g visibility="visible" id="page1"><desc>Slide</desc><g><desc>Drawing</desc><g><g style="stroke:none;fill:none"><rect x="0" y="464" width="503" height="1205"/></g><g/></g></g><g><desc>Drawing</desc><g><g style="stroke:none;fill:rgb(0,0,0)"><path d="M 60,198 L 73,196 C 74,202 77,207 80,210 83,213 87,214 92,214 99,214 104,212 107,208 111,204 113,200 113,194 113,189 111,184 108,181 104,177 99,176 94,176 91,176 88,176 85,177 L 86,165 C 87,165 88,165 88,165 93,165 98,164 102,161 106,159 108,155 108,150 108,146 106,143 103,140 100,137 97,136 92,136 87,136 83,137 80,140 77,143 75,147 74,152 L 61,150 C 63,142 66,135 71,131 77,126 83,124 91,124 97,124 102,125 107,127 111,130 115,133 117,137 120,141 121,145 121,150 121,154 120,158 117,161 115,165 112,167 107,169 113,171 118,174 121,178 124,182 126,188 126,194 126,203 123,211 116,217 110,223 102,226 92,226 83,226 76,223 70,218 64,213 61,206 60,198 Z"/></g><g style="stroke:none;fill:none"><rect x="60" y="124" width="67" height="104"/></g><g/></g></g></g></svg>