<?xml version="1.0" encoding="UTF-8"?>
<!DOCTYPE svg PUBLIC "-//W3C//DTD SVG 1.1//EN" "http://www.w3.org/Graphics/SVG/1.1/DTD/svg11.dtd"><svg version="1.1" viewBox="0 0 21000 29700" preserveAspectRatio="xMidYMid" fill-rule="evenodd" xmlns="http://www.w3.org/2000/svg" xmlns:xlink="http://www.w3.org/1999/xlink"><g visibility="visible" id="Default"><desc>Master slide</desc><g style="stroke:none;fill:none"><rect x="0" y="0" width="21000" height="29700"/></g></g><g visibility="visible" id="page1"><desc>Slide</desc><g><desc>Drawing</desc><g><g style="stroke:none;fill:none"><rect x="0" y="464" width="503" height="1205"/></g><g/></g></g><g><desc>Drawing</desc><g><g style="stroke:none;fill:rgb(0,0,0)"><path d="M 60,198 L 73,197 C 74,203 76,207 79,210 83,213 87,214 92,214 98,214 103,212 107,208 111,204 113,198 113,191 113,185 111,179 108,176 104,172 99,170 93,170 88,170 85,171 82,173 79,174 77,176 75,179 L 62,177 72,125 121,125 121,138 83,138 78,165 C 84,160 90,158 96,158 104,158 112,161 117,167 123,173 126,181 126,190 126,199 123,207 118,214 112,222 103,226 92,226 83,226 76,223 70,218 64,213 61,206 60,198 Z"/></g><g style="stroke:none;fill:none"><rect x="60" y="125" width="67" height="103"/></g><g/></g></g></g></svg>