<?xml version="1.0" encoding="UTF-8"?>
<!DOCTYPE svg PUBLIC "-//W3C//DTD SVG 1.1//EN" "http://www.w3.org/Graphics/SVG/1.1/DTD/svg11.dtd"><svg version="1.1" viewBox="0 0 21000 29700" preserveAspectRatio="xMidYMid" fill-rule="evenodd" xmlns="http://www.w3.org/2000/svg" xmlns:xlink="http://www.w3.org/1999/xlink"><g visibility="visible" id="Default"><desc>Master slide</desc><g style="stroke:none;fill:none"><rect x="0" y="0" width="21000" height="29700"/></g></g><g visibility="visible" id="page1"><desc>Slide</desc><g><desc>Drawing</desc><g><g style="stroke:none;fill:none"><rect x="0" y="464" width="503" height="1205"/></g><g/></g></g><g><desc>Drawing</desc><g><g style="stroke:none;fill:rgb(0,0,0)"><path d="M 124,150 L 111,151 C 110,146 108,143 106,141 103,138 99,136 94,136 90,136 86,137 83,139 80,142 77,145 74,150 72,155 71,162 71,172 74,168 78,165 82,162 86,160 91,159 96,159 104,159 111,162 117,168 123,174 126,182 126,192 126,198 125,204 122,209 119,215 115,219 110,222 105,225 100,226 94,226 83,226 75,222 68,215 61,207 58,195 58,178 58,158 62,144 69,135 75,128 84,124 95,124 103,124 110,126 115,131 120,136 123,142 124,150 Z M 71,191 C 71,195 72,199 74,203 76,206 78,209 82,211 85,213 89,214 93,214 99,214 103,212 107,208 111,204 113,199 113,192 113,186 111,180 107,177 104,173 99,171 92,171 86,171 81,173 77,177 73,180 71,185 71,191 Z"/></g><g style="stroke:none;fill:none"><rect x="58" y="124" width="69" height="104"/></g><g/></g></g></g></svg>