<?xml version="1.0" encoding="UTF-8"?>
<!DOCTYPE svg PUBLIC "-//W3C//DTD SVG 1.1//EN" "http://www.w3.org/Graphics/SVG/1.1/DTD/svg11.dtd"><svg version="1.1" viewBox="0 0 21000 29700" preserveAspectRatio="xMidYMid" fill-rule="evenodd" xmlns="http://www.w3.org/2000/svg" xmlns:xlink="http://www.w3.org/1999/xlink"><g visibility="visible" id="Default"><desc>Master slide</desc><g style="stroke:none;fill:none"><rect x="0" y="0" width="21000" height="29700"/></g></g><g visibility="visible" id="page1"><desc>Slide</desc><g><desc>Drawing</desc><g><g style="stroke:none;fill:none"><rect x="0" y="464" width="503" height="1205"/></g><g/></g></g><g><desc>Drawing</desc><g><g style="stroke:none;fill:rgb(0,0,0)"><path d="M 61,138 L 61,125 126,125 126,136 C 120,142 114,152 108,163 102,174 97,186 94,197 91,206 90,215 89,225 L 76,225 C 76,217 78,208 81,196 83,185 87,175 93,164 98,154 104,145 110,138 L 61,138 Z"/></g><g style="stroke:none;fill:none"><rect x="61" y="125" width="67" height="101"/></g><g/></g></g></g></svg>