<?xml version="1.0" encoding="UTF-8"?>
<!DOCTYPE svg PUBLIC "-//W3C//DTD SVG 1.1//EN" "http://www.w3.org/Graphics/SVG/1.1/DTD/svg11.dtd"><svg version="1.1" viewBox="0 0 21000 29700" preserveAspectRatio="xMidYMid" fill-rule="evenodd" xmlns="http://www.w3.org/2000/svg" xmlns:xlink="http://www.w3.org/1999/xlink"><g visibility="visible" id="Default"><desc>Master slide</desc><g style="stroke:none;fill:none"><rect x="0" y="0" width="21000" height="29700"/></g></g><g visibility="visible" id="page1"><desc>Slide</desc><g><desc>Drawing</desc><g><g style="stroke:none;fill:rgb(255,255,255)"><path d="M 93,253 C 78,253 66,250 53,242 41,235 32,226 25,214 17,201 14,189 14,175 14,160 17,148 25,135 32,123 41,114 53,107 66,99 78,96 92,96 107,96 119,99 132,107 144,114 153,123 160,135 168,148 171,160 171,174 171,189 168,201 160,214 153,226 144,235 132,242 119,250 107,253 93,253 L 93,253 Z"/></g><g style="stroke:rgb(0,0,0);fill:none"><path style="fill:none" d="M 93,253 C 78,253 66,250 53,242 41,235 32,226 25,214 17,201 14,189 14,175 14,160 17,148 25,135 32,123 41,114 53,107 66,99 78,96 92,96 107,96 119,99 132,107 144,114 153,123 160,135 168,148 171,160 171,174 171,189 168,201 160,214 153,226 144,235 132,242 119,250 107,253 93,253"/></g><g/></g></g><g><desc>Drawing</desc><g><g style="stroke:none;fill:rgb(0,0,0)"><path d="M 71,256 C 64,254 57,252 50,248 44,244 38,239 33,234 28,229 23,223 19,217 15,210 13,203 11,196 9,189 8,182 8,175 8,167 9,160 11,153 13,146 15,139 19,132 23,126 28,120 33,115 38,110 44,105 50,101 57,97 64,95 71,93 78,91 85,90 92,90 100,90 107,91 114,93 121,95 128,97 135,101 141,105 147,110 152,115 157,120 162,126 166,132 170,139 172,146 174,153 176,160 177,167 177,174 177,182 176,189 174,196 172,203 170,210 166,217 162,223 157,229 152,234 147,239 141,244 135,248 128,252 121,254 114,256 107,258 100,259 93,259 85,259 78,258 71,256 Z M 130,239 C 136,236 141,232 145,227 150,223 154,218 157,212 160,206 163,200 165,194 166,188 167,181 167,174 167,168 166,161 165,155 163,149 160,143 157,137 154,131 150,126 145,122 141,117 136,113 130,110 124,107 118,104 112,102 106,101 99,100 92,100 86,100 79,101 73,102 67,104 61,107 55,110 49,113 44,117 40,122 35,126 31,131 28,137 25,143 22,149 20,155 19,161 18,168 18,175 18,181 19,188 20,194 22,200 25,206 28,212 31,218 35,223 40,227 44,232 49,236 55,239 61,242 67,245 73,247 79,248 86,249 93,249 99,249 106,248 112,247 118,245 124,242 130,239 Z"/></g><g style="stroke:none;fill:none"><rect x="8" y="89" width="170" height="171"/></g><g/></g></g><g><desc>Drawing</desc><g><g style="stroke:none;fill:none"><rect x="0" y="464" width="854" height="964"/></g><g/></g></g></g></svg>