<?xml version="1.0" encoding="UTF-8" standalone="no"?>
<!--Generator: Xara Xtreme (www.xara.com), SVG filter version: 1.0.0.13-->

<svg
   xmlns:dc="http://purl.org/dc/elements/1.1/"
   xmlns:cc="http://creativecommons.org/ns#"
   xmlns:rdf="http://www.w3.org/1999/02/22-rdf-syntax-ns#"
   xmlns:svg="http://www.w3.org/2000/svg"
   xmlns="http://www.w3.org/2000/svg"
   xmlns:sodipodi="http://sodipodi.sourceforge.net/DTD/sodipodi-0.dtd"
   xmlns:inkscape="http://www.inkscape.org/namespaces/inkscape"
   stroke-width="0.501"
   stroke-linejoin="bevel"
   fill-rule="evenodd"
   version="1.1"
   overflow="visible"
   width="600pt"
   height="450pt"
   viewBox="0 0 600 450"
   id="svg3265"
   inkscape:version="0.48.0 r9654"
   sodipodi:docname="xaraExportSvgTest2.svg">
  <metadata
     id="metadata3359">
    <rdf:RDF>
      <cc:Work
         rdf:about="">
        <dc:format>image/svg+xml</dc:format>
        <dc:type
           rdf:resource="http://purl.org/dc/dcmitype/StillImage" />
        <dc:title></dc:title>
      </cc:Work>
    </rdf:RDF>
  </metadata>
  <sodipodi:namedview
     pagecolor="#ffffff"
     bordercolor="#666666"
     borderopacity="1"
     objecttolerance="10"
     gridtolerance="10"
     guidetolerance="10"
     inkscape:pageopacity="0"
     inkscape:pageshadow="2"
     inkscape:window-width="1680"
     inkscape:window-height="994"
     id="namedview3357"
     showgrid="false"
     inkscape:zoom="2.3733646"
     inkscape:cx="182.70003"
     inkscape:cy="386.00238"
     inkscape:window-x="-4"
     inkscape:window-y="-4"
     inkscape:window-maximized="1"
     inkscape:current-layer="Group_1" />
  <defs
     id="defs3267">
    <marker
       id="DefaultArrow2"
       markerUnits="strokeWidth"
       viewBox="0 0 1 1"
       markerWidth="1"
       markerHeight="1"
       overflow="visible"
       orient="auto">
      <!-- REF_ARROW_STRAIGHT (-2) -->
      <g
         transform="scale(0.0092592592)"
         id="g3270">
        <!-- 1/108 -->
        <path
           d="M -9 54 L -9 -54 L 117 0 z"
           id="path3272" />
      </g>
    </marker>
    <marker
       id="DefaultArrow3"
       markerUnits="strokeWidth"
       viewBox="0 0 1 1"
       markerWidth="1"
       markerHeight="1"
       overflow="visible"
       orient="auto">
      <!-- REF_ARROW_ANGLED -->
      <g
         transform="scale(0.0092592592)"
         id="g3275">
        <path
           d="M -27 54 L -9 0 L -27 -54 L 135 0 z"
           id="path3277" />
      </g>
    </marker>
    <marker
       id="DefaultArrow4"
       markerUnits="strokeWidth"
       viewBox="0 0 1 1"
       markerWidth="1"
       markerHeight="1"
       overflow="visible"
       orient="auto">
      <!-- REF_ARROW_ROUNDED -->
      <g
         transform="scale(0.0092592592)"
         id="g3280">
        <path
           d="M -9,0 L -9,-45 C -9,-51.708 2.808,-56.580 9,-54 L 117,-9 C 120.916,-7.369 126.000,-4.242 126,0 C 126,4.242 120.916,7.369 117,9 L 9,54 C 2.808,56.580 -9,51.708 -9,45 z"
           id="path3282" />
      </g>
    </marker>
    <marker
       id="DefaultArrow5"
       markerUnits="strokeWidth"
       viewBox="0 0 1 1"
       markerWidth="1"
       markerHeight="1"
       overflow="visible"
       orient="auto">
      <!-- REF_ARROW_SPOT -->
      <g
         transform="scale(0.0092592592)"
         id="g3285">
        <path
           d="M -54, 0 C -54,29.807 -29.807,54 0,54 C 29.807,54 54,29.807 54,0 C 54,-29.807 29.807,-54 0,-54 C -29.807,-54 -54,-29.807 -54,0 z"
           id="path3287" />
      </g>
    </marker>
    <marker
       id="DefaultArrow6"
       markerUnits="strokeWidth"
       viewBox="0 0 1 1"
       markerWidth="1"
       markerHeight="1"
       overflow="visible"
       orient="auto">
      <!-- REF_ARROW_DIAMOND -->
      <g
         transform="scale(0.0092592592)"
         id="g3290">
        <path
           d="M -63,0 L 0,63 L 63,0 L 0,-63 z"
           id="path3292" />
      </g>
    </marker>
    <marker
       id="DefaultArrow7"
       markerUnits="strokeWidth"
       viewBox="0 0 1 1"
       markerWidth="1"
       markerHeight="1"
       overflow="visible"
       orient="auto">
      <!-- REF_ARROW_FEATHER -->
      <g
         transform="scale(0.0092592592)"
         id="g3295">
        <path
           d="M 18,-54 L 108,-54 L 63,0 L 108,54 L 18, 54 L -36,0 z"
           id="path3297" />
      </g>
    </marker>
    <marker
       id="DefaultArrow8"
       markerUnits="strokeWidth"
       viewBox="0 0 1 1"
       markerWidth="1"
       markerHeight="1"
       overflow="visible"
       orient="auto">
      <!-- REF_ARROW_FEATHER2 -->
      <g
         transform="scale(0.0092592592)"
         id="g3300">
        <path
           d="M -36,0 L 18,-54 L 54,-54 L 18,-18 L 27,-18 L 63,-54 L 99,-54 L 63,-18 L 72,-18 L 108,-54 L 144,-54 L 90,0 L 144,54 L 108,54 L 72,18 L 63,18 L 99,54 L 63,54 L 27,18 L 18,18 L 54,54 L 18,54 z"
           id="path3302" />
      </g>
    </marker>
    <marker
       id="DefaultArrow9"
       markerUnits="strokeWidth"
       viewBox="0 0 1 1"
       markerWidth="1"
       markerHeight="1"
       overflow="visible"
       orient="auto">
      <!-- REF_ARROW_HOLLOWDIAMOND -->
      <g
         transform="scale(0.0092592592)"
         id="g3305">
        <path
           d="M 0,45 L -45,0 L 0, -45 L 45, 0 z M 0, 63 L-63, 0 L 0, -63 L 63, 0 z"
           id="path3307" />
      </g>
    </marker>
    <filter
       id="StainedFilter">
      <feBlend
         mode="multiply"
         in2="BackgroundImage"
         in="SourceGraphic"
         result="blend"
         id="feBlend3310" />
      <feComposite
         in="blend"
         in2="SourceAlpha"
         operator="in"
         result="comp"
         id="feComposite3312" />
    </filter>
    <filter
       id="BleachFilter">
      <feBlend
         mode="screen"
         in2="BackgroundImage"
         in="SourceGraphic"
         result="blend"
         id="feBlend3315" />
      <feComposite
         in="blend"
         in2="SourceAlpha"
         operator="in"
         result="comp"
         id="feComposite3317" />
    </filter>
    <filter
       id="InvertTransparencyBitmapFilter">
      <feComponentTransfer
         id="feComponentTransfer3320">
        <feFuncR
           type="gamma"
           amplitude="1.055"
           exponent=".416666666"
           offset="-0.055"
           id="feFuncR3322" />
        <feFuncG
           type="gamma"
           amplitude="1.055"
           exponent=".416666666"
           offset="-0.055"
           id="feFuncG3324" />
        <feFuncB
           type="gamma"
           amplitude="1.055"
           exponent=".416666666"
           offset="-0.055"
           id="feFuncB3326" />
      </feComponentTransfer>
      <feComponentTransfer
         id="feComponentTransfer3328">
        <feFuncR
           type="linear"
           slope="-1"
           intercept="1"
           id="feFuncR3330" />
        <feFuncG
           type="linear"
           slope="-1"
           intercept="1"
           id="feFuncG3332" />
        <feFuncB
           type="linear"
           slope="-1"
           intercept="1"
           id="feFuncB3334" />
        <feFuncA
           type="linear"
           slope="1"
           intercept="0"
           id="feFuncA3336" />
      </feComponentTransfer>
      <feComponentTransfer
         id="feComponentTransfer3338">
        <feFuncR
           type="gamma"
           amplitude="1"
           exponent="2.4"
           offset="0"
           id="feFuncR3340" />
        <feFuncG
           type="gamma"
           amplitude="1"
           exponent="2.4"
           offset="0"
           id="feFuncG3342" />
        <feFuncB
           type="gamma"
           amplitude="1"
           exponent="2.4"
           offset="0"
           id="feFuncB3344" />
      </feComponentTransfer>
    </filter>
  </defs>
  <g
     id="Document"
     fill="none"
     stroke="black"
     font-family="Times New Roman"
     font-size="16"
     transform="scale(1 -1)">
    <g
       style="fill:#000000;fill-rule:nonzero;stroke:none"
       id="Group_1"
       transform="translate(0,-450)">
      <path
         style="marker-start:none;marker-end:none"
         inkscape:connector-curvature="0"
         id="path3353"
         d="m 1.409,206.364 c 10.063,3.173 17.722,7.117 22.98,11.829 4.984,4.442 9.494,9.245 13.528,14.413 4.035,5.165 7.457,10.469 10.267,15.908 2.811,5.438 4.964,10.943 6.46,16.518 1.496,5.574 2.243,11.036 2.242,16.385 10e-4,4.351 -0.588,8.363 -1.766,12.033 -1.179,3.671 -2.856,6.842 -5.032,9.517 -2.176,2.674 -4.827,4.782 -7.955,6.323 -3.128,1.539 -6.641,2.31 -10.539,2.312 -2.72,-0.002 -5.462,-0.523 -8.227,-1.566 -2.765,-1.042 -5.235,-2.448 -7.409,-4.215 -2.176,-1.77 -3.944,-3.789 -5.304,-6.056 -1.36,-2.266 -2.04,-4.578 -2.04,-6.937 0,-1.45 0.318,-2.175 0.952,-2.175 -0.09,0 0.091,0.228 0.544,0.683 0.454,0.457 1.088,0.96 1.904,1.507 0.816,0.548 1.836,1.051 3.06,1.506 1.224,0.459 2.516,0.685 3.875,0.685 1.451,0 2.833,-0.317 4.148,-0.952 1.313,-0.634 2.446,-1.495 3.4,-2.583 0.95,-1.09 1.698,-2.337 2.243,-3.74 0.544,-1.407 0.816,-2.88 0.816,-4.421 0,-4.352 -1.314,-7.956 -3.943,-10.811 -2.629,-2.856 -6.12,-4.284 -10.471,-4.286 -2.178,0.002 -4.125,0.524 -5.846,1.564 -1.72,1.043 -3.193,2.446 -4.415,4.214 -1.222,1.766 -2.172,3.828 -2.85,6.183 -0.68,2.357 -1.02,4.849 -1.02,7.476 0,3.987 0.906,7.702 2.719,11.147 1.812,3.441 4.259,6.431 7.34,8.969 3.082,2.537 6.616,4.531 10.603,5.982 3.987,1.45 8.155,2.175 12.507,2.174 7.974,0.001 14.567,-1.222 19.778,-3.67 5.211,-2.448 9.334,-5.621 12.369,-9.519 3.037,-3.896 5.145,-8.201 6.322,-12.915 1.178,-4.712 1.767,-9.336 1.767,-13.869 0,-2.81 -0.204,-5.507 -0.612,-8.089 -0.408,-2.584 -1.133,-5.281 -2.175,-8.091 -1.043,-2.81 -2.425,-5.845 -4.146,-9.109 -1.723,-3.262 -3.898,-6.979 -6.527,-11.149 -3.262,-5.256 -7.453,-10.105 -12.575,-14.547 -5.12,-4.442 -10.379,-8.272 -15.771,-11.489 -5.394,-3.218 -10.514,-5.734 -15.362,-7.547 -4.849,-1.813 -8.677,-2.719 -11.487,-2.718 -2.718,-0.001 -4.169,1.041 -4.352,3.126 z m 84.428,92.057 c -0.002,1.905 0.658,3.516 1.974,4.831 1.316,1.316 2.925,1.974 4.831,1.976 1.906,-0.002 3.517,-0.66 4.833,-1.976 1.315,-1.315 1.974,-2.926 1.974,-4.831 0,-1.906 -0.659,-3.517 -1.974,-4.832 -1.316,-1.316 -2.927,-1.973 -4.833,-1.975 -1.906,0.002 -3.515,0.659 -4.831,1.975 -1.316,1.315 -1.976,2.926 -1.974,4.832 z m 0,-33.864 c -0.002,1.905 0.658,3.516 1.974,4.833 1.316,1.314 2.925,1.973 4.831,1.973 1.906,0 3.517,-0.659 4.833,-1.973 1.315,-1.317 1.974,-2.928 1.974,-4.833 0,-1.906 -0.659,-3.515 -1.974,-4.832 -1.316,-1.314 -2.927,-1.973 -4.833,-1.973 -1.906,0 -3.515,0.659 -4.831,1.973 -1.316,1.317 -1.976,2.926 -1.974,4.832 z" />
      <path
         style="marker-start:none;marker-end:none"
         inkscape:connector-curvature="0"
         id="path3355"
         d="m 278.267,214.127 c -3.262,0 -6.389,0.474 -9.379,1.424 -2.992,0.948 -5.596,2.306 -7.816,4.072 -2.221,1.766 -3.988,3.872 -5.301,6.319 -1.315,2.448 -1.972,5.213 -1.972,8.295 0,1.36 0.272,2.765 0.816,4.216 0.542,1.45 1.29,2.765 2.242,3.944 0.952,1.178 2.085,2.13 3.398,2.855 1.314,0.726 2.695,1.088 4.143,1.088 1.542,0 2.992,-0.317 4.35,-0.952 1.36,-0.634 2.559,-1.496 3.6,-2.583 1.043,-1.088 1.858,-2.335 2.446,-3.74 0.589,-1.405 0.884,-2.878 0.884,-4.42 0,-1.541 -0.499,-2.901 -1.496,-4.079 -0.997,-1.179 -2.108,-2.221 -3.332,-3.128 -1.224,-0.906 -2.334,-1.7 -3.331,-2.38 -0.998,-0.68 -1.496,-1.201 -1.496,-1.563 0,-2.992 3.49,-4.488 10.471,-4.488 2.991,0 5.528,0.431 7.613,1.292 2.085,0.861 3.785,2.334 5.099,4.419 1.313,2.084 2.242,4.871 2.788,8.364 0.542,3.488 0.814,7.907 0.814,13.256 0,3.173 -0.317,6.21 -0.95,9.111 -0.636,2.901 -1.498,5.44 -2.584,7.615 -1.088,2.176 -2.402,3.899 -3.943,5.166 -1.541,1.271 -3.262,1.906 -5.166,1.904 -6.344,0.002 -12.871,-5.392 -19.578,-16.182 -0.453,3.537 -1.086,6.755 -1.902,9.656 -0.814,2.901 -1.766,5.393 -2.854,7.476 -1.086,2.081 -2.308,3.711 -3.667,4.888 -1.358,1.176 -2.809,1.766 -4.348,1.766 -0.907,0 -1.766,-0.136 -2.582,-0.408 l 0,-62.538 -5.445,0 0,135.452 5.445,0 0,-64.602 c 0.363,-0.091 0.68,-0.159 0.952,-0.204 0.272,-0.045 0.587,-0.068 0.95,-0.068 1.72,0 3.33,0.634 4.824,1.904 1.495,1.269 2.808,3.014 3.939,5.235 1.134,2.221 2.108,4.828 2.922,7.819 0.816,2.994 1.403,6.167 1.766,9.523 7.978,-9.613 14.28,-14.418 18.904,-14.418 1.994,0 3.808,0.566 5.439,1.7 1.634,1.133 2.994,2.719 4.08,4.759 1.09,2.042 1.928,4.467 2.516,7.277 0.591,2.811 0.885,5.893 0.884,9.247 10e-4,5.44 -0.293,9.882 -0.884,13.329 -0.59,3.445 -1.632,6.142 -3.128,8.091 -1.496,1.949 -3.492,3.265 -5.985,3.945 -2.493,0.68 -5.644,1.02 -9.451,1.02 -5.984,0 -8.975,-1.178 -8.975,-3.535 0,-0.726 0.997,-1.542 2.991,-2.448 3.353,-1.541 5.619,-2.992 6.8,-4.352 1.178,-1.36 1.768,-3.037 1.768,-5.031 0,-1.36 -0.295,-2.743 -0.884,-4.148 -0.59,-1.405 -1.383,-2.674 -2.38,-3.807 -0.997,-1.134 -2.131,-2.085 -3.4,-2.856 -1.269,-0.771 -2.629,-1.156 -4.079,-1.156 -3.445,0 -6.301,1.201 -8.567,3.604 -2.267,2.402 -3.4,5.326 -3.4,8.771 0,4.805 1.586,9.292 4.759,13.462 2.448,3.171 5.351,5.209 8.705,6.114 3.355,0.905 6.8,1.356 10.335,1.358 4.986,-0.002 9.497,-0.659 13.531,-1.972 4.034,-1.314 7.479,-3.195 10.335,-5.643 2.857,-2.448 5.056,-5.46 6.595,-9.041 1.543,-3.581 2.314,-7.638 2.312,-12.169 0.002,-4.261 -0.656,-8.341 -1.97,-12.239 -1.315,-3.898 -3.105,-7.343 -5.372,-10.333 -2.266,-2.992 -4.918,-5.371 -7.953,-7.139 -3.037,-1.768 -6.321,-2.652 -9.857,-2.652 -7.341,0 -12.826,1.269 -16.45,3.808 l -0.68,0 c -1.451,0 -2.627,-0.952 -3.534,-2.856 -0.907,-1.904 -1.36,-4.17 -1.36,-6.801 0,-1.723 0.113,-3.4 0.34,-5.033 0.227,-1.632 0.589,-3.105 1.088,-4.42 0.499,-1.314 1.063,-2.359 1.698,-3.13 0.635,-0.77 1.36,-1.155 2.176,-1.155 2.355,2.264 4.735,4.055 7.135,5.367 2.403,1.315 5.098,1.97 8.088,1.97 4.077,0 7.77,-0.929 11.077,-2.788 3.307,-1.858 6.161,-4.395 8.563,-7.611 2.4,-3.218 4.259,-6.933 5.572,-11.147 1.314,-4.214 1.971,-8.633 1.971,-13.255 0,-9.245 -2.765,-16.29 -8.293,-21.138 -5.528,-4.848 -13.321,-7.273 -23.38,-7.273 z m -47.043,136.117 0,-135.452 -16.998,0 0,135.452 16.998,0 z" />
    </g>
  </g>
</svg>
