<?xml version="1.0" standalone="no"?>
<!DOCTYPE svg PUBLIC "-//W3C//DTD SVG 1.1//EN" "http://www.w3.org/Graphics/SVG/1.1/DTD/svg11.dtd">
<!--Generator: Xara Xtreme (www.xara.com), SVG filter version: 1.0.0.13-->
<svg stroke-width="0.501" stroke-linejoin="bevel" fill-rule="evenodd" xmlns:xlink="http://www.w3.org/1999/xlink" xmlns="http://www.w3.org/2000/svg" version="1.1" overflow="visible" width="600pt" height="450pt" viewBox="0 0 600 450">
 <defs>
  <marker id="DefaultArrow2" markerUnits="strokeWidth" viewBox="0 0 1 1" markerWidth="1" markerHeight="1" overflow="visible" orient="auto">
   <!-- REF_ARROW_STRAIGHT (-2) -->
   <g transform="scale(0.0092592592)">
    <!-- 1/108 -->
    <path d="M -9 54 L -9 -54 L 117 0 z"/>
   </g>
  </marker>
  <marker id="DefaultArrow3" markerUnits="strokeWidth" viewBox="0 0 1 1" markerWidth="1" markerHeight="1" overflow="visible" orient="auto">
   <!-- REF_ARROW_ANGLED -->
   <g transform="scale(0.0092592592)">
    <path d="M -27 54 L -9 0 L -27 -54 L 135 0 z"/>
   </g>
  </marker>
  <marker id="DefaultArrow4" markerUnits="strokeWidth" viewBox="0 0 1 1" markerWidth="1" markerHeight="1" overflow="visible" orient="auto">
   <!-- REF_ARROW_ROUNDED -->
   <g transform="scale(0.0092592592)">
    <path d="M -9,0 L -9,-45 C -9,-51.708 2.808,-56.580 9,-54 L 117,-9 C 120.916,-7.369 126.000,-4.242 126,0 C 126,4.242 120.916,7.369 117,9 L 9,54 C 2.808,56.580 -9,51.708 -9,45 z"/>
   </g>
  </marker>
  <marker id="DefaultArrow5" markerUnits="strokeWidth" viewBox="0 0 1 1" markerWidth="1" markerHeight="1" overflow="visible" orient="auto">
   <!-- REF_ARROW_SPOT -->
   <g transform="scale(0.0092592592)">
    <path d="M -54, 0 C -54,29.807 -29.807,54 0,54 C 29.807,54 54,29.807 54,0 C 54,-29.807 29.807,-54 0,-54 C -29.807,-54 -54,-29.807 -54,0 z"/>
   </g>
  </marker>
  <marker id="DefaultArrow6" markerUnits="strokeWidth" viewBox="0 0 1 1" markerWidth="1" markerHeight="1" overflow="visible" orient="auto">
   <!-- REF_ARROW_DIAMOND -->
   <g transform="scale(0.0092592592)">
    <path d="M -63,0 L 0,63 L 63,0 L 0,-63 z"/>
   </g>
  </marker>
  <marker id="DefaultArrow7" markerUnits="strokeWidth" viewBox="0 0 1 1" markerWidth="1" markerHeight="1" overflow="visible" orient="auto">
   <!-- REF_ARROW_FEATHER -->
   <g transform="scale(0.0092592592)">
    <path d="M 18,-54 L 108,-54 L 63,0 L 108,54 L 18, 54 L -36,0 z"/>
   </g>
  </marker>
  <marker id="DefaultArrow8" markerUnits="strokeWidth" viewBox="0 0 1 1" markerWidth="1" markerHeight="1" overflow="visible" orient="auto">
   <!-- REF_ARROW_FEATHER2 -->
   <g transform="scale(0.0092592592)">
    <path d="M -36,0 L 18,-54 L 54,-54 L 18,-18 L 27,-18 L 63,-54 L 99,-54 L 63,-18 L 72,-18 L 108,-54 L 144,-54 L 90,0 L 144,54 L 108,54 L 72,18 L 63,18 L 99,54 L 63,54 L 27,18 L 18,18 L 54,54 L 18,54 z"/>
   </g>
  </marker>
  <marker id="DefaultArrow9" markerUnits="strokeWidth" viewBox="0 0 1 1" markerWidth="1" markerHeight="1" overflow="visible" orient="auto">
   <!-- REF_ARROW_HOLLOWDIAMOND -->
   <g transform="scale(0.0092592592)">
    <path d="M 0,45 L -45,0 L 0, -45 L 45, 0 z M 0, 63 L-63, 0 L 0, -63 L 63, 0 z"/>
   </g>
  </marker>
  <filter id="StainedFilter">
   <feBlend mode="multiply" in2="BackgroundImage" in="SourceGraphic" result="blend"/>
   <feComposite in="blend" in2="SourceAlpha" operator="in" result="comp"/>
  </filter>
  <filter id="BleachFilter">
   <feBlend mode="screen" in2="BackgroundImage" in="SourceGraphic" result="blend"/>
   <feComposite in="blend" in2="SourceAlpha" operator="in" result="comp"/>
  </filter>
  <filter id="InvertTransparencyBitmapFilter">
   <feComponentTransfer>
    <feFuncR type="gamma" amplitude="1.055" exponent=".416666666" offset="-0.055"/>
    <feFuncG type="gamma" amplitude="1.055" exponent=".416666666" offset="-0.055"/>
    <feFuncB type="gamma" amplitude="1.055" exponent=".416666666" offset="-0.055"/>
   </feComponentTransfer>
   <feComponentTransfer>
    <feFuncR type="linear" slope="-1" intercept="1"/>
    <feFuncG type="linear" slope="-1" intercept="1"/>
    <feFuncB type="linear" slope="-1" intercept="1"/>
    <feFuncA type="linear" slope="1" intercept="0"/>
   </feComponentTransfer>
   <feComponentTransfer>
    <feFuncR type="gamma" amplitude="1" exponent="2.4" offset="0"/>
    <feFuncG type="gamma" amplitude="1" exponent="2.4" offset="0"/>
    <feFuncB type="gamma" amplitude="1" exponent="2.4" offset="0"/>
   </feComponentTransfer>
  </filter>
 </defs>
 <g id="Document" fill="none" stroke="black" font-family="Times New Roman" font-size="16" transform="scale(1 -1)">
  <g id="Spread" transform="translate(0 -450)">
   <g id="Layer 1">
    <g id="Group" fill-rule="nonzero" stroke="none" stroke-width="3.119" fill="#000000" stroke-miterlimit="79.8403193612775">
     <g id="Group_1">
      <path d="M 102.894,221.842 C 99.068,219.929 94.325,218.972 88.668,218.972 C 82.012,218.972 75.627,220.116 69.511,222.404 C 63.397,224.691 58.009,227.79 53.351,231.7 C 48.691,235.608 44.948,240.183 42.119,245.423 C 39.291,250.664 37.877,256.237 37.877,262.144 C 37.877,282.191 52.105,304.15 80.559,328.022 C 79.644,331.683 78.958,335.384 78.501,339.128 C 78.043,342.869 77.814,346.737 77.814,350.732 C 77.814,356.22 78.27,361.607 79.185,366.889 C 80.098,372.171 81.409,377.121 83.114,381.737 C 84.819,386.354 86.918,390.555 89.412,394.34 C 91.905,398.125 94.775,401.307 98.018,403.884 C 109.326,388.245 114.979,373.311 114.979,359.087 C 114.979,349.852 112.795,341.055 108.428,332.695 C 104.061,324.335 97.219,316.203 87.902,308.299 L 93.392,281.971 C 96.387,282.215 98.051,282.337 98.383,282.337 C 102.543,282.337 106.432,281.588 110.05,280.091 C 113.669,278.593 116.831,276.535 119.54,273.916 C 122.247,271.296 124.393,268.199 125.977,264.622 C 127.559,261.047 128.351,257.18 128.352,253.021 C 128.351,250.028 127.81,247.075 126.73,244.165 C 125.649,241.254 124.112,238.488 122.115,235.869 C 120.119,233.249 117.748,230.838 115.005,228.636 C 112.26,226.431 109.223,224.539 105.896,222.958 C 105.896,223.125 106.021,222.646 106.27,221.525 C 106.52,220.402 106.832,218.927 107.206,217.097 C 107.581,215.267 108.017,213.229 108.516,210.983 C 109.015,208.739 109.452,206.576 109.827,204.498 C 110.201,202.419 110.534,200.568 110.825,198.947 C 111.116,197.323 111.261,196.223 111.261,195.641 C 111.261,191.733 110.43,188.156 108.766,184.913 C 107.102,181.669 104.856,178.884 102.026,176.555 C 99.198,174.228 95.912,172.418 92.169,171.129 C 88.425,169.84 84.472,169.195 80.312,169.195 C 77.15,169.195 74.197,169.694 71.451,170.692 C 68.705,171.69 66.293,173.105 64.214,174.933 C 62.134,176.763 60.491,178.986 59.285,181.605 C 58.079,184.224 57.476,187.113 57.476,190.272 C 57.476,192.518 57.85,194.639 58.599,196.634 C 59.347,198.628 60.387,200.332 61.718,201.746 C 63.049,203.16 64.671,204.283 66.584,205.113 C 68.499,205.945 70.579,206.361 72.825,206.361 C 74.821,206.361 76.693,205.904 78.44,204.989 C 80.187,204.074 81.684,202.888 82.932,201.432 C 84.18,199.977 85.178,198.313 85.928,196.441 C 86.677,194.571 87.051,192.679 87.051,190.766 C 87.051,186.44 85.45,182.905 82.246,180.16 C 79.043,177.415 75.029,175.792 70.203,175.295 C 74.029,173.38 77.979,172.424 82.055,172.425 C 85.381,172.424 88.625,173.027 91.786,174.235 C 94.945,175.441 97.709,177.063 100.08,179.101 C 102.451,181.139 104.364,183.511 105.82,186.215 C 107.274,188.918 108.002,191.809 108.002,194.887 C 108.002,196.053 107.877,197.343 107.629,198.757 L 102.894,221.842 Z M 102.522,385.793 C 101.688,385.959 100.94,386.042 100.274,386.042 C 97.694,386.042 95.3,384.732 93.094,382.112 C 90.89,379.491 88.975,376.081 87.351,371.88 C 85.729,367.679 84.46,362.958 83.544,357.718 C 82.629,352.477 82.169,347.236 82.169,341.996 C 82.169,339.833 82.254,337.753 82.421,335.757 C 82.589,333.76 82.882,331.847 83.301,330.017 C 100.276,345.074 108.764,358.633 108.764,370.695 C 108.764,376.434 106.683,381.467 102.522,385.793 Z M 105.14,226.951 C 109.22,229.946 112.32,233.232 114.445,236.81 C 116.566,240.386 117.629,244.254 117.629,248.415 C 117.629,250.992 117.19,253.508 116.317,255.964 C 115.443,258.416 114.195,260.599 112.572,262.514 C 110.948,264.426 109.012,265.965 106.764,267.128 C 104.517,268.291 102.063,268.871 99.401,268.871 C 99.234,268.871 98.902,268.85 98.402,268.81 C 97.903,268.769 97.196,268.708 96.281,268.627 L 105.14,226.951 Z M 93.17,268.11 C 90.592,267.778 88.179,267.133 85.933,266.176 C 83.687,265.22 81.753,264.034 80.131,262.62 C 78.509,261.206 77.22,259.584 76.263,257.754 C 75.307,255.924 74.828,253.927 74.828,251.764 C 74.828,245.359 78.235,240.035 85.048,235.793 C 79.391,236.708 74.858,238.892 71.445,242.344 C 68.035,245.796 66.33,250.142 66.33,255.383 C 66.33,258.461 66.974,261.435 68.264,264.305 C 69.553,267.174 71.279,269.755 73.442,272.046 C 75.606,274.339 78.144,276.318 81.055,277.983 C 83.966,279.65 87.044,280.817 90.288,281.482 L 85.048,306.438 C 73.319,297.622 64.439,288.971 58.408,280.484 C 52.377,271.999 49.362,263.598 49.362,255.279 C 49.362,250.704 50.381,246.377 52.419,242.3 C 54.458,238.224 57.205,234.668 60.659,231.632 C 64.113,228.594 68.108,226.202 72.643,224.457 C 77.178,222.709 81.982,221.835 87.056,221.835 C 89.968,221.835 92.671,222.106 95.167,222.646 C 97.662,223.187 99.992,224.04 102.154,225.204 L 93.17,268.11 Z" marker-start="none" marker-end="none"/>
     </g>
    </g>
   </g>
  </g>
 </g>
</svg>
