<?xml version="1.0" standalone="no"?>
<!DOCTYPE svg PUBLIC "-//W3C//DTD SVG 1.1//EN" "http://www.w3.org/Graphics/SVG/1.1/DTD/svg11.dtd">
<!--Generator: Xara Xtreme (www.xara.com), SVG filter version: 1.0.0.13-->
<svg stroke-width="0.501" stroke-linejoin="bevel" fill-rule="evenodd" xmlns:xlink="http://www.w3.org/1999/xlink" xmlns="http://www.w3.org/2000/svg" version="1.1" overflow="visible" width="600pt" height="450pt" viewBox="0 0 600 450">
 <defs>
  <marker id="DefaultArrow2" markerUnits="strokeWidth" viewBox="0 0 1 1" markerWidth="1" markerHeight="1" overflow="visible" orient="auto">
   <!-- REF_ARROW_STRAIGHT (-2) -->
   <g transform="scale(0.0092592592)">
    <!-- 1/108 -->
    <path d="M -9 54 L -9 -54 L 117 0 z"/>
   </g>
  </marker>
  <marker id="DefaultArrow3" markerUnits="strokeWidth" viewBox="0 0 1 1" markerWidth="1" markerHeight="1" overflow="visible" orient="auto">
   <!-- REF_ARROW_ANGLED -->
   <g transform="scale(0.0092592592)">
    <path d="M -27 54 L -9 0 L -27 -54 L 135 0 z"/>
   </g>
  </marker>
  <marker id="DefaultArrow4" markerUnits="strokeWidth" viewBox="0 0 1 1" markerWidth="1" markerHeight="1" overflow="visible" orient="auto">
   <!-- REF_ARROW_ROUNDED -->
   <g transform="scale(0.0092592592)">
    <path d="M -9,0 L -9,-45 C -9,-51.708 2.808,-56.580 9,-54 L 117,-9 C 120.916,-7.369 126.000,-4.242 126,0 C 126,4.242 120.916,7.369 117,9 L 9,54 C 2.808,56.580 -9,51.708 -9,45 z"/>
   </g>
  </marker>
  <marker id="DefaultArrow5" markerUnits="strokeWidth" viewBox="0 0 1 1" markerWidth="1" markerHeight="1" overflow="visible" orient="auto">
   <!-- REF_ARROW_SPOT -->
   <g transform="scale(0.0092592592)">
    <path d="M -54, 0 C -54,29.807 -29.807,54 0,54 C 29.807,54 54,29.807 54,0 C 54,-29.807 29.807,-54 0,-54 C -29.807,-54 -54,-29.807 -54,0 z"/>
   </g>
  </marker>
  <marker id="DefaultArrow6" markerUnits="strokeWidth" viewBox="0 0 1 1" markerWidth="1" markerHeight="1" overflow="visible" orient="auto">
   <!-- REF_ARROW_DIAMOND -->
   <g transform="scale(0.0092592592)">
    <path d="M -63,0 L 0,63 L 63,0 L 0,-63 z"/>
   </g>
  </marker>
  <marker id="DefaultArrow7" markerUnits="strokeWidth" viewBox="0 0 1 1" markerWidth="1" markerHeight="1" overflow="visible" orient="auto">
   <!-- REF_ARROW_FEATHER -->
   <g transform="scale(0.0092592592)">
    <path d="M 18,-54 L 108,-54 L 63,0 L 108,54 L 18, 54 L -36,0 z"/>
   </g>
  </marker>
  <marker id="DefaultArrow8" markerUnits="strokeWidth" viewBox="0 0 1 1" markerWidth="1" markerHeight="1" overflow="visible" orient="auto">
   <!-- REF_ARROW_FEATHER2 -->
   <g transform="scale(0.0092592592)">
    <path d="M -36,0 L 18,-54 L 54,-54 L 18,-18 L 27,-18 L 63,-54 L 99,-54 L 63,-18 L 72,-18 L 108,-54 L 144,-54 L 90,0 L 144,54 L 108,54 L 72,18 L 63,18 L 99,54 L 63,54 L 27,18 L 18,18 L 54,54 L 18,54 z"/>
   </g>
  </marker>
  <marker id="DefaultArrow9" markerUnits="strokeWidth" viewBox="0 0 1 1" markerWidth="1" markerHeight="1" overflow="visible" orient="auto">
   <!-- REF_ARROW_HOLLOWDIAMOND -->
   <g transform="scale(0.0092592592)">
    <path d="M 0,45 L -45,0 L 0, -45 L 45, 0 z M 0, 63 L-63, 0 L 0, -63 L 63, 0 z"/>
   </g>
  </marker>
  <filter id="StainedFilter">
   <feBlend mode="multiply" in2="BackgroundImage" in="SourceGraphic" result="blend"/>
   <feComposite in="blend" in2="SourceAlpha" operator="in" result="comp"/>
  </filter>
  <filter id="BleachFilter">
   <feBlend mode="screen" in2="BackgroundImage" in="SourceGraphic" result="blend"/>
   <feComposite in="blend" in2="SourceAlpha" operator="in" result="comp"/>
  </filter>
  <filter id="InvertTransparencyBitmapFilter">
   <feComponentTransfer>
    <feFuncR type="gamma" amplitude="1.055" exponent=".416666666" offset="-0.055"/>
    <feFuncG type="gamma" amplitude="1.055" exponent=".416666666" offset="-0.055"/>
    <feFuncB type="gamma" amplitude="1.055" exponent=".416666666" offset="-0.055"/>
   </feComponentTransfer>
   <feComponentTransfer>
    <feFuncR type="linear" slope="-1" intercept="1"/>
    <feFuncG type="linear" slope="-1" intercept="1"/>
    <feFuncB type="linear" slope="-1" intercept="1"/>
    <feFuncA type="linear" slope="1" intercept="0"/>
   </feComponentTransfer>
   <feComponentTransfer>
    <feFuncR type="gamma" amplitude="1" exponent="2.4" offset="0"/>
    <feFuncG type="gamma" amplitude="1" exponent="2.4" offset="0"/>
    <feFuncB type="gamma" amplitude="1" exponent="2.4" offset="0"/>
   </feComponentTransfer>
  </filter>
 </defs>
 <g id="Document" fill="none" stroke="black" font-family="Times New Roman" font-size="16" transform="scale(1 -1)">
  <g id="Spread" transform="translate(0 -450)">
   <g id="Layer 1">
    <g id="Group" fill-rule="nonzero" stroke="none" stroke-width="3.708" fill="#000000" stroke-miterlimit="79.8403193612775">
     <g id="Group_1">
      <path d="M 71.212,251.649 C 67.041,249.564 61.872,248.522 55.707,248.522 C 48.453,248.522 41.495,249.768 34.83,252.261 C 28.167,254.754 22.295,258.131 17.218,262.392 C 12.139,266.651 8.06,271.637 4.977,277.349 C 1.895,283.06 0.354,289.134 0.354,295.571 C 0.354,317.419 15.86,341.351 46.87,367.367 C 45.873,371.356 45.125,375.39 44.627,379.47 C 44.128,383.548 43.879,387.763 43.879,392.117 C 43.879,398.098 44.375,403.968 45.373,409.725 C 46.368,415.482 47.796,420.876 49.654,425.907 C 51.513,430.939 53.8,435.517 56.518,439.642 C 59.236,443.766 62.363,447.234 65.897,450.043 C 78.221,432.999 84.381,416.724 84.381,401.222 C 84.381,391.157 82.002,381.57 77.242,372.459 C 72.483,363.348 65.026,354.486 54.873,345.872 L 60.856,317.179 C 64.12,317.445 65.933,317.578 66.295,317.578 C 70.828,317.578 75.066,316.762 79.01,315.13 C 82.954,313.498 86.401,311.254 89.353,308.401 C 92.303,305.545 94.641,302.17 96.367,298.271 C 98.091,294.375 98.955,290.161 98.956,285.629 C 98.955,282.367 98.365,279.149 97.189,275.977 C 96.01,272.804 94.335,269.79 92.159,266.936 C 89.983,264.081 87.4,261.453 84.41,259.053 C 81.418,256.65 78.109,254.588 74.483,252.866 C 74.483,253.047 74.619,252.526 74.891,251.304 C 75.163,250.08 75.503,248.472 75.911,246.478 C 76.319,244.484 76.795,242.262 77.339,239.815 C 77.883,237.369 78.358,235.012 78.766,232.747 C 79.174,230.481 79.537,228.464 79.854,226.698 C 80.172,224.928 80.33,223.729 80.33,223.094 C 80.33,218.835 79.424,214.937 77.611,211.403 C 75.797,207.868 73.35,204.832 70.265,202.294 C 67.183,199.758 63.602,197.786 59.523,196.381 C 55.443,194.975 51.135,194.273 46.6,194.273 C 43.155,194.273 39.937,194.817 36.943,195.905 C 33.952,196.993 31.323,198.534 29.056,200.526 C 26.79,202.521 24.999,204.944 23.685,207.798 C 22.37,210.652 21.713,213.8 21.713,217.243 C 21.713,219.691 22.121,222.003 22.937,224.176 C 23.753,226.35 24.886,228.207 26.336,229.748 C 27.787,231.289 29.555,232.513 31.64,233.418 C 33.727,234.324 35.993,234.778 38.441,234.778 C 40.617,234.778 42.657,234.279 44.56,233.282 C 46.464,232.285 48.096,230.993 49.456,229.406 C 50.816,227.82 51.904,226.007 52.721,223.967 C 53.537,221.929 53.945,219.866 53.945,217.781 C 53.945,213.067 52.2,209.214 48.708,206.223 C 45.218,203.231 40.843,201.463 35.583,200.921 C 39.754,198.834 44.058,197.791 48.5,197.793 C 52.125,197.791 55.66,198.449 59.105,199.765 C 62.548,201.08 65.561,202.847 68.144,205.069 C 70.728,207.29 72.813,209.875 74.4,212.822 C 75.984,215.768 76.778,218.918 76.778,222.273 C 76.778,223.544 76.642,224.949 76.372,226.49 L 71.212,251.649 Z M 70.806,430.327 C 69.897,430.508 69.081,430.599 68.356,430.599 C 65.544,430.599 62.935,429.171 60.531,426.315 C 58.129,423.459 56.042,419.742 54.272,415.164 C 52.504,410.586 51.122,405.441 50.123,399.73 C 49.125,394.018 48.625,388.307 48.625,382.596 C 48.625,380.239 48.717,377.972 48.899,375.796 C 49.082,373.621 49.401,371.536 49.858,369.541 C 68.358,385.95 77.609,400.727 77.609,413.872 C 77.609,420.128 75.34,425.612 70.806,430.327 Z M 73.659,257.217 C 78.105,260.481 81.484,264.062 83.8,267.962 C 86.112,271.858 87.269,276.074 87.269,280.608 C 87.269,283.417 86.791,286.159 85.84,288.836 C 84.888,291.508 83.528,293.888 81.758,295.975 C 79.988,298.058 77.879,299.735 75.429,301.003 C 72.979,302.27 70.305,302.903 67.404,302.903 C 67.223,302.903 66.86,302.88 66.316,302.836 C 65.772,302.791 65.002,302.725 64.004,302.636 L 73.659,257.217 Z M 60.614,302.073 C 57.804,301.711 55.175,301.008 52.727,299.966 C 50.279,298.923 48.172,297.631 46.404,296.09 C 44.636,294.549 43.231,292.781 42.188,290.787 C 41.146,288.792 40.624,286.616 40.624,284.259 C 40.624,277.279 44.338,271.477 51.762,266.853 C 45.597,267.85 40.656,270.23 36.938,273.992 C 33.221,277.755 31.362,282.491 31.362,288.203 C 31.362,291.557 32.065,294.798 33.47,297.926 C 34.875,301.054 36.756,303.866 39.113,306.363 C 41.472,308.861 44.237,311.018 47.41,312.833 C 50.583,314.65 53.938,315.921 57.473,316.647 L 51.762,343.844 C 38.979,334.236 29.302,324.808 22.729,315.559 C 16.156,306.312 12.87,297.155 12.87,288.09 C 12.87,283.103 13.981,278.387 16.202,273.945 C 18.425,269.503 21.418,265.627 25.182,262.318 C 28.947,259.008 33.3,256.401 38.243,254.499 C 43.185,252.594 48.421,251.642 53.951,251.642 C 57.124,251.642 60.07,251.936 62.79,252.526 C 65.51,253.115 68.048,254.044 70.405,255.313 L 60.614,302.073 Z" marker-start="none" marker-end="none"/>
      <path d="M 110.209,206.364 C 120.272,209.537 127.931,213.481 133.189,218.193 C 138.173,222.635 142.683,227.438 146.717,232.606 C 150.752,237.771 154.174,243.075 156.984,248.514 C 159.795,253.952 161.948,259.457 163.444,265.032 C 164.94,270.606 165.687,276.068 165.686,281.417 C 165.687,285.768 165.098,289.78 163.92,293.45 C 162.741,297.121 161.064,300.292 158.888,302.967 C 156.712,305.641 154.061,307.749 150.933,309.29 C 147.805,310.829 144.292,311.6 140.394,311.602 C 137.674,311.6 134.932,311.079 132.167,310.036 C 129.402,308.994 126.932,307.588 124.758,305.821 C 122.582,304.051 120.814,302.032 119.454,299.765 C 118.094,297.499 117.414,295.187 117.414,292.828 C 117.414,291.378 117.732,290.653 118.366,290.653 C 118.276,290.653 118.457,290.881 118.91,291.336 C 119.364,291.793 119.998,292.296 120.814,292.843 C 121.63,293.391 122.65,293.894 123.874,294.349 C 125.098,294.808 126.39,295.034 127.749,295.034 C 129.2,295.034 130.582,294.717 131.897,294.082 C 133.21,293.448 134.343,292.587 135.297,291.499 C 136.247,290.409 136.995,289.162 137.54,287.759 C 138.084,286.352 138.356,284.879 138.356,283.338 C 138.356,278.986 137.042,275.382 134.413,272.527 C 131.784,269.671 128.293,268.243 123.942,268.241 C 121.764,268.243 119.817,268.765 118.096,269.805 C 116.376,270.848 114.903,272.251 113.681,274.019 C 112.459,275.785 111.509,277.847 110.831,280.202 C 110.151,282.559 109.811,285.051 109.811,287.678 C 109.811,291.665 110.717,295.38 112.53,298.825 C 114.342,302.266 116.789,305.256 119.87,307.794 C 122.952,310.331 126.486,312.325 130.473,313.776 C 134.46,315.226 138.628,315.951 142.98,315.95 C 150.954,315.951 157.547,314.728 162.758,312.28 C 167.969,309.832 172.092,306.659 175.127,302.761 C 178.164,298.865 180.272,294.56 181.449,289.846 C 182.627,285.134 183.216,280.51 183.216,275.977 C 183.216,273.167 183.012,270.47 182.604,267.888 C 182.196,265.304 181.471,262.607 180.429,259.797 C 179.386,256.987 178.004,253.952 176.283,250.688 C 174.56,247.426 172.385,243.709 169.756,239.539 C 166.494,234.283 162.303,229.434 157.181,224.992 C 152.061,220.55 146.802,216.72 141.41,213.503 C 136.016,210.285 130.896,207.769 126.048,205.956 C 121.199,204.143 117.371,203.237 114.561,203.238 C 111.843,203.237 110.392,204.279 110.209,206.364 Z M 194.637,298.421 C 194.635,300.326 195.295,301.937 196.611,303.252 C 197.927,304.568 199.536,305.226 201.442,305.228 C 203.348,305.226 204.959,304.568 206.275,303.252 C 207.59,301.937 208.249,300.326 208.249,298.421 C 208.249,296.515 207.59,294.904 206.275,293.589 C 204.959,292.273 203.348,291.616 201.442,291.614 C 199.536,291.616 197.927,292.273 196.611,293.589 C 195.295,294.904 194.635,296.515 194.637,298.421 Z M 194.637,264.557 C 194.635,266.462 195.295,268.073 196.611,269.39 C 197.927,270.704 199.536,271.363 201.442,271.363 C 203.348,271.363 204.959,270.704 206.275,269.39 C 207.59,268.073 208.249,266.462 208.249,264.557 C 208.249,262.651 207.59,261.042 206.275,259.725 C 204.959,258.411 203.348,257.752 201.442,257.752 C 199.536,257.752 197.927,258.411 196.611,259.725 C 195.295,261.042 194.635,262.651 194.637,264.557 Z" marker-start="none" marker-end="none"/>
      <path d="M 278.267,214.127 C 275.005,214.127 271.878,214.601 268.888,215.551 C 265.896,216.499 263.292,217.857 261.072,219.623 C 258.851,221.389 257.084,223.495 255.771,225.942 C 254.456,228.39 253.799,231.155 253.799,234.237 C 253.799,235.597 254.071,237.002 254.615,238.453 C 255.157,239.903 255.905,241.218 256.857,242.397 C 257.809,243.575 258.942,244.527 260.255,245.252 C 261.569,245.978 262.95,246.34 264.398,246.34 C 265.94,246.34 267.39,246.023 268.748,245.388 C 270.108,244.754 271.307,243.892 272.348,242.805 C 273.391,241.717 274.206,240.47 274.794,239.065 C 275.383,237.66 275.678,236.187 275.678,234.645 C 275.678,233.104 275.179,231.744 274.182,230.566 C 273.185,229.387 272.074,228.345 270.85,227.438 C 269.626,226.532 268.516,225.738 267.519,225.058 C 266.521,224.378 266.023,223.857 266.023,223.495 C 266.023,220.503 269.513,219.007 276.494,219.007 C 279.485,219.007 282.022,219.438 284.107,220.299 C 286.192,221.16 287.892,222.633 289.206,224.718 C 290.519,226.802 291.448,229.589 291.994,233.082 C 292.536,236.57 292.808,240.989 292.808,246.338 C 292.808,249.511 292.491,252.548 291.858,255.449 C 291.222,258.35 290.36,260.889 289.274,263.064 C 288.186,265.24 286.872,266.963 285.331,268.23 C 283.79,269.501 282.069,270.136 280.165,270.134 C 273.821,270.136 267.294,264.742 260.587,253.952 C 260.134,257.489 259.501,260.707 258.685,263.608 C 257.871,266.509 256.919,269.001 255.831,271.084 C 254.745,273.165 253.523,274.795 252.164,275.972 C 250.806,277.148 249.355,277.738 247.816,277.738 C 246.909,277.738 246.05,277.602 245.234,277.33 L 245.234,214.792 L 239.789,214.792 L 239.789,350.244 L 245.234,350.244 L 245.234,285.642 C 245.597,285.551 245.914,285.483 246.186,285.438 C 246.458,285.393 246.773,285.37 247.136,285.37 C 248.856,285.37 250.466,286.004 251.96,287.274 C 253.455,288.543 254.768,290.288 255.899,292.509 C 257.033,294.73 258.007,297.337 258.821,300.328 C 259.637,303.322 260.224,306.495 260.587,309.851 C 268.565,300.238 274.867,295.433 279.491,295.433 C 281.485,295.433 283.299,295.999 284.93,297.133 C 286.564,298.266 287.924,299.852 289.01,301.892 C 290.1,303.934 290.938,306.359 291.526,309.169 C 292.117,311.98 292.411,315.062 292.41,318.416 C 292.411,323.856 292.117,328.298 291.526,331.745 C 290.936,335.19 289.894,337.887 288.398,339.836 C 286.902,341.785 284.906,343.101 282.413,343.781 C 279.92,344.461 276.769,344.801 272.962,344.801 C 266.978,344.801 263.987,343.623 263.987,341.266 C 263.987,340.54 264.984,339.724 266.978,338.818 C 270.331,337.277 272.597,335.826 273.778,334.466 C 274.956,333.106 275.546,331.429 275.546,329.435 C 275.546,328.075 275.251,326.692 274.662,325.287 C 274.072,323.882 273.279,322.613 272.282,321.48 C 271.285,320.346 270.151,319.395 268.882,318.624 C 267.613,317.853 266.253,317.468 264.803,317.468 C 261.358,317.468 258.502,318.669 256.236,321.072 C 253.969,323.474 252.836,326.398 252.836,329.843 C 252.836,334.648 254.422,339.135 257.595,343.305 C 260.043,346.476 262.946,348.514 266.3,349.419 C 269.655,350.324 273.1,350.775 276.635,350.777 C 281.621,350.775 286.132,350.118 290.166,348.805 C 294.2,347.491 297.645,345.61 300.501,343.162 C 303.358,340.714 305.557,337.702 307.096,334.121 C 308.639,330.54 309.41,326.483 309.408,321.952 C 309.41,317.691 308.752,313.611 307.438,309.713 C 306.123,305.815 304.333,302.37 302.066,299.38 C 299.8,296.388 297.148,294.009 294.113,292.241 C 291.076,290.473 287.792,289.589 284.256,289.589 C 276.915,289.589 271.43,290.858 267.806,293.397 L 267.126,293.397 C 265.675,293.397 264.499,292.445 263.592,290.541 C 262.685,288.637 262.232,286.371 262.232,283.74 C 262.232,282.017 262.345,280.34 262.572,278.707 C 262.799,277.075 263.161,275.602 263.66,274.287 C 264.159,272.973 264.723,271.928 265.358,271.157 C 265.993,270.387 266.718,270.002 267.534,270.002 C 269.889,272.266 272.269,274.057 274.669,275.369 C 277.072,276.684 279.767,277.339 282.757,277.339 C 286.834,277.339 290.527,276.41 293.834,274.551 C 297.141,272.693 299.995,270.156 302.397,266.94 C 304.797,263.722 306.656,260.007 307.969,255.793 C 309.283,251.579 309.94,247.16 309.94,242.538 C 309.94,233.293 307.175,226.248 301.647,221.4 C 296.119,216.552 288.326,214.127 278.267,214.127 Z M 231.224,350.244 L 231.224,214.792 L 214.226,214.792 L 214.226,350.244 L 231.224,350.244 Z" marker-start="none" marker-end="none"/>
     </g>
    </g>
   </g>
  </g>
 </g>
</svg>
