<svg>
   <!--g id="Layer 1">
    <path d="M 0.805,584.964 L 0.805,372.855 L 516.43,372.855 L 516.43,584.964 L 0.805,584.964 Z" stroke="none" fill="#000000" stroke-width="0.75" stroke-linejoin="miter" marker-start="none" marker-end="none" stroke-miterlimit="79.8403193612775"/>
   </g-->
   <g id="SVG Document">
    <path d="M 71.681,642.244 C 67.5,640.149 62.318,639.102 56.138,639.102 C 48.863,639.102 41.888,640.355 35.205,642.858 C 28.523,645.363 22.636,648.754 17.545,653.035 C 12.455,657.313 8.364,662.321 5.274,668.058 C 2.184,673.795 0.639,679.896 0.639,686.362 C 0.639,708.309 16.184,732.348 47.277,758.483 C 46.276,762.489 45.527,766.541 45.027,770.639 C 44.528,774.735 44.277,778.97 44.277,783.343 C 44.277,789.351 44.775,795.247 45.774,801.03 C 46.772,806.813 48.204,812.231 50.067,817.286 C 51.932,822.34 54.223,826.937 56.95,831.081 C 59.674,835.225 62.81,838.709 66.352,841.529 C 78.709,824.409 84.886,808.06 84.886,792.489 C 84.886,782.379 82.5,772.748 77.727,763.597 C 72.956,754.444 65.48,745.544 55.301,736.89 L 61.299,708.068 C 64.571,708.335 66.389,708.468 66.753,708.468 C 71.296,708.468 75.547,707.649 79.5,706.009 C 83.455,704.371 86.911,702.117 89.87,699.25 C 92.828,696.382 95.173,692.991 96.903,689.076 C 98.632,685.161 99.497,680.929 99.499,676.376 C 99.497,673.1 98.907,669.866 97.726,666.682 C 96.545,663.494 94.866,660.465 92.685,657.599 C 90.502,654.73 87.912,652.092 84.914,649.681 C 81.916,647.266 78.598,645.195 74.962,643.465 C 74.962,643.647 75.098,643.123 75.37,641.895 C 75.644,640.666 75.984,639.053 76.392,637.048 C 76.802,635.046 77.279,632.815 77.824,630.356 C 78.37,627.899 78.847,625.532 79.256,623.257 C 79.666,620.98 80.028,618.953 80.348,617.18 C 80.665,615.402 80.824,614.198 80.824,613.561 C 80.824,609.281 79.915,605.366 78.098,601.816 C 76.279,598.266 73.825,595.216 70.733,592.666 C 67.643,590.119 64.052,588.138 59.962,586.726 C 55.871,585.314 51.552,584.609 47.005,584.609 C 43.551,584.609 40.325,585.155 37.324,586.248 C 34.324,587.342 31.687,588.89 29.415,590.89 C 27.144,592.895 25.348,595.327 24.029,598.195 C 22.712,601.061 22.053,604.224 22.053,607.682 C 22.053,610.141 22.463,612.464 23.281,614.647 C 24.098,616.83 25.235,618.696 26.688,620.244 C 28.143,621.792 29.916,623.021 32.007,623.929 C 34.099,624.84 36.372,625.297 38.824,625.297 C 41.007,625.297 43.052,624.794 44.96,623.793 C 46.869,622.792 48.506,621.493 49.869,619.901 C 51.232,618.307 52.324,616.485 53.143,614.436 C 53.96,612.39 54.37,610.318 54.37,608.223 C 54.37,603.488 52.62,599.617 49.119,596.611 C 45.619,593.608 41.235,591.832 35.96,591.287 C 40.142,589.19 44.457,588.143 48.91,588.145 C 52.544,588.143 56.09,588.803 59.544,590.126 C 62.996,591.446 66.015,593.222 68.607,595.453 C 71.198,597.684 73.288,600.282 74.877,603.242 C 76.467,606.201 77.263,609.365 77.263,612.735 C 77.263,614.012 77.125,615.424 76.855,616.971 L 71.681,642.244 Z M 71.275,821.724 C 70.364,821.906 69.545,821.998 68.819,821.998 C 65.999,821.998 63.384,820.564 60.974,817.694 C 58.564,814.827 56.471,811.092 54.698,806.494 C 52.926,801.895 51.54,796.727 50.537,790.99 C 49.537,785.253 49.036,779.516 49.036,773.779 C 49.036,771.411 49.129,769.134 49.309,766.949 C 49.493,764.763 49.814,762.668 50.272,760.666 C 68.821,777.148 78.096,791.992 78.096,805.196 C 78.096,811.48 75.822,816.988 71.275,821.724 Z M 74.136,647.836 C 78.594,651.114 81.981,654.712 84.303,658.629 C 86.621,662.544 87.781,666.777 87.781,671.332 C 87.781,674.154 87.303,676.908 86.348,679.597 C 85.394,682.281 84.031,684.673 82.256,686.769 C 80.482,688.86 78.366,690.546 75.91,691.818 C 73.454,693.092 70.772,693.727 67.864,693.727 C 67.682,693.727 67.318,693.704 66.773,693.661 C 66.229,693.615 65.455,693.548 64.456,693.459 L 74.136,647.836 Z M 61.057,692.893 C 58.239,692.531 55.603,691.825 53.148,690.778 C 50.694,689.73 48.582,688.432 46.809,686.884 C 45.036,685.336 43.627,683.56 42.582,681.557 C 41.537,679.553 41.014,677.368 41.014,675 C 41.014,667.989 44.738,662.16 52.181,657.516 C 46,658.517 41.046,660.907 37.318,664.688 C 33.591,668.466 31.728,673.223 31.728,678.962 C 31.728,682.33 32.432,685.586 33.842,688.727 C 35.251,691.869 37.136,694.694 39.499,697.203 C 41.865,699.713 44.637,701.88 47.817,703.702 C 50.999,705.528 54.363,706.805 57.907,707.532 L 52.181,734.852 C 39.365,725.201 29.662,715.73 23.072,706.441 C 16.483,697.152 13.188,687.954 13.188,678.847 C 13.188,673.839 14.3,669.102 16.528,664.64 C 18.757,660.177 21.759,656.285 25.532,652.961 C 29.305,649.635 33.67,647.017 38.627,645.106 C 43.581,643.192 48.831,642.235 54.375,642.235 C 57.557,642.235 60.511,642.532 63.238,643.123 C 65.966,643.716 68.51,644.65 70.873,645.924 L 61.057,692.893 Z" stroke="none" fill="#000000" stroke-width="0.75" stroke-linejoin="miter" marker-start="none" marker-end="none" stroke-miterlimit="79.8403193612775"/>
   </g>
</svg>
